<svg xmlns="http://www.w3.org/2000/svg" width="480" height="480" viewBox="0 0 24 24"><style>rect{shape-rendering:crispEdges;}</style><rect width="24" height="24" fill="#0f3460"/><rect x="0" y="0" width="1" height="24" fill="#fdcb6e" opacity="0.15"/><rect x="3" y="0" width="1" height="24" fill="#fdcb6e" opacity="0.15"/><rect x="6" y="0" width="1" height="24" fill="#fdcb6e" opacity="0.15"/><rect x="9" y="0" width="1" height="24" fill="#fdcb6e" opacity="0.15"/><rect x="12" y="0" width="1" height="24" fill="#fdcb6e" opacity="0.15"/><rect x="15" y="0" width="1" height="24" fill="#fdcb6e" opacity="0.15"/><rect x="18" y="0" width="1" height="24" fill="#fdcb6e" opacity="0.15"/><rect x="21" y="0" width="1" height="24" fill="#fdcb6e" opacity="0.15"/><rect x="7" y="7" width="10" height="10" fill="#34495e"/><rect x="7" y="7" width="10" height="1" fill="#01162b"/><rect x="7" y="7" width="1" height="10" fill="#01162b"/><circle cx="9" cy="11" r="1" fill="#ffff00"/><circle cx="15" cy="11" r="1" fill="#ffff00"/><circle cx="9" cy="11" r="0.5" fill="#000"/><circle cx="15" cy="11" r="0.5" fill="#000"/><polygon points="6,7 3,2 7,5" fill="#fdcb6e"/><polygon points="18,7 21,2 17,5" fill="#fdcb6e"/><text x="23" y="23.5" font-size="1.5" fill="#0f3460" opacity="0.3" text-anchor="end">#1004</text></svg>