<svg xmlns="http://www.w3.org/2000/svg" width="480" height="480" viewBox="0 0 24 24"><style>rect{shape-rendering:crispEdges;}</style><rect width="24" height="24" fill="#16213e"/><polygon points="12,7 16.33012701892219,9.5 16.330127018922195,14.5 12,17 7.669872981077807,14.500000000000002 7.669872981077805,9.500000000000004" fill="#9b59b6"/><polygon points="12,7 16.33012701892219,9.5 16.330127018922195,14.5 12,17 7.669872981077807,14.500000000000002 7.669872981077805,9.500000000000004" fill="none" stroke="#682683" stroke-width="0.5"/><circle cx="8" cy="11" r="2" fill="#ff0000"/><circle cx="16" cy="11" r="2" fill="#ff0000"/><circle cx="8" cy="11" r="1" fill="#000"/><circle cx="16" cy="11" r="1" fill="#000"/><rect x="7" y="4" width="10" height="2" fill="#fdcb6e"/><polygon points="8,4 8,1 10,3 12,0 14,3 16,1 16,4" fill="#fdcb6e"/><text x="23" y="23.5" font-size="1.5" fill="#16213e" opacity="0.3" text-anchor="end">#1027</text></svg>