<svg xmlns="http://www.w3.org/2000/svg" width="480" height="480" viewBox="0 0 24 24"><style>rect{shape-rendering:crispEdges;}</style><rect width="24" height="24" fill="#bdc3c7"/><rect x="0" y="0" width="1" height="24" fill="#ee5a24" opacity="0.15"/><rect x="3" y="0" width="1" height="24" fill="#ee5a24" opacity="0.15"/><rect x="6" y="0" width="1" height="24" fill="#ee5a24" opacity="0.15"/><rect x="9" y="0" width="1" height="24" fill="#ee5a24" opacity="0.15"/><rect x="12" y="0" width="1" height="24" fill="#ee5a24" opacity="0.15"/><rect x="15" y="0" width="1" height="24" fill="#ee5a24" opacity="0.15"/><rect x="18" y="0" width="1" height="24" fill="#ee5a24" opacity="0.15"/><rect x="21" y="0" width="1" height="24" fill="#ee5a24" opacity="0.15"/><polygon points="12,6 18,12 12,18 6,12" fill="#ecf0f1"/><polygon points="12,6 18,12 12,18 6,12" fill="none" stroke="#b9bdbe" stroke-width="0.5"/><rect x="8" y="10" width="2" height="2" fill="#00ffff"/><rect x="14" y="10" width="2" height="2" fill="#00ffff"/><circle cx="9" cy="11" r="0.5" fill="#000"/><circle cx="15" cy="11" r="0.5" fill="#000"/><polygon points="6,7 3,2 7,5" fill="#ee5a24"/><polygon points="18,7 21,2 17,5" fill="#ee5a24"/><text x="23" y="23.5" font-size="1.5" fill="#bdc3c7" opacity="0.3" text-anchor="end">#1057</text></svg>