<svg xmlns="http://www.w3.org/2000/svg" width="480" height="480" viewBox="0 0 24 24"><style>rect{shape-rendering:crispEdges;}</style><rect width="24" height="24" fill="#bdc3c7"/><rect x="0" y="0" width="2" height="2" fill="#a29bfe" opacity="0.15"/><rect x="0" y="8" width="2" height="2" fill="#a29bfe" opacity="0.15"/><rect x="0" y="16" width="2" height="2" fill="#a29bfe" opacity="0.15"/><rect x="4" y="4" width="2" height="2" fill="#a29bfe" opacity="0.15"/><rect x="4" y="12" width="2" height="2" fill="#a29bfe" opacity="0.15"/><rect x="4" y="20" width="2" height="2" fill="#a29bfe" opacity="0.15"/><rect x="8" y="0" width="2" height="2" fill="#a29bfe" opacity="0.15"/><rect x="8" y="8" width="2" height="2" fill="#a29bfe" opacity="0.15"/><rect x="8" y="16" width="2" height="2" fill="#a29bfe" opacity="0.15"/><rect x="12" y="4" width="2" height="2" fill="#a29bfe" opacity="0.15"/><rect x="12" y="12" width="2" height="2" fill="#a29bfe" opacity="0.15"/><rect x="12" y="20" width="2" height="2" fill="#a29bfe" opacity="0.15"/><rect x="16" y="0" width="2" height="2" fill="#a29bfe" opacity="0.15"/><rect x="16" y="8" width="2" height="2" fill="#a29bfe" opacity="0.15"/><rect x="16" y="16" width="2" height="2" fill="#a29bfe" opacity="0.15"/><rect x="20" y="4" width="2" height="2" fill="#a29bfe" opacity="0.15"/><rect x="20" y="12" width="2" height="2" fill="#a29bfe" opacity="0.15"/><rect x="20" y="20" width="2" height="2" fill="#a29bfe" opacity="0.15"/><rect x="7" y="7" width="10" height="10" fill="#f5f5f5"/><rect x="7" y="7" width="10" height="1" fill="#c2c2c2"/><rect x="7" y="7" width="1" height="10" fill="#c2c2c2"/><circle cx="8" cy="11" r="1.5" fill="#00ff00"/><circle cx="16" cy="11" r="1.5" fill="#00ff00"/><circle cx="8" cy="11" r="0.75" fill="#000"/><circle cx="16" cy="11" r="0.75" fill="#000"/><polygon points="6,7 3,2 7,5" fill="#a29bfe"/><polygon points="18,7 21,2 17,5" fill="#a29bfe"/><text x="23" y="23.5" font-size="1.5" fill="#bdc3c7" opacity="0.3" text-anchor="end">#1118</text></svg>