<svg xmlns="http://www.w3.org/2000/svg" width="480" height="480" viewBox="0 0 24 24"><style>rect{shape-rendering:crispEdges;}</style><rect width="24" height="24" fill="#533483"/><rect x="0" y="0" width="1" height="24" fill="#a29bfe" opacity="0.15"/><rect x="3" y="0" width="1" height="24" fill="#a29bfe" opacity="0.15"/><rect x="6" y="0" width="1" height="24" fill="#a29bfe" opacity="0.15"/><rect x="9" y="0" width="1" height="24" fill="#a29bfe" opacity="0.15"/><rect x="12" y="0" width="1" height="24" fill="#a29bfe" opacity="0.15"/><rect x="15" y="0" width="1" height="24" fill="#a29bfe" opacity="0.15"/><rect x="18" y="0" width="1" height="24" fill="#a29bfe" opacity="0.15"/><rect x="21" y="0" width="1" height="24" fill="#a29bfe" opacity="0.15"/><polygon points="12,6 18,12 12,18 6,12" fill="#95a5a6"/><polygon points="12,6 18,12 12,18 6,12" fill="none" stroke="#627273" stroke-width="0.5"/><circle cx="10" cy="11" r="0.5" fill="#0000ff"/><circle cx="14" cy="11" r="0.5" fill="#0000ff"/><circle cx="10" cy="11" r="0.3" fill="#000"/><circle cx="14" cy="11" r="0.3" fill="#000"/><line x1="12" y1="6" x2="12" y2="1" stroke="#a29bfe" stroke-width="0.8"/><circle cx="12" cy="0" r="1.5" fill="#a29bfe"/><text x="23" y="23.5" font-size="1.5" fill="#533483" opacity="0.3" text-anchor="end">#1126</text></svg>