<svg xmlns="http://www.w3.org/2000/svg" width="480" height="480" viewBox="0 0 24 24"><style>rect{shape-rendering:crispEdges;}</style><rect width="24" height="24" fill="#27ae60"/><rect x="0" y="0" width="0.5" height="24" fill="#ff9f43" opacity="0.15"/><rect x="0" y="0" width="24" height="0.5" fill="#ff9f43" opacity="0.15"/><rect x="4" y="0" width="0.5" height="24" fill="#ff9f43" opacity="0.15"/><rect x="0" y="4" width="24" height="0.5" fill="#ff9f43" opacity="0.15"/><rect x="8" y="0" width="0.5" height="24" fill="#ff9f43" opacity="0.15"/><rect x="0" y="8" width="24" height="0.5" fill="#ff9f43" opacity="0.15"/><rect x="12" y="0" width="0.5" height="24" fill="#ff9f43" opacity="0.15"/><rect x="0" y="12" width="24" height="0.5" fill="#ff9f43" opacity="0.15"/><rect x="16" y="0" width="0.5" height="24" fill="#ff9f43" opacity="0.15"/><rect x="0" y="16" width="24" height="0.5" fill="#ff9f43" opacity="0.15"/><rect x="20" y="0" width="0.5" height="24" fill="#ff9f43" opacity="0.15"/><rect x="0" y="20" width="24" height="0.5" fill="#ff9f43" opacity="0.15"/><polygon points="12,6 18,12 12,18 6,12" fill="#16a085"/><polygon points="12,6 18,12 12,18 6,12" fill="none" stroke="#006d52" stroke-width="0.5"/><circle cx="7" cy="11" r="1" fill="#00ffff"/><circle cx="17" cy="11" r="1" fill="#00ffff"/><circle cx="7" cy="11" r="0.5" fill="#000"/><circle cx="17" cy="11" r="0.5" fill="#000"/><rect x="7" y="4" width="10" height="2" fill="#ff9f43"/><polygon points="8,4 8,1 10,3 12,0 14,3 16,1 16,4" fill="#ff9f43"/><text x="23" y="23.5" font-size="1.5" fill="#27ae60" opacity="0.3" text-anchor="end">#1130</text></svg>