<svg xmlns="http://www.w3.org/2000/svg" width="480" height="480" viewBox="0 0 24 24"><style>rect{shape-rendering:crispEdges;}</style><rect width="24" height="24" fill="#16213e"/><rect x="0" y="0" width="1" height="24" fill="#fd79a8" opacity="0.15"/><rect x="3" y="0" width="1" height="24" fill="#fd79a8" opacity="0.15"/><rect x="6" y="0" width="1" height="24" fill="#fd79a8" opacity="0.15"/><rect x="9" y="0" width="1" height="24" fill="#fd79a8" opacity="0.15"/><rect x="12" y="0" width="1" height="24" fill="#fd79a8" opacity="0.15"/><rect x="15" y="0" width="1" height="24" fill="#fd79a8" opacity="0.15"/><rect x="18" y="0" width="1" height="24" fill="#fd79a8" opacity="0.15"/><rect x="21" y="0" width="1" height="24" fill="#fd79a8" opacity="0.15"/><polygon points="12,6 18,17 6,17" fill="#c0392b"/><polygon points="12,6 18,17 6,17" fill="none" stroke="#8d0600" stroke-width="0.5"/><circle cx="9" cy="11" r="0.5" fill="#0000ff"/><circle cx="15" cy="11" r="0.5" fill="#0000ff"/><circle cx="9" cy="11" r="0.3" fill="#000"/><circle cx="15" cy="11" r="0.3" fill="#000"/><text x="23" y="23.5" font-size="1.5" fill="#16213e" opacity="0.3" text-anchor="end">#1264</text></svg>