<svg xmlns="http://www.w3.org/2000/svg" width="480" height="480" viewBox="0 0 24 24"><style>rect{shape-rendering:crispEdges;}</style><rect width="24" height="24" fill="#e67e22"/><line x1="-24" y1="0" x2="0" y2="24" stroke="#ff6b6b" stroke-width="0.5" opacity="0.15"/><line x1="-21" y1="0" x2="3" y2="24" stroke="#ff6b6b" stroke-width="0.5" opacity="0.15"/><line x1="-18" y1="0" x2="6" y2="24" stroke="#ff6b6b" stroke-width="0.5" opacity="0.15"/><line x1="-15" y1="0" x2="9" y2="24" stroke="#ff6b6b" stroke-width="0.5" opacity="0.15"/><line x1="-12" y1="0" x2="12" y2="24" stroke="#ff6b6b" stroke-width="0.5" opacity="0.15"/><line x1="-9" y1="0" x2="15" y2="24" stroke="#ff6b6b" stroke-width="0.5" opacity="0.15"/><line x1="-6" y1="0" x2="18" y2="24" stroke="#ff6b6b" stroke-width="0.5" opacity="0.15"/><line x1="-3" y1="0" x2="21" y2="24" stroke="#ff6b6b" stroke-width="0.5" opacity="0.15"/><line x1="0" y1="0" x2="24" y2="24" stroke="#ff6b6b" stroke-width="0.5" opacity="0.15"/><line x1="3" y1="0" x2="27" y2="24" stroke="#ff6b6b" stroke-width="0.5" opacity="0.15"/><line x1="6" y1="0" x2="30" y2="24" stroke="#ff6b6b" stroke-width="0.5" opacity="0.15"/><line x1="9" y1="0" x2="33" y2="24" stroke="#ff6b6b" stroke-width="0.5" opacity="0.15"/><line x1="12" y1="0" x2="36" y2="24" stroke="#ff6b6b" stroke-width="0.5" opacity="0.15"/><line x1="15" y1="0" x2="39" y2="24" stroke="#ff6b6b" stroke-width="0.5" opacity="0.15"/><line x1="18" y1="0" x2="42" y2="24" stroke="#ff6b6b" stroke-width="0.5" opacity="0.15"/><line x1="21" y1="0" x2="45" y2="24" stroke="#ff6b6b" stroke-width="0.5" opacity="0.15"/><line x1="24" y1="0" x2="48" y2="24" stroke="#ff6b6b" stroke-width="0.5" opacity="0.15"/><line x1="27" y1="0" x2="51" y2="24" stroke="#ff6b6b" stroke-width="0.5" opacity="0.15"/><line x1="30" y1="0" x2="54" y2="24" stroke="#ff6b6b" stroke-width="0.5" opacity="0.15"/><line x1="33" y1="0" x2="57" y2="24" stroke="#ff6b6b" stroke-width="0.5" opacity="0.15"/><line x1="36" y1="0" x2="60" y2="24" stroke="#ff6b6b" stroke-width="0.5" opacity="0.15"/><line x1="39" y1="0" x2="63" y2="24" stroke="#ff6b6b" stroke-width="0.5" opacity="0.15"/><line x1="42" y1="0" x2="66" y2="24" stroke="#ff6b6b" stroke-width="0.5" opacity="0.15"/><line x1="45" y1="0" x2="69" y2="24" stroke="#ff6b6b" stroke-width="0.5" opacity="0.15"/><polygon points="12,7 16.33012701892219,9.5 16.330127018922195,14.5 12,17 7.669872981077807,14.500000000000002 7.669872981077805,9.500000000000004" fill="#ecf0f1"/><polygon points="12,7 16.33012701892219,9.5 16.330127018922195,14.5 12,17 7.669872981077807,14.500000000000002 7.669872981077805,9.500000000000004" fill="none" stroke="#b9bdbe" stroke-width="0.5"/><rect x="8" y="10" width="2" height="2" fill="#ffff00"/><rect x="14" y="10" width="2" height="2" fill="#ffff00"/><circle cx="9" cy="11" r="0.5" fill="#000"/><circle cx="15" cy="11" r="0.5" fill="#000"/><rect x="6" y="4" width="12" height="1" fill="#ff6b6b"/><rect x="8" y="0" width="8" height="4" fill="#ff6b6b"/><text x="23" y="23.5" font-size="1.5" fill="#e67e22" opacity="0.3" text-anchor="end">#1319</text></svg>