<svg xmlns="http://www.w3.org/2000/svg" width="480" height="480" viewBox="0 0 24 24"><style>rect{shape-rendering:crispEdges;}</style><rect width="24" height="24" fill="#9b59b6"/><circle cx="2" cy="2" r="0.5" fill="#ee5a24" opacity="0.2"/><circle cx="2" cy="6" r="0.5" fill="#ee5a24" opacity="0.2"/><circle cx="2" cy="10" r="0.5" fill="#ee5a24" opacity="0.2"/><circle cx="2" cy="14" r="0.5" fill="#ee5a24" opacity="0.2"/><circle cx="2" cy="18" r="0.5" fill="#ee5a24" opacity="0.2"/><circle cx="2" cy="22" r="0.5" fill="#ee5a24" opacity="0.2"/><circle cx="6" cy="2" r="0.5" fill="#ee5a24" opacity="0.2"/><circle cx="6" cy="6" r="0.5" fill="#ee5a24" opacity="0.2"/><circle cx="6" cy="10" r="0.5" fill="#ee5a24" opacity="0.2"/><circle cx="6" cy="14" r="0.5" fill="#ee5a24" opacity="0.2"/><circle cx="6" cy="18" r="0.5" fill="#ee5a24" opacity="0.2"/><circle cx="6" cy="22" r="0.5" fill="#ee5a24" opacity="0.2"/><circle cx="10" cy="2" r="0.5" fill="#ee5a24" opacity="0.2"/><circle cx="10" cy="6" r="0.5" fill="#ee5a24" opacity="0.2"/><circle cx="10" cy="10" r="0.5" fill="#ee5a24" opacity="0.2"/><circle cx="10" cy="14" r="0.5" fill="#ee5a24" opacity="0.2"/><circle cx="10" cy="18" r="0.5" fill="#ee5a24" opacity="0.2"/><circle cx="10" cy="22" r="0.5" fill="#ee5a24" opacity="0.2"/><circle cx="14" cy="2" r="0.5" fill="#ee5a24" opacity="0.2"/><circle cx="14" cy="6" r="0.5" fill="#ee5a24" opacity="0.2"/><circle cx="14" cy="10" r="0.5" fill="#ee5a24" opacity="0.2"/><circle cx="14" cy="14" r="0.5" fill="#ee5a24" opacity="0.2"/><circle cx="14" cy="18" r="0.5" fill="#ee5a24" opacity="0.2"/><circle cx="14" cy="22" r="0.5" fill="#ee5a24" opacity="0.2"/><circle cx="18" cy="2" r="0.5" fill="#ee5a24" opacity="0.2"/><circle cx="18" cy="6" r="0.5" fill="#ee5a24" opacity="0.2"/><circle cx="18" cy="10" r="0.5" fill="#ee5a24" opacity="0.2"/><circle cx="18" cy="14" r="0.5" fill="#ee5a24" opacity="0.2"/><circle cx="18" cy="18" r="0.5" fill="#ee5a24" opacity="0.2"/><circle cx="18" cy="22" r="0.5" fill="#ee5a24" opacity="0.2"/><circle cx="22" cy="2" r="0.5" fill="#ee5a24" opacity="0.2"/><circle cx="22" cy="6" r="0.5" fill="#ee5a24" opacity="0.2"/><circle cx="22" cy="10" r="0.5" fill="#ee5a24" opacity="0.2"/><circle cx="22" cy="14" r="0.5" fill="#ee5a24" opacity="0.2"/><circle cx="22" cy="18" r="0.5" fill="#ee5a24" opacity="0.2"/><circle cx="22" cy="22" r="0.5" fill="#ee5a24" opacity="0.2"/><polygon points="12,6 13.76335575687742,9.572949016875157 17.706339097770922,10.145898033750315 14.853169548885461,12.927050983124841 15.526711513754838,16.854101966249686 12,15 8.473288486245162,16.854101966249686 9.146830451114539,12.927050983124843 6.293660902229078,10.145898033750317 10.23664424312258,9.572949016875159" fill="#2980b9"/><polygon points="12,6 13.76335575687742,9.572949016875157 17.706339097770922,10.145898033750315 14.853169548885461,12.927050983124841 15.526711513754838,16.854101966249686 12,15 8.473288486245162,16.854101966249686 9.146830451114539,12.927050983124843 6.293660902229078,10.145898033750317 10.23664424312258,9.572949016875159" fill="none" stroke="#004d86" stroke-width="0.5"/><circle cx="9" cy="11" r="0.5" fill="#00ff00"/><circle cx="15" cy="11" r="0.5" fill="#00ff00"/><circle cx="9" cy="11" r="0.3" fill="#000"/><circle cx="15" cy="11" r="0.3" fill="#000"/><rect x="10" y="3" width="1" height="3" fill="#ee5a24"/><rect x="11" y="1.5652878182009546" width="1" height="4.434712181799045" fill="#ee5a24"/><rect x="12" y="1.00085279391699" width="1" height="4.99914720608301" fill="#ee5a24"/><rect x="13" y="1.6490736388976988" width="1" height="4.350926361102301" fill="#ee5a24"/><rect x="14" y="3.1167482868551604" width="1" height="2.8832517131448396" fill="#ee5a24"/><text x="23" y="23.5" font-size="1.5" fill="#9b59b6" opacity="0.3" text-anchor="end">#1351</text></svg>