<svg xmlns="http://www.w3.org/2000/svg" width="480" height="480" viewBox="0 0 24 24"><style>rect{shape-rendering:crispEdges;}</style><rect width="24" height="24" fill="#0f3460"/><rect x="0" y="0" width="1" height="24" fill="#00cec9" opacity="0.15"/><rect x="3" y="0" width="1" height="24" fill="#00cec9" opacity="0.15"/><rect x="6" y="0" width="1" height="24" fill="#00cec9" opacity="0.15"/><rect x="9" y="0" width="1" height="24" fill="#00cec9" opacity="0.15"/><rect x="12" y="0" width="1" height="24" fill="#00cec9" opacity="0.15"/><rect x="15" y="0" width="1" height="24" fill="#00cec9" opacity="0.15"/><rect x="18" y="0" width="1" height="24" fill="#00cec9" opacity="0.15"/><rect x="21" y="0" width="1" height="24" fill="#00cec9" opacity="0.15"/><rect x="7" y="7" width="10" height="10" fill="#2c3e50"/><rect x="7" y="7" width="10" height="1" fill="#000b1d"/><rect x="7" y="7" width="1" height="10" fill="#000b1d"/><circle cx="8" cy="11" r="2" fill="#ffffff"/><circle cx="16" cy="11" r="2" fill="#ffffff"/><circle cx="8" cy="11" r="1" fill="#000"/><circle cx="16" cy="11" r="1" fill="#000"/><rect x="7" y="4" width="10" height="2" fill="#00cec9"/><polygon points="8,4 8,1 10,3 12,0 14,3 16,1 16,4" fill="#00cec9"/><text x="23" y="23.5" font-size="1.5" fill="#0f3460" opacity="0.3" text-anchor="end">#1496</text></svg>