<svg xmlns="http://www.w3.org/2000/svg" width="480" height="480" viewBox="0 0 24 24"><style>rect{shape-rendering:crispEdges;}</style><rect width="24" height="24" fill="#533483"/><rect x="0" y="0" width="2" height="2" fill="#ee5a24" opacity="0.15"/><rect x="0" y="8" width="2" height="2" fill="#ee5a24" opacity="0.15"/><rect x="0" y="16" width="2" height="2" fill="#ee5a24" opacity="0.15"/><rect x="4" y="4" width="2" height="2" fill="#ee5a24" opacity="0.15"/><rect x="4" y="12" width="2" height="2" fill="#ee5a24" opacity="0.15"/><rect x="4" y="20" width="2" height="2" fill="#ee5a24" opacity="0.15"/><rect x="8" y="0" width="2" height="2" fill="#ee5a24" opacity="0.15"/><rect x="8" y="8" width="2" height="2" fill="#ee5a24" opacity="0.15"/><rect x="8" y="16" width="2" height="2" fill="#ee5a24" opacity="0.15"/><rect x="12" y="4" width="2" height="2" fill="#ee5a24" opacity="0.15"/><rect x="12" y="12" width="2" height="2" fill="#ee5a24" opacity="0.15"/><rect x="12" y="20" width="2" height="2" fill="#ee5a24" opacity="0.15"/><rect x="16" y="0" width="2" height="2" fill="#ee5a24" opacity="0.15"/><rect x="16" y="8" width="2" height="2" fill="#ee5a24" opacity="0.15"/><rect x="16" y="16" width="2" height="2" fill="#ee5a24" opacity="0.15"/><rect x="20" y="4" width="2" height="2" fill="#ee5a24" opacity="0.15"/><rect x="20" y="12" width="2" height="2" fill="#ee5a24" opacity="0.15"/><rect x="20" y="20" width="2" height="2" fill="#ee5a24" opacity="0.15"/><path d="M12 16 C6 12 6 8 12 10 C18 8 18 12 12 16" fill="#7f8c8d"/><circle cx="8" cy="11" r="1.5" fill="#0000ff"/><circle cx="16" cy="11" r="1.5" fill="#0000ff"/><circle cx="8" cy="11" r="0.75" fill="#000"/><circle cx="16" cy="11" r="0.75" fill="#000"/><polygon points="6,7 3,2 7,5" fill="#ee5a24"/><polygon points="18,7 21,2 17,5" fill="#ee5a24"/><text x="23" y="23.5" font-size="1.5" fill="#533483" opacity="0.3" text-anchor="end">#1632</text></svg>