<svg xmlns="http://www.w3.org/2000/svg" width="480" height="480" viewBox="0 0 24 24"><style>rect{shape-rendering:crispEdges;}</style><rect width="24" height="24" fill="#e94560"/><circle cx="2" cy="2" r="0.5" fill="#feca57" opacity="0.2"/><circle cx="2" cy="6" r="0.5" fill="#feca57" opacity="0.2"/><circle cx="2" cy="10" r="0.5" fill="#feca57" opacity="0.2"/><circle cx="2" cy="14" r="0.5" fill="#feca57" opacity="0.2"/><circle cx="2" cy="18" r="0.5" fill="#feca57" opacity="0.2"/><circle cx="2" cy="22" r="0.5" fill="#feca57" opacity="0.2"/><circle cx="6" cy="2" r="0.5" fill="#feca57" opacity="0.2"/><circle cx="6" cy="6" r="0.5" fill="#feca57" opacity="0.2"/><circle cx="6" cy="10" r="0.5" fill="#feca57" opacity="0.2"/><circle cx="6" cy="14" r="0.5" fill="#feca57" opacity="0.2"/><circle cx="6" cy="18" r="0.5" fill="#feca57" opacity="0.2"/><circle cx="6" cy="22" r="0.5" fill="#feca57" opacity="0.2"/><circle cx="10" cy="2" r="0.5" fill="#feca57" opacity="0.2"/><circle cx="10" cy="6" r="0.5" fill="#feca57" opacity="0.2"/><circle cx="10" cy="10" r="0.5" fill="#feca57" opacity="0.2"/><circle cx="10" cy="14" r="0.5" fill="#feca57" opacity="0.2"/><circle cx="10" cy="18" r="0.5" fill="#feca57" opacity="0.2"/><circle cx="10" cy="22" r="0.5" fill="#feca57" opacity="0.2"/><circle cx="14" cy="2" r="0.5" fill="#feca57" opacity="0.2"/><circle cx="14" cy="6" r="0.5" fill="#feca57" opacity="0.2"/><circle cx="14" cy="10" r="0.5" fill="#feca57" opacity="0.2"/><circle cx="14" cy="14" r="0.5" fill="#feca57" opacity="0.2"/><circle cx="14" cy="18" r="0.5" fill="#feca57" opacity="0.2"/><circle cx="14" cy="22" r="0.5" fill="#feca57" opacity="0.2"/><circle cx="18" cy="2" r="0.5" fill="#feca57" opacity="0.2"/><circle cx="18" cy="6" r="0.5" fill="#feca57" opacity="0.2"/><circle cx="18" cy="10" r="0.5" fill="#feca57" opacity="0.2"/><circle cx="18" cy="14" r="0.5" fill="#feca57" opacity="0.2"/><circle cx="18" cy="18" r="0.5" fill="#feca57" opacity="0.2"/><circle cx="18" cy="22" r="0.5" fill="#feca57" opacity="0.2"/><circle cx="22" cy="2" r="0.5" fill="#feca57" opacity="0.2"/><circle cx="22" cy="6" r="0.5" fill="#feca57" opacity="0.2"/><circle cx="22" cy="10" r="0.5" fill="#feca57" opacity="0.2"/><circle cx="22" cy="14" r="0.5" fill="#feca57" opacity="0.2"/><circle cx="22" cy="18" r="0.5" fill="#feca57" opacity="0.2"/><circle cx="22" cy="22" r="0.5" fill="#feca57" opacity="0.2"/><circle cx="12" cy="12" r="5" fill="#34495e"/><circle cx="12" cy="12" r="5" fill="none" stroke="#01162b" stroke-width="0.5"/><rect x="8" y="10" width="2" height="2" fill="#00ffff"/><rect x="14" y="10" width="2" height="2" fill="#00ffff"/><circle cx="9" cy="11" r="0.5" fill="#000"/><circle cx="15" cy="11" r="0.5" fill="#000"/><ellipse cx="9" cy="5" rx="2" ry="1.5" fill="#feca57"/><ellipse cx="15" cy="5" rx="2" ry="1.5" fill="#feca57"/><circle cx="12" cy="5" r="1" fill="#feca57"/><text x="23" y="23.5" font-size="1.5" fill="#e94560" opacity="0.3" text-anchor="end">#1816</text></svg>