<svg xmlns="http://www.w3.org/2000/svg" width="480" height="480" viewBox="0 0 24 24"><style>rect{shape-rendering:crispEdges;}</style><rect width="24" height="24" fill="#34495e"/><rect x="0" y="0" width="2" height="2" fill="#48dbfb" opacity="0.15"/><rect x="0" y="8" width="2" height="2" fill="#48dbfb" opacity="0.15"/><rect x="0" y="16" width="2" height="2" fill="#48dbfb" opacity="0.15"/><rect x="4" y="4" width="2" height="2" fill="#48dbfb" opacity="0.15"/><rect x="4" y="12" width="2" height="2" fill="#48dbfb" opacity="0.15"/><rect x="4" y="20" width="2" height="2" fill="#48dbfb" opacity="0.15"/><rect x="8" y="0" width="2" height="2" fill="#48dbfb" opacity="0.15"/><rect x="8" y="8" width="2" height="2" fill="#48dbfb" opacity="0.15"/><rect x="8" y="16" width="2" height="2" fill="#48dbfb" opacity="0.15"/><rect x="12" y="4" width="2" height="2" fill="#48dbfb" opacity="0.15"/><rect x="12" y="12" width="2" height="2" fill="#48dbfb" opacity="0.15"/><rect x="12" y="20" width="2" height="2" fill="#48dbfb" opacity="0.15"/><rect x="16" y="0" width="2" height="2" fill="#48dbfb" opacity="0.15"/><rect x="16" y="8" width="2" height="2" fill="#48dbfb" opacity="0.15"/><rect x="16" y="16" width="2" height="2" fill="#48dbfb" opacity="0.15"/><rect x="20" y="4" width="2" height="2" fill="#48dbfb" opacity="0.15"/><rect x="20" y="12" width="2" height="2" fill="#48dbfb" opacity="0.15"/><rect x="20" y="20" width="2" height="2" fill="#48dbfb" opacity="0.15"/><polygon points="12,6 18,17 6,17" fill="#2980b9"/><polygon points="12,6 18,17 6,17" fill="none" stroke="#004d86" stroke-width="0.5"/><circle cx="7" cy="11" r="1" fill="#6600ff"/><circle cx="17" cy="11" r="1" fill="#6600ff"/><circle cx="7" cy="11" r="0.5" fill="#000"/><circle cx="17" cy="11" r="0.5" fill="#000"/><rect x="7" y="4" width="10" height="2" fill="#48dbfb"/><polygon points="8,4 8,1 10,3 12,0 14,3 16,1 16,4" fill="#48dbfb"/><text x="23" y="23.5" font-size="1.5" fill="#34495e" opacity="0.3" text-anchor="end">#1928</text></svg>