<svg xmlns="http://www.w3.org/2000/svg" width="480" height="480" viewBox="0 0 24 24"><style>rect{shape-rendering:crispEdges;}</style><rect width="24" height="24" fill="#8e44ad"/><rect x="0" y="0" width="1" height="24" fill="#74b9ff" opacity="0.15"/><rect x="3" y="0" width="1" height="24" fill="#74b9ff" opacity="0.15"/><rect x="6" y="0" width="1" height="24" fill="#74b9ff" opacity="0.15"/><rect x="9" y="0" width="1" height="24" fill="#74b9ff" opacity="0.15"/><rect x="12" y="0" width="1" height="24" fill="#74b9ff" opacity="0.15"/><rect x="15" y="0" width="1" height="24" fill="#74b9ff" opacity="0.15"/><rect x="18" y="0" width="1" height="24" fill="#74b9ff" opacity="0.15"/><rect x="21" y="0" width="1" height="24" fill="#74b9ff" opacity="0.15"/><circle cx="12" cy="12" r="5" fill="#d35400"/><circle cx="12" cy="12" r="5" fill="none" stroke="#a02100" stroke-width="0.5"/><circle cx="10" cy="11" r="0.5" fill="#0000ff"/><circle cx="14" cy="11" r="0.5" fill="#0000ff"/><circle cx="10" cy="11" r="0.3" fill="#000"/><circle cx="14" cy="11" r="0.3" fill="#000"/><line x1="12" y1="6" x2="12" y2="1" stroke="#74b9ff" stroke-width="0.8"/><circle cx="12" cy="0" r="1.5" fill="#74b9ff"/><text x="23" y="23.5" font-size="1.5" fill="#8e44ad" opacity="0.3" text-anchor="end">#2094</text></svg>