<svg xmlns="http://www.w3.org/2000/svg" width="480" height="480" viewBox="0 0 24 24"><style>rect{shape-rendering:crispEdges;}</style><rect width="24" height="24" fill="#f39c12"/><rect x="0" y="0" width="1" height="24" fill="#ee5a24" opacity="0.15"/><rect x="3" y="0" width="1" height="24" fill="#ee5a24" opacity="0.15"/><rect x="6" y="0" width="1" height="24" fill="#ee5a24" opacity="0.15"/><rect x="9" y="0" width="1" height="24" fill="#ee5a24" opacity="0.15"/><rect x="12" y="0" width="1" height="24" fill="#ee5a24" opacity="0.15"/><rect x="15" y="0" width="1" height="24" fill="#ee5a24" opacity="0.15"/><rect x="18" y="0" width="1" height="24" fill="#ee5a24" opacity="0.15"/><rect x="21" y="0" width="1" height="24" fill="#ee5a24" opacity="0.15"/><circle cx="12" cy="12" r="5" fill="#27ae60"/><circle cx="12" cy="12" r="5" fill="none" stroke="#007b2d" stroke-width="0.5"/><circle cx="10" cy="11" r="0.5" fill="#0000ff"/><circle cx="14" cy="11" r="0.5" fill="#0000ff"/><circle cx="10" cy="11" r="0.3" fill="#000"/><circle cx="14" cy="11" r="0.3" fill="#000"/><rect x="6" y="4" width="12" height="1" fill="#ee5a24"/><rect x="8" y="0" width="8" height="4" fill="#ee5a24"/><text x="23" y="23.5" font-size="1.5" fill="#f39c12" opacity="0.3" text-anchor="end">#2170</text></svg>