<svg xmlns="http://www.w3.org/2000/svg" width="480" height="480" viewBox="0 0 24 24"><style>rect{shape-rendering:crispEdges;}</style><rect width="24" height="24" fill="#2ecc71"/><rect x="0" y="0" width="1" height="24" fill="#6c5ce7" opacity="0.15"/><rect x="3" y="0" width="1" height="24" fill="#6c5ce7" opacity="0.15"/><rect x="6" y="0" width="1" height="24" fill="#6c5ce7" opacity="0.15"/><rect x="9" y="0" width="1" height="24" fill="#6c5ce7" opacity="0.15"/><rect x="12" y="0" width="1" height="24" fill="#6c5ce7" opacity="0.15"/><rect x="15" y="0" width="1" height="24" fill="#6c5ce7" opacity="0.15"/><rect x="18" y="0" width="1" height="24" fill="#6c5ce7" opacity="0.15"/><rect x="21" y="0" width="1" height="24" fill="#6c5ce7" opacity="0.15"/><polygon points="12,7 16.33012701892219,9.5 16.330127018922195,14.5 12,17 7.669872981077807,14.500000000000002 7.669872981077805,9.500000000000004" fill="#ecf0f1"/><polygon points="12,7 16.33012701892219,9.5 16.330127018922195,14.5 12,17 7.669872981077807,14.500000000000002 7.669872981077805,9.500000000000004" fill="none" stroke="#b9bdbe" stroke-width="0.5"/><circle cx="9" cy="11" r="1" fill="#ff00ff"/><circle cx="15" cy="11" r="1" fill="#ff00ff"/><circle cx="9" cy="11" r="0.5" fill="#000"/><circle cx="15" cy="11" r="0.5" fill="#000"/><text x="23" y="23.5" font-size="1.5" fill="#2ecc71" opacity="0.3" text-anchor="end">#2232</text></svg>