<svg xmlns="http://www.w3.org/2000/svg" width="480" height="480" viewBox="0 0 24 24"><style>rect{shape-rendering:crispEdges;}</style><rect width="24" height="24" fill="#27ae60"/><rect x="0" y="0" width="1" height="24" fill="#5f27cd" opacity="0.15"/><rect x="3" y="0" width="1" height="24" fill="#5f27cd" opacity="0.15"/><rect x="6" y="0" width="1" height="24" fill="#5f27cd" opacity="0.15"/><rect x="9" y="0" width="1" height="24" fill="#5f27cd" opacity="0.15"/><rect x="12" y="0" width="1" height="24" fill="#5f27cd" opacity="0.15"/><rect x="15" y="0" width="1" height="24" fill="#5f27cd" opacity="0.15"/><rect x="18" y="0" width="1" height="24" fill="#5f27cd" opacity="0.15"/><rect x="21" y="0" width="1" height="24" fill="#5f27cd" opacity="0.15"/><polygon points="12,6 18,12 12,18 6,12" fill="#e67e22"/><polygon points="12,6 18,12 12,18 6,12" fill="none" stroke="#b34b00" stroke-width="0.5"/><circle cx="7" cy="11" r="1" fill="#ffffff"/><circle cx="17" cy="11" r="1" fill="#ffffff"/><circle cx="7" cy="11" r="0.5" fill="#000"/><circle cx="17" cy="11" r="0.5" fill="#000"/><rect x="7" y="4" width="10" height="2" fill="#5f27cd"/><polygon points="8,4 8,1 10,3 12,0 14,3 16,1 16,4" fill="#5f27cd"/><text x="23" y="23.5" font-size="1.5" fill="#27ae60" opacity="0.3" text-anchor="end">#2243</text></svg>