<svg xmlns="http://www.w3.org/2000/svg" width="480" height="480" viewBox="0 0 24 24"><style>rect{shape-rendering:crispEdges;}</style><rect width="24" height="24" fill="#16a085"/><polygon points="12,7 16.33012701892219,9.5 16.330127018922195,14.5 12,17 7.669872981077807,14.500000000000002 7.669872981077805,9.500000000000004" fill="#d35400"/><polygon points="12,7 16.33012701892219,9.5 16.330127018922195,14.5 12,17 7.669872981077807,14.500000000000002 7.669872981077805,9.500000000000004" fill="none" stroke="#a02100" stroke-width="0.5"/><circle cx="10" cy="11" r="0.5" fill="#000000"/><circle cx="14" cy="11" r="0.5" fill="#000000"/><circle cx="10" cy="11" r="0.3" fill="#000"/><circle cx="14" cy="11" r="0.3" fill="#000"/><rect x="10" y="3" width="1" height="3" fill="#ff6b6b"/><rect x="11" y="1.5652878182009546" width="1" height="4.434712181799045" fill="#ff6b6b"/><rect x="12" y="1.00085279391699" width="1" height="4.99914720608301" fill="#ff6b6b"/><rect x="13" y="1.6490736388976988" width="1" height="4.350926361102301" fill="#ff6b6b"/><rect x="14" y="3.1167482868551604" width="1" height="2.8832517131448396" fill="#ff6b6b"/><text x="23" y="23.5" font-size="1.5" fill="#16a085" opacity="0.3" text-anchor="end">#2265</text></svg>