<svg xmlns="http://www.w3.org/2000/svg" width="480" height="480" viewBox="0 0 24 24"><style>rect{shape-rendering:crispEdges;}</style><rect width="24" height="24" fill="#1abc9c"/><line x1="-24" y1="0" x2="0" y2="24" stroke="#fd79a8" stroke-width="0.5" opacity="0.15"/><line x1="-21" y1="0" x2="3" y2="24" stroke="#fd79a8" stroke-width="0.5" opacity="0.15"/><line x1="-18" y1="0" x2="6" y2="24" stroke="#fd79a8" stroke-width="0.5" opacity="0.15"/><line x1="-15" y1="0" x2="9" y2="24" stroke="#fd79a8" stroke-width="0.5" opacity="0.15"/><line x1="-12" y1="0" x2="12" y2="24" stroke="#fd79a8" stroke-width="0.5" opacity="0.15"/><line x1="-9" y1="0" x2="15" y2="24" stroke="#fd79a8" stroke-width="0.5" opacity="0.15"/><line x1="-6" y1="0" x2="18" y2="24" stroke="#fd79a8" stroke-width="0.5" opacity="0.15"/><line x1="-3" y1="0" x2="21" y2="24" stroke="#fd79a8" stroke-width="0.5" opacity="0.15"/><line x1="0" y1="0" x2="24" y2="24" stroke="#fd79a8" stroke-width="0.5" opacity="0.15"/><line x1="3" y1="0" x2="27" y2="24" stroke="#fd79a8" stroke-width="0.5" opacity="0.15"/><line x1="6" y1="0" x2="30" y2="24" stroke="#fd79a8" stroke-width="0.5" opacity="0.15"/><line x1="9" y1="0" x2="33" y2="24" stroke="#fd79a8" stroke-width="0.5" opacity="0.15"/><line x1="12" y1="0" x2="36" y2="24" stroke="#fd79a8" stroke-width="0.5" opacity="0.15"/><line x1="15" y1="0" x2="39" y2="24" stroke="#fd79a8" stroke-width="0.5" opacity="0.15"/><line x1="18" y1="0" x2="42" y2="24" stroke="#fd79a8" stroke-width="0.5" opacity="0.15"/><line x1="21" y1="0" x2="45" y2="24" stroke="#fd79a8" stroke-width="0.5" opacity="0.15"/><line x1="24" y1="0" x2="48" y2="24" stroke="#fd79a8" stroke-width="0.5" opacity="0.15"/><line x1="27" y1="0" x2="51" y2="24" stroke="#fd79a8" stroke-width="0.5" opacity="0.15"/><line x1="30" y1="0" x2="54" y2="24" stroke="#fd79a8" stroke-width="0.5" opacity="0.15"/><line x1="33" y1="0" x2="57" y2="24" stroke="#fd79a8" stroke-width="0.5" opacity="0.15"/><line x1="36" y1="0" x2="60" y2="24" stroke="#fd79a8" stroke-width="0.5" opacity="0.15"/><line x1="39" y1="0" x2="63" y2="24" stroke="#fd79a8" stroke-width="0.5" opacity="0.15"/><line x1="42" y1="0" x2="66" y2="24" stroke="#fd79a8" stroke-width="0.5" opacity="0.15"/><line x1="45" y1="0" x2="69" y2="24" stroke="#fd79a8" stroke-width="0.5" opacity="0.15"/><polygon points="12,6 18,12 12,18 6,12" fill="#bdc3c7"/><polygon points="12,6 18,12 12,18 6,12" fill="none" stroke="#8a9094" stroke-width="0.5"/><circle cx="8" cy="11" r="2" fill="#0000ff"/><circle cx="16" cy="11" r="2" fill="#0000ff"/><circle cx="8" cy="11" r="1" fill="#000"/><circle cx="16" cy="11" r="1" fill="#000"/><rect x="7" y="4" width="10" height="2" fill="#fd79a8"/><polygon points="8,4 8,1 10,3 12,0 14,3 16,1 16,4" fill="#fd79a8"/><text x="23" y="23.5" font-size="1.5" fill="#1abc9c" opacity="0.3" text-anchor="end">#244</text></svg>