<svg xmlns="http://www.w3.org/2000/svg" width="480" height="480" viewBox="0 0 24 24"><style>rect{shape-rendering:crispEdges;}</style><rect width="24" height="24" fill="#8e44ad"/><rect x="0" y="0" width="1" height="24" fill="#ee5a24" opacity="0.15"/><rect x="3" y="0" width="1" height="24" fill="#ee5a24" opacity="0.15"/><rect x="6" y="0" width="1" height="24" fill="#ee5a24" opacity="0.15"/><rect x="9" y="0" width="1" height="24" fill="#ee5a24" opacity="0.15"/><rect x="12" y="0" width="1" height="24" fill="#ee5a24" opacity="0.15"/><rect x="15" y="0" width="1" height="24" fill="#ee5a24" opacity="0.15"/><rect x="18" y="0" width="1" height="24" fill="#ee5a24" opacity="0.15"/><rect x="21" y="0" width="1" height="24" fill="#ee5a24" opacity="0.15"/><polygon points="12,6 18,17 6,17" fill="#16a085"/><polygon points="12,6 18,17 6,17" fill="none" stroke="#006d52" stroke-width="0.5"/><circle cx="12" cy="11" r="1.5" fill="#00ffff"/><circle cx="12" cy="11" r="0.75" fill="#000"/><rect x="6" y="4" width="12" height="1" fill="#ee5a24"/><rect x="8" y="0" width="8" height="4" fill="#ee5a24"/><text x="23" y="23.5" font-size="1.5" fill="#8e44ad" opacity="0.3" text-anchor="end">#2458</text></svg>