<svg xmlns="http://www.w3.org/2000/svg" width="480" height="480" viewBox="0 0 24 24"><style>rect{shape-rendering:crispEdges;}</style><rect width="24" height="24" fill="#ecf0f1"/><rect x="0" y="0" width="2" height="2" fill="#a29bfe" opacity="0.15"/><rect x="0" y="8" width="2" height="2" fill="#a29bfe" opacity="0.15"/><rect x="0" y="16" width="2" height="2" fill="#a29bfe" opacity="0.15"/><rect x="4" y="4" width="2" height="2" fill="#a29bfe" opacity="0.15"/><rect x="4" y="12" width="2" height="2" fill="#a29bfe" opacity="0.15"/><rect x="4" y="20" width="2" height="2" fill="#a29bfe" opacity="0.15"/><rect x="8" y="0" width="2" height="2" fill="#a29bfe" opacity="0.15"/><rect x="8" y="8" width="2" height="2" fill="#a29bfe" opacity="0.15"/><rect x="8" y="16" width="2" height="2" fill="#a29bfe" opacity="0.15"/><rect x="12" y="4" width="2" height="2" fill="#a29bfe" opacity="0.15"/><rect x="12" y="12" width="2" height="2" fill="#a29bfe" opacity="0.15"/><rect x="12" y="20" width="2" height="2" fill="#a29bfe" opacity="0.15"/><rect x="16" y="0" width="2" height="2" fill="#a29bfe" opacity="0.15"/><rect x="16" y="8" width="2" height="2" fill="#a29bfe" opacity="0.15"/><rect x="16" y="16" width="2" height="2" fill="#a29bfe" opacity="0.15"/><rect x="20" y="4" width="2" height="2" fill="#a29bfe" opacity="0.15"/><rect x="20" y="12" width="2" height="2" fill="#a29bfe" opacity="0.15"/><rect x="20" y="20" width="2" height="2" fill="#a29bfe" opacity="0.15"/><polygon points="12,6 18,17 6,17" fill="#95a5a6"/><polygon points="12,6 18,17 6,17" fill="none" stroke="#627273" stroke-width="0.5"/><circle cx="8" cy="11" r="2" fill="#ff0000"/><circle cx="16" cy="11" r="2" fill="#ff0000"/><circle cx="8" cy="11" r="1" fill="#000"/><circle cx="16" cy="11" r="1" fill="#000"/><ellipse cx="9" cy="5" rx="2" ry="1.5" fill="#a29bfe"/><ellipse cx="15" cy="5" rx="2" ry="1.5" fill="#a29bfe"/><circle cx="12" cy="5" r="1" fill="#a29bfe"/><text x="23" y="23.5" font-size="1.5" fill="#ecf0f1" opacity="0.3" text-anchor="end">#2641</text></svg>