<svg xmlns="http://www.w3.org/2000/svg" width="480" height="480" viewBox="0 0 24 24"><style>rect{shape-rendering:crispEdges;}</style><rect width="24" height="24" fill="#2c3e50"/><circle cx="2" cy="2" r="0.5" fill="#ff9f43" opacity="0.2"/><circle cx="2" cy="6" r="0.5" fill="#ff9f43" opacity="0.2"/><circle cx="2" cy="10" r="0.5" fill="#ff9f43" opacity="0.2"/><circle cx="2" cy="14" r="0.5" fill="#ff9f43" opacity="0.2"/><circle cx="2" cy="18" r="0.5" fill="#ff9f43" opacity="0.2"/><circle cx="2" cy="22" r="0.5" fill="#ff9f43" opacity="0.2"/><circle cx="6" cy="2" r="0.5" fill="#ff9f43" opacity="0.2"/><circle cx="6" cy="6" r="0.5" fill="#ff9f43" opacity="0.2"/><circle cx="6" cy="10" r="0.5" fill="#ff9f43" opacity="0.2"/><circle cx="6" cy="14" r="0.5" fill="#ff9f43" opacity="0.2"/><circle cx="6" cy="18" r="0.5" fill="#ff9f43" opacity="0.2"/><circle cx="6" cy="22" r="0.5" fill="#ff9f43" opacity="0.2"/><circle cx="10" cy="2" r="0.5" fill="#ff9f43" opacity="0.2"/><circle cx="10" cy="6" r="0.5" fill="#ff9f43" opacity="0.2"/><circle cx="10" cy="10" r="0.5" fill="#ff9f43" opacity="0.2"/><circle cx="10" cy="14" r="0.5" fill="#ff9f43" opacity="0.2"/><circle cx="10" cy="18" r="0.5" fill="#ff9f43" opacity="0.2"/><circle cx="10" cy="22" r="0.5" fill="#ff9f43" opacity="0.2"/><circle cx="14" cy="2" r="0.5" fill="#ff9f43" opacity="0.2"/><circle cx="14" cy="6" r="0.5" fill="#ff9f43" opacity="0.2"/><circle cx="14" cy="10" r="0.5" fill="#ff9f43" opacity="0.2"/><circle cx="14" cy="14" r="0.5" fill="#ff9f43" opacity="0.2"/><circle cx="14" cy="18" r="0.5" fill="#ff9f43" opacity="0.2"/><circle cx="14" cy="22" r="0.5" fill="#ff9f43" opacity="0.2"/><circle cx="18" cy="2" r="0.5" fill="#ff9f43" opacity="0.2"/><circle cx="18" cy="6" r="0.5" fill="#ff9f43" opacity="0.2"/><circle cx="18" cy="10" r="0.5" fill="#ff9f43" opacity="0.2"/><circle cx="18" cy="14" r="0.5" fill="#ff9f43" opacity="0.2"/><circle cx="18" cy="18" r="0.5" fill="#ff9f43" opacity="0.2"/><circle cx="18" cy="22" r="0.5" fill="#ff9f43" opacity="0.2"/><circle cx="22" cy="2" r="0.5" fill="#ff9f43" opacity="0.2"/><circle cx="22" cy="6" r="0.5" fill="#ff9f43" opacity="0.2"/><circle cx="22" cy="10" r="0.5" fill="#ff9f43" opacity="0.2"/><circle cx="22" cy="14" r="0.5" fill="#ff9f43" opacity="0.2"/><circle cx="22" cy="18" r="0.5" fill="#ff9f43" opacity="0.2"/><circle cx="22" cy="22" r="0.5" fill="#ff9f43" opacity="0.2"/><polygon points="12,6 18,12 12,18 6,12" fill="#f5f5f5"/><polygon points="12,6 18,12 12,18 6,12" fill="none" stroke="#c2c2c2" stroke-width="0.5"/><circle cx="7" cy="11" r="1" fill="#ffff00"/><circle cx="17" cy="11" r="1" fill="#ffff00"/><circle cx="7" cy="11" r="0.5" fill="#000"/><circle cx="17" cy="11" r="0.5" fill="#000"/><rect x="7" y="4" width="10" height="2" fill="#ff9f43"/><polygon points="8,4 8,1 10,3 12,0 14,3 16,1 16,4" fill="#ff9f43"/><text x="23" y="23.5" font-size="1.5" fill="#2c3e50" opacity="0.3" text-anchor="end">#2681</text></svg>