<svg xmlns="http://www.w3.org/2000/svg" width="480" height="480" viewBox="0 0 24 24"><style>rect{shape-rendering:crispEdges;}</style><rect width="24" height="24" fill="#d35400"/><circle cx="2" cy="2" r="0.5" fill="#fdcb6e" opacity="0.2"/><circle cx="2" cy="6" r="0.5" fill="#fdcb6e" opacity="0.2"/><circle cx="2" cy="10" r="0.5" fill="#fdcb6e" opacity="0.2"/><circle cx="2" cy="14" r="0.5" fill="#fdcb6e" opacity="0.2"/><circle cx="2" cy="18" r="0.5" fill="#fdcb6e" opacity="0.2"/><circle cx="2" cy="22" r="0.5" fill="#fdcb6e" opacity="0.2"/><circle cx="6" cy="2" r="0.5" fill="#fdcb6e" opacity="0.2"/><circle cx="6" cy="6" r="0.5" fill="#fdcb6e" opacity="0.2"/><circle cx="6" cy="10" r="0.5" fill="#fdcb6e" opacity="0.2"/><circle cx="6" cy="14" r="0.5" fill="#fdcb6e" opacity="0.2"/><circle cx="6" cy="18" r="0.5" fill="#fdcb6e" opacity="0.2"/><circle cx="6" cy="22" r="0.5" fill="#fdcb6e" opacity="0.2"/><circle cx="10" cy="2" r="0.5" fill="#fdcb6e" opacity="0.2"/><circle cx="10" cy="6" r="0.5" fill="#fdcb6e" opacity="0.2"/><circle cx="10" cy="10" r="0.5" fill="#fdcb6e" opacity="0.2"/><circle cx="10" cy="14" r="0.5" fill="#fdcb6e" opacity="0.2"/><circle cx="10" cy="18" r="0.5" fill="#fdcb6e" opacity="0.2"/><circle cx="10" cy="22" r="0.5" fill="#fdcb6e" opacity="0.2"/><circle cx="14" cy="2" r="0.5" fill="#fdcb6e" opacity="0.2"/><circle cx="14" cy="6" r="0.5" fill="#fdcb6e" opacity="0.2"/><circle cx="14" cy="10" r="0.5" fill="#fdcb6e" opacity="0.2"/><circle cx="14" cy="14" r="0.5" fill="#fdcb6e" opacity="0.2"/><circle cx="14" cy="18" r="0.5" fill="#fdcb6e" opacity="0.2"/><circle cx="14" cy="22" r="0.5" fill="#fdcb6e" opacity="0.2"/><circle cx="18" cy="2" r="0.5" fill="#fdcb6e" opacity="0.2"/><circle cx="18" cy="6" r="0.5" fill="#fdcb6e" opacity="0.2"/><circle cx="18" cy="10" r="0.5" fill="#fdcb6e" opacity="0.2"/><circle cx="18" cy="14" r="0.5" fill="#fdcb6e" opacity="0.2"/><circle cx="18" cy="18" r="0.5" fill="#fdcb6e" opacity="0.2"/><circle cx="18" cy="22" r="0.5" fill="#fdcb6e" opacity="0.2"/><circle cx="22" cy="2" r="0.5" fill="#fdcb6e" opacity="0.2"/><circle cx="22" cy="6" r="0.5" fill="#fdcb6e" opacity="0.2"/><circle cx="22" cy="10" r="0.5" fill="#fdcb6e" opacity="0.2"/><circle cx="22" cy="14" r="0.5" fill="#fdcb6e" opacity="0.2"/><circle cx="22" cy="18" r="0.5" fill="#fdcb6e" opacity="0.2"/><circle cx="22" cy="22" r="0.5" fill="#fdcb6e" opacity="0.2"/><rect x="7" y="7" width="10" height="10" fill="#1abc9c"/><rect x="7" y="7" width="10" height="1" fill="#008969"/><rect x="7" y="7" width="1" height="10" fill="#008969"/><circle cx="9" cy="11" r="1" fill="#ff6600"/><circle cx="15" cy="11" r="1" fill="#ff6600"/><circle cx="9" cy="11" r="0.5" fill="#000"/><circle cx="15" cy="11" r="0.5" fill="#000"/><ellipse cx="12" cy="3" rx="5" ry="1.5" fill="none" stroke="#fdcb6e" stroke-width="1"/><text x="23" y="23.5" font-size="1.5" fill="#d35400" opacity="0.3" text-anchor="end">#2746</text></svg>