<svg xmlns="http://www.w3.org/2000/svg" width="480" height="480" viewBox="0 0 24 24"><style>rect{shape-rendering:crispEdges;}</style><rect width="24" height="24" fill="#e67e22"/><rect x="0" y="0" width="1" height="24" fill="#a29bfe" opacity="0.15"/><rect x="3" y="0" width="1" height="24" fill="#a29bfe" opacity="0.15"/><rect x="6" y="0" width="1" height="24" fill="#a29bfe" opacity="0.15"/><rect x="9" y="0" width="1" height="24" fill="#a29bfe" opacity="0.15"/><rect x="12" y="0" width="1" height="24" fill="#a29bfe" opacity="0.15"/><rect x="15" y="0" width="1" height="24" fill="#a29bfe" opacity="0.15"/><rect x="18" y="0" width="1" height="24" fill="#a29bfe" opacity="0.15"/><rect x="21" y="0" width="1" height="24" fill="#a29bfe" opacity="0.15"/><polygon points="12,6 18,17 6,17" fill="#27ae60"/><polygon points="12,6 18,17 6,17" fill="none" stroke="#007b2d" stroke-width="0.5"/><circle cx="9" cy="11" r="0.5" fill="#6600ff"/><circle cx="15" cy="11" r="0.5" fill="#6600ff"/><circle cx="9" cy="11" r="0.3" fill="#000"/><circle cx="15" cy="11" r="0.3" fill="#000"/><ellipse cx="12" cy="3" rx="5" ry="1.5" fill="none" stroke="#a29bfe" stroke-width="1"/><text x="23" y="23.5" font-size="1.5" fill="#e67e22" opacity="0.3" text-anchor="end">#2992</text></svg>