<svg xmlns="http://www.w3.org/2000/svg" width="480" height="480" viewBox="0 0 24 24"><style>rect{shape-rendering:crispEdges;}</style><rect width="24" height="24" fill="#f39c12"/><rect x="0" y="0" width="0.5" height="24" fill="#ee5a24" opacity="0.15"/><rect x="0" y="0" width="24" height="0.5" fill="#ee5a24" opacity="0.15"/><rect x="4" y="0" width="0.5" height="24" fill="#ee5a24" opacity="0.15"/><rect x="0" y="4" width="24" height="0.5" fill="#ee5a24" opacity="0.15"/><rect x="8" y="0" width="0.5" height="24" fill="#ee5a24" opacity="0.15"/><rect x="0" y="8" width="24" height="0.5" fill="#ee5a24" opacity="0.15"/><rect x="12" y="0" width="0.5" height="24" fill="#ee5a24" opacity="0.15"/><rect x="0" y="12" width="24" height="0.5" fill="#ee5a24" opacity="0.15"/><rect x="16" y="0" width="0.5" height="24" fill="#ee5a24" opacity="0.15"/><rect x="0" y="16" width="24" height="0.5" fill="#ee5a24" opacity="0.15"/><rect x="20" y="0" width="0.5" height="24" fill="#ee5a24" opacity="0.15"/><rect x="0" y="20" width="24" height="0.5" fill="#ee5a24" opacity="0.15"/><rect x="7" y="7" width="10" height="10" fill="#f39c12"/><rect x="7" y="7" width="10" height="1" fill="#c06900"/><rect x="7" y="7" width="1" height="10" fill="#c06900"/><circle cx="10" cy="11" r="0.5" fill="#ffffff"/><circle cx="14" cy="11" r="0.5" fill="#ffffff"/><circle cx="10" cy="11" r="0.3" fill="#000"/><circle cx="14" cy="11" r="0.3" fill="#000"/><line x1="12" y1="6" x2="12" y2="1" stroke="#ee5a24" stroke-width="0.8"/><circle cx="12" cy="0" r="1.5" fill="#ee5a24"/><text x="23" y="23.5" font-size="1.5" fill="#f39c12" opacity="0.3" text-anchor="end">#3066</text></svg>