<svg xmlns="http://www.w3.org/2000/svg" width="480" height="480" viewBox="0 0 24 24"><style>rect{shape-rendering:crispEdges;}</style><rect width="24" height="24" fill="#3498db"/><rect x="0" y="0" width="1" height="24" fill="#feca57" opacity="0.15"/><rect x="3" y="0" width="1" height="24" fill="#feca57" opacity="0.15"/><rect x="6" y="0" width="1" height="24" fill="#feca57" opacity="0.15"/><rect x="9" y="0" width="1" height="24" fill="#feca57" opacity="0.15"/><rect x="12" y="0" width="1" height="24" fill="#feca57" opacity="0.15"/><rect x="15" y="0" width="1" height="24" fill="#feca57" opacity="0.15"/><rect x="18" y="0" width="1" height="24" fill="#feca57" opacity="0.15"/><rect x="21" y="0" width="1" height="24" fill="#feca57" opacity="0.15"/><polygon points="12,6 18,17 6,17" fill="#e74c3c"/><polygon points="12,6 18,17 6,17" fill="none" stroke="#b41909" stroke-width="0.5"/><rect x="8" y="10" width="2" height="2" fill="#ffffff"/><rect x="14" y="10" width="2" height="2" fill="#ffffff"/><circle cx="9" cy="11" r="0.5" fill="#000"/><circle cx="15" cy="11" r="0.5" fill="#000"/><text x="23" y="23.5" font-size="1.5" fill="#3498db" opacity="0.3" text-anchor="end">#3137</text></svg>