<svg xmlns="http://www.w3.org/2000/svg" width="480" height="480" viewBox="0 0 24 24"><style>rect{shape-rendering:crispEdges;}</style><rect width="24" height="24" fill="#95a5a6"/><rect x="0" y="0" width="1" height="24" fill="#ff9f43" opacity="0.15"/><rect x="3" y="0" width="1" height="24" fill="#ff9f43" opacity="0.15"/><rect x="6" y="0" width="1" height="24" fill="#ff9f43" opacity="0.15"/><rect x="9" y="0" width="1" height="24" fill="#ff9f43" opacity="0.15"/><rect x="12" y="0" width="1" height="24" fill="#ff9f43" opacity="0.15"/><rect x="15" y="0" width="1" height="24" fill="#ff9f43" opacity="0.15"/><rect x="18" y="0" width="1" height="24" fill="#ff9f43" opacity="0.15"/><rect x="21" y="0" width="1" height="24" fill="#ff9f43" opacity="0.15"/><polygon points="12,6 18,17 6,17" fill="#3498db"/><polygon points="12,6 18,17 6,17" fill="none" stroke="#0165a8" stroke-width="0.5"/><circle cx="12" cy="11" r="1.5" fill="#ffffff"/><circle cx="12" cy="11" r="0.75" fill="#000"/><ellipse cx="9" cy="5" rx="2" ry="1.5" fill="#ff9f43"/><ellipse cx="15" cy="5" rx="2" ry="1.5" fill="#ff9f43"/><circle cx="12" cy="5" r="1" fill="#ff9f43"/><text x="23" y="23.5" font-size="1.5" fill="#95a5a6" opacity="0.3" text-anchor="end">#317</text></svg>