<svg xmlns="http://www.w3.org/2000/svg" width="480" height="480" viewBox="0 0 24 24"><style>rect{shape-rendering:crispEdges;}</style><rect width="24" height="24" fill="#e67e22"/><rect x="0" y="0" width="1" height="24" fill="#ff9f43" opacity="0.15"/><rect x="3" y="0" width="1" height="24" fill="#ff9f43" opacity="0.15"/><rect x="6" y="0" width="1" height="24" fill="#ff9f43" opacity="0.15"/><rect x="9" y="0" width="1" height="24" fill="#ff9f43" opacity="0.15"/><rect x="12" y="0" width="1" height="24" fill="#ff9f43" opacity="0.15"/><rect x="15" y="0" width="1" height="24" fill="#ff9f43" opacity="0.15"/><rect x="18" y="0" width="1" height="24" fill="#ff9f43" opacity="0.15"/><rect x="21" y="0" width="1" height="24" fill="#ff9f43" opacity="0.15"/><polygon points="12,6 18,17 6,17" fill="#1abc9c"/><polygon points="12,6 18,17 6,17" fill="none" stroke="#008969" stroke-width="0.5"/><circle cx="12" cy="11" r="1.5" fill="#0000ff"/><circle cx="12" cy="11" r="0.75" fill="#000"/><polygon points="6,7 3,2 7,5" fill="#ff9f43"/><polygon points="18,7 21,2 17,5" fill="#ff9f43"/><text x="23" y="23.5" font-size="1.5" fill="#e67e22" opacity="0.3" text-anchor="end">#3202</text></svg>