<svg xmlns="http://www.w3.org/2000/svg" width="480" height="480" viewBox="0 0 24 24"><style>rect{shape-rendering:crispEdges;}</style><rect width="24" height="24" fill="#bdc3c7"/><circle cx="2" cy="2" r="0.5" fill="#ff6b6b" opacity="0.2"/><circle cx="2" cy="6" r="0.5" fill="#ff6b6b" opacity="0.2"/><circle cx="2" cy="10" r="0.5" fill="#ff6b6b" opacity="0.2"/><circle cx="2" cy="14" r="0.5" fill="#ff6b6b" opacity="0.2"/><circle cx="2" cy="18" r="0.5" fill="#ff6b6b" opacity="0.2"/><circle cx="2" cy="22" r="0.5" fill="#ff6b6b" opacity="0.2"/><circle cx="6" cy="2" r="0.5" fill="#ff6b6b" opacity="0.2"/><circle cx="6" cy="6" r="0.5" fill="#ff6b6b" opacity="0.2"/><circle cx="6" cy="10" r="0.5" fill="#ff6b6b" opacity="0.2"/><circle cx="6" cy="14" r="0.5" fill="#ff6b6b" opacity="0.2"/><circle cx="6" cy="18" r="0.5" fill="#ff6b6b" opacity="0.2"/><circle cx="6" cy="22" r="0.5" fill="#ff6b6b" opacity="0.2"/><circle cx="10" cy="2" r="0.5" fill="#ff6b6b" opacity="0.2"/><circle cx="10" cy="6" r="0.5" fill="#ff6b6b" opacity="0.2"/><circle cx="10" cy="10" r="0.5" fill="#ff6b6b" opacity="0.2"/><circle cx="10" cy="14" r="0.5" fill="#ff6b6b" opacity="0.2"/><circle cx="10" cy="18" r="0.5" fill="#ff6b6b" opacity="0.2"/><circle cx="10" cy="22" r="0.5" fill="#ff6b6b" opacity="0.2"/><circle cx="14" cy="2" r="0.5" fill="#ff6b6b" opacity="0.2"/><circle cx="14" cy="6" r="0.5" fill="#ff6b6b" opacity="0.2"/><circle cx="14" cy="10" r="0.5" fill="#ff6b6b" opacity="0.2"/><circle cx="14" cy="14" r="0.5" fill="#ff6b6b" opacity="0.2"/><circle cx="14" cy="18" r="0.5" fill="#ff6b6b" opacity="0.2"/><circle cx="14" cy="22" r="0.5" fill="#ff6b6b" opacity="0.2"/><circle cx="18" cy="2" r="0.5" fill="#ff6b6b" opacity="0.2"/><circle cx="18" cy="6" r="0.5" fill="#ff6b6b" opacity="0.2"/><circle cx="18" cy="10" r="0.5" fill="#ff6b6b" opacity="0.2"/><circle cx="18" cy="14" r="0.5" fill="#ff6b6b" opacity="0.2"/><circle cx="18" cy="18" r="0.5" fill="#ff6b6b" opacity="0.2"/><circle cx="18" cy="22" r="0.5" fill="#ff6b6b" opacity="0.2"/><circle cx="22" cy="2" r="0.5" fill="#ff6b6b" opacity="0.2"/><circle cx="22" cy="6" r="0.5" fill="#ff6b6b" opacity="0.2"/><circle cx="22" cy="10" r="0.5" fill="#ff6b6b" opacity="0.2"/><circle cx="22" cy="14" r="0.5" fill="#ff6b6b" opacity="0.2"/><circle cx="22" cy="18" r="0.5" fill="#ff6b6b" opacity="0.2"/><circle cx="22" cy="22" r="0.5" fill="#ff6b6b" opacity="0.2"/><rect x="7" y="7" width="10" height="10" fill="#f39c12"/><rect x="7" y="7" width="10" height="1" fill="#c06900"/><rect x="7" y="7" width="1" height="10" fill="#c06900"/><circle cx="8" cy="11" r="2" fill="#6600ff"/><circle cx="16" cy="11" r="2" fill="#6600ff"/><circle cx="8" cy="11" r="1" fill="#000"/><circle cx="16" cy="11" r="1" fill="#000"/><ellipse cx="9" cy="5" rx="2" ry="1.5" fill="#ff6b6b"/><ellipse cx="15" cy="5" rx="2" ry="1.5" fill="#ff6b6b"/><circle cx="12" cy="5" r="1" fill="#ff6b6b"/><text x="23" y="23.5" font-size="1.5" fill="#bdc3c7" opacity="0.3" text-anchor="end">#3226</text></svg>