<svg xmlns="http://www.w3.org/2000/svg" width="480" height="480" viewBox="0 0 24 24"><style>rect{shape-rendering:crispEdges;}</style><rect width="24" height="24" fill="#e74c3c"/><rect x="0" y="0" width="0.5" height="24" fill="#fdcb6e" opacity="0.15"/><rect x="0" y="0" width="24" height="0.5" fill="#fdcb6e" opacity="0.15"/><rect x="4" y="0" width="0.5" height="24" fill="#fdcb6e" opacity="0.15"/><rect x="0" y="4" width="24" height="0.5" fill="#fdcb6e" opacity="0.15"/><rect x="8" y="0" width="0.5" height="24" fill="#fdcb6e" opacity="0.15"/><rect x="0" y="8" width="24" height="0.5" fill="#fdcb6e" opacity="0.15"/><rect x="12" y="0" width="0.5" height="24" fill="#fdcb6e" opacity="0.15"/><rect x="0" y="12" width="24" height="0.5" fill="#fdcb6e" opacity="0.15"/><rect x="16" y="0" width="0.5" height="24" fill="#fdcb6e" opacity="0.15"/><rect x="0" y="16" width="24" height="0.5" fill="#fdcb6e" opacity="0.15"/><rect x="20" y="0" width="0.5" height="24" fill="#fdcb6e" opacity="0.15"/><rect x="0" y="20" width="24" height="0.5" fill="#fdcb6e" opacity="0.15"/><circle cx="12" cy="12" r="5" fill="#e67e22"/><circle cx="12" cy="12" r="5" fill="none" stroke="#b34b00" stroke-width="0.5"/><rect x="8" y="10" width="2" height="2" fill="#ff00ff"/><rect x="14" y="10" width="2" height="2" fill="#ff00ff"/><circle cx="9" cy="11" r="0.5" fill="#000"/><circle cx="15" cy="11" r="0.5" fill="#000"/><text x="23" y="23.5" font-size="1.5" fill="#e74c3c" opacity="0.3" text-anchor="end">#3355</text></svg>