<svg xmlns="http://www.w3.org/2000/svg" width="480" height="480" viewBox="0 0 24 24"><style>rect{shape-rendering:crispEdges;}</style><rect width="24" height="24" fill="#533483"/><rect x="0" y="0" width="1" height="24" fill="#5f27cd" opacity="0.15"/><rect x="3" y="0" width="1" height="24" fill="#5f27cd" opacity="0.15"/><rect x="6" y="0" width="1" height="24" fill="#5f27cd" opacity="0.15"/><rect x="9" y="0" width="1" height="24" fill="#5f27cd" opacity="0.15"/><rect x="12" y="0" width="1" height="24" fill="#5f27cd" opacity="0.15"/><rect x="15" y="0" width="1" height="24" fill="#5f27cd" opacity="0.15"/><rect x="18" y="0" width="1" height="24" fill="#5f27cd" opacity="0.15"/><rect x="21" y="0" width="1" height="24" fill="#5f27cd" opacity="0.15"/><path d="M12 16 C6 12 6 8 12 10 C18 8 18 12 12 16" fill="#8e44ad"/><rect x="8" y="10" width="2" height="2" fill="#00ff00"/><rect x="14" y="10" width="2" height="2" fill="#00ff00"/><circle cx="9" cy="11" r="0.5" fill="#000"/><circle cx="15" cy="11" r="0.5" fill="#000"/><line x1="12" y1="6" x2="12" y2="1" stroke="#5f27cd" stroke-width="0.8"/><circle cx="12" cy="0" r="1.5" fill="#5f27cd"/><text x="23" y="23.5" font-size="1.5" fill="#533483" opacity="0.3" text-anchor="end">#3404</text></svg>