<svg xmlns="http://www.w3.org/2000/svg" width="480" height="480" viewBox="0 0 24 24"><style>rect{shape-rendering:crispEdges;}</style><rect width="24" height="24" fill="#8e44ad"/><rect x="0" y="0" width="1" height="24" fill="#00d2d3" opacity="0.15"/><rect x="3" y="0" width="1" height="24" fill="#00d2d3" opacity="0.15"/><rect x="6" y="0" width="1" height="24" fill="#00d2d3" opacity="0.15"/><rect x="9" y="0" width="1" height="24" fill="#00d2d3" opacity="0.15"/><rect x="12" y="0" width="1" height="24" fill="#00d2d3" opacity="0.15"/><rect x="15" y="0" width="1" height="24" fill="#00d2d3" opacity="0.15"/><rect x="18" y="0" width="1" height="24" fill="#00d2d3" opacity="0.15"/><rect x="21" y="0" width="1" height="24" fill="#00d2d3" opacity="0.15"/><circle cx="12" cy="12" r="5" fill="#9b59b6"/><circle cx="12" cy="12" r="5" fill="none" stroke="#682683" stroke-width="0.5"/><circle cx="8" cy="11" r="2" fill="#00ff00"/><circle cx="16" cy="11" r="2" fill="#00ff00"/><circle cx="8" cy="11" r="1" fill="#000"/><circle cx="16" cy="11" r="1" fill="#000"/><ellipse cx="12" cy="3" rx="5" ry="1.5" fill="none" stroke="#00d2d3" stroke-width="1"/><text x="23" y="23.5" font-size="1.5" fill="#8e44ad" opacity="0.3" text-anchor="end">#3504</text></svg>