<svg xmlns="http://www.w3.org/2000/svg" width="480" height="480" viewBox="0 0 24 24"><style>rect{shape-rendering:crispEdges;}</style><rect width="24" height="24" fill="#0f3460"/><rect x="0" y="0" width="2" height="2" fill="#48dbfb" opacity="0.15"/><rect x="0" y="8" width="2" height="2" fill="#48dbfb" opacity="0.15"/><rect x="0" y="16" width="2" height="2" fill="#48dbfb" opacity="0.15"/><rect x="4" y="4" width="2" height="2" fill="#48dbfb" opacity="0.15"/><rect x="4" y="12" width="2" height="2" fill="#48dbfb" opacity="0.15"/><rect x="4" y="20" width="2" height="2" fill="#48dbfb" opacity="0.15"/><rect x="8" y="0" width="2" height="2" fill="#48dbfb" opacity="0.15"/><rect x="8" y="8" width="2" height="2" fill="#48dbfb" opacity="0.15"/><rect x="8" y="16" width="2" height="2" fill="#48dbfb" opacity="0.15"/><rect x="12" y="4" width="2" height="2" fill="#48dbfb" opacity="0.15"/><rect x="12" y="12" width="2" height="2" fill="#48dbfb" opacity="0.15"/><rect x="12" y="20" width="2" height="2" fill="#48dbfb" opacity="0.15"/><rect x="16" y="0" width="2" height="2" fill="#48dbfb" opacity="0.15"/><rect x="16" y="8" width="2" height="2" fill="#48dbfb" opacity="0.15"/><rect x="16" y="16" width="2" height="2" fill="#48dbfb" opacity="0.15"/><rect x="20" y="4" width="2" height="2" fill="#48dbfb" opacity="0.15"/><rect x="20" y="12" width="2" height="2" fill="#48dbfb" opacity="0.15"/><rect x="20" y="20" width="2" height="2" fill="#48dbfb" opacity="0.15"/><polygon points="12,6 18,12 12,18 6,12" fill="#ecf0f1"/><polygon points="12,6 18,12 12,18 6,12" fill="none" stroke="#b9bdbe" stroke-width="0.5"/><circle cx="10" cy="11" r="0.5" fill="#ffff00"/><circle cx="14" cy="11" r="0.5" fill="#ffff00"/><circle cx="10" cy="11" r="0.3" fill="#000"/><circle cx="14" cy="11" r="0.3" fill="#000"/><line x1="12" y1="6" x2="12" y2="1" stroke="#48dbfb" stroke-width="0.8"/><circle cx="12" cy="0" r="1.5" fill="#48dbfb"/><text x="23" y="23.5" font-size="1.5" fill="#0f3460" opacity="0.3" text-anchor="end">#353</text></svg>