<svg xmlns="http://www.w3.org/2000/svg" width="480" height="480" viewBox="0 0 24 24"><style>rect{shape-rendering:crispEdges;}</style><rect width="24" height="24" fill="#2ecc71"/><rect x="0" y="0" width="1" height="24" fill="#ff9ff3" opacity="0.15"/><rect x="3" y="0" width="1" height="24" fill="#ff9ff3" opacity="0.15"/><rect x="6" y="0" width="1" height="24" fill="#ff9ff3" opacity="0.15"/><rect x="9" y="0" width="1" height="24" fill="#ff9ff3" opacity="0.15"/><rect x="12" y="0" width="1" height="24" fill="#ff9ff3" opacity="0.15"/><rect x="15" y="0" width="1" height="24" fill="#ff9ff3" opacity="0.15"/><rect x="18" y="0" width="1" height="24" fill="#ff9ff3" opacity="0.15"/><rect x="21" y="0" width="1" height="24" fill="#ff9ff3" opacity="0.15"/><rect x="7" y="7" width="10" height="10" fill="#1abc9c"/><rect x="7" y="7" width="10" height="1" fill="#008969"/><rect x="7" y="7" width="1" height="10" fill="#008969"/><circle cx="8" cy="11" r="2" fill="#000000"/><circle cx="16" cy="11" r="2" fill="#000000"/><circle cx="8" cy="11" r="1" fill="#000"/><circle cx="16" cy="11" r="1" fill="#000"/><rect x="7" y="4" width="10" height="2" fill="#ff9ff3"/><polygon points="8,4 8,1 10,3 12,0 14,3 16,1 16,4" fill="#ff9ff3"/><text x="23" y="23.5" font-size="1.5" fill="#2ecc71" opacity="0.3" text-anchor="end">#355</text></svg>