<svg xmlns="http://www.w3.org/2000/svg" width="480" height="480" viewBox="0 0 24 24"><style>rect{shape-rendering:crispEdges;}</style><rect width="24" height="24" fill="#34495e"/><rect x="0" y="0" width="0.5" height="24" fill="#6c5ce7" opacity="0.15"/><rect x="0" y="0" width="24" height="0.5" fill="#6c5ce7" opacity="0.15"/><rect x="4" y="0" width="0.5" height="24" fill="#6c5ce7" opacity="0.15"/><rect x="0" y="4" width="24" height="0.5" fill="#6c5ce7" opacity="0.15"/><rect x="8" y="0" width="0.5" height="24" fill="#6c5ce7" opacity="0.15"/><rect x="0" y="8" width="24" height="0.5" fill="#6c5ce7" opacity="0.15"/><rect x="12" y="0" width="0.5" height="24" fill="#6c5ce7" opacity="0.15"/><rect x="0" y="12" width="24" height="0.5" fill="#6c5ce7" opacity="0.15"/><rect x="16" y="0" width="0.5" height="24" fill="#6c5ce7" opacity="0.15"/><rect x="0" y="16" width="24" height="0.5" fill="#6c5ce7" opacity="0.15"/><rect x="20" y="0" width="0.5" height="24" fill="#6c5ce7" opacity="0.15"/><rect x="0" y="20" width="24" height="0.5" fill="#6c5ce7" opacity="0.15"/><rect x="7" y="7" width="10" height="10" fill="#e74c3c"/><rect x="7" y="7" width="10" height="1" fill="#b41909"/><rect x="7" y="7" width="1" height="10" fill="#b41909"/><circle cx="12" cy="11" r="1.5" fill="#ff6600"/><circle cx="12" cy="11" r="0.75" fill="#000"/><rect x="7" y="4" width="10" height="2" fill="#6c5ce7"/><polygon points="8,4 8,1 10,3 12,0 14,3 16,1 16,4" fill="#6c5ce7"/><text x="23" y="23.5" font-size="1.5" fill="#34495e" opacity="0.3" text-anchor="end">#3700</text></svg>