<svg xmlns="http://www.w3.org/2000/svg" width="480" height="480" viewBox="0 0 24 24"><style>rect{shape-rendering:crispEdges;}</style><rect width="24" height="24" fill="#16213e"/><circle cx="2" cy="2" r="0.5" fill="#00cec9" opacity="0.2"/><circle cx="2" cy="6" r="0.5" fill="#00cec9" opacity="0.2"/><circle cx="2" cy="10" r="0.5" fill="#00cec9" opacity="0.2"/><circle cx="2" cy="14" r="0.5" fill="#00cec9" opacity="0.2"/><circle cx="2" cy="18" r="0.5" fill="#00cec9" opacity="0.2"/><circle cx="2" cy="22" r="0.5" fill="#00cec9" opacity="0.2"/><circle cx="6" cy="2" r="0.5" fill="#00cec9" opacity="0.2"/><circle cx="6" cy="6" r="0.5" fill="#00cec9" opacity="0.2"/><circle cx="6" cy="10" r="0.5" fill="#00cec9" opacity="0.2"/><circle cx="6" cy="14" r="0.5" fill="#00cec9" opacity="0.2"/><circle cx="6" cy="18" r="0.5" fill="#00cec9" opacity="0.2"/><circle cx="6" cy="22" r="0.5" fill="#00cec9" opacity="0.2"/><circle cx="10" cy="2" r="0.5" fill="#00cec9" opacity="0.2"/><circle cx="10" cy="6" r="0.5" fill="#00cec9" opacity="0.2"/><circle cx="10" cy="10" r="0.5" fill="#00cec9" opacity="0.2"/><circle cx="10" cy="14" r="0.5" fill="#00cec9" opacity="0.2"/><circle cx="10" cy="18" r="0.5" fill="#00cec9" opacity="0.2"/><circle cx="10" cy="22" r="0.5" fill="#00cec9" opacity="0.2"/><circle cx="14" cy="2" r="0.5" fill="#00cec9" opacity="0.2"/><circle cx="14" cy="6" r="0.5" fill="#00cec9" opacity="0.2"/><circle cx="14" cy="10" r="0.5" fill="#00cec9" opacity="0.2"/><circle cx="14" cy="14" r="0.5" fill="#00cec9" opacity="0.2"/><circle cx="14" cy="18" r="0.5" fill="#00cec9" opacity="0.2"/><circle cx="14" cy="22" r="0.5" fill="#00cec9" opacity="0.2"/><circle cx="18" cy="2" r="0.5" fill="#00cec9" opacity="0.2"/><circle cx="18" cy="6" r="0.5" fill="#00cec9" opacity="0.2"/><circle cx="18" cy="10" r="0.5" fill="#00cec9" opacity="0.2"/><circle cx="18" cy="14" r="0.5" fill="#00cec9" opacity="0.2"/><circle cx="18" cy="18" r="0.5" fill="#00cec9" opacity="0.2"/><circle cx="18" cy="22" r="0.5" fill="#00cec9" opacity="0.2"/><circle cx="22" cy="2" r="0.5" fill="#00cec9" opacity="0.2"/><circle cx="22" cy="6" r="0.5" fill="#00cec9" opacity="0.2"/><circle cx="22" cy="10" r="0.5" fill="#00cec9" opacity="0.2"/><circle cx="22" cy="14" r="0.5" fill="#00cec9" opacity="0.2"/><circle cx="22" cy="18" r="0.5" fill="#00cec9" opacity="0.2"/><circle cx="22" cy="22" r="0.5" fill="#00cec9" opacity="0.2"/><rect x="7" y="7" width="10" height="10" fill="#f39c12"/><rect x="7" y="7" width="10" height="1" fill="#c06900"/><rect x="7" y="7" width="1" height="10" fill="#c06900"/><circle cx="7" cy="11" r="1" fill="#0000ff"/><circle cx="17" cy="11" r="1" fill="#0000ff"/><circle cx="7" cy="11" r="0.5" fill="#000"/><circle cx="17" cy="11" r="0.5" fill="#000"/><line x1="12" y1="6" x2="12" y2="1" stroke="#00cec9" stroke-width="0.8"/><circle cx="12" cy="0" r="1.5" fill="#00cec9"/><text x="23" y="23.5" font-size="1.5" fill="#16213e" opacity="0.3" text-anchor="end">#3820</text></svg>