<svg xmlns="http://www.w3.org/2000/svg" width="480" height="480" viewBox="0 0 24 24"><style>rect{shape-rendering:crispEdges;}</style><rect width="24" height="24" fill="#27ae60"/><rect x="0" y="0" width="2" height="2" fill="#ff6b6b" opacity="0.15"/><rect x="0" y="8" width="2" height="2" fill="#ff6b6b" opacity="0.15"/><rect x="0" y="16" width="2" height="2" fill="#ff6b6b" opacity="0.15"/><rect x="4" y="4" width="2" height="2" fill="#ff6b6b" opacity="0.15"/><rect x="4" y="12" width="2" height="2" fill="#ff6b6b" opacity="0.15"/><rect x="4" y="20" width="2" height="2" fill="#ff6b6b" opacity="0.15"/><rect x="8" y="0" width="2" height="2" fill="#ff6b6b" opacity="0.15"/><rect x="8" y="8" width="2" height="2" fill="#ff6b6b" opacity="0.15"/><rect x="8" y="16" width="2" height="2" fill="#ff6b6b" opacity="0.15"/><rect x="12" y="4" width="2" height="2" fill="#ff6b6b" opacity="0.15"/><rect x="12" y="12" width="2" height="2" fill="#ff6b6b" opacity="0.15"/><rect x="12" y="20" width="2" height="2" fill="#ff6b6b" opacity="0.15"/><rect x="16" y="0" width="2" height="2" fill="#ff6b6b" opacity="0.15"/><rect x="16" y="8" width="2" height="2" fill="#ff6b6b" opacity="0.15"/><rect x="16" y="16" width="2" height="2" fill="#ff6b6b" opacity="0.15"/><rect x="20" y="4" width="2" height="2" fill="#ff6b6b" opacity="0.15"/><rect x="20" y="12" width="2" height="2" fill="#ff6b6b" opacity="0.15"/><rect x="20" y="20" width="2" height="2" fill="#ff6b6b" opacity="0.15"/><rect x="7" y="7" width="10" height="10" fill="#c0392b"/><rect x="7" y="7" width="10" height="1" fill="#8d0600"/><rect x="7" y="7" width="1" height="10" fill="#8d0600"/><circle cx="9" cy="11" r="0.5" fill="#0000ff"/><circle cx="15" cy="11" r="0.5" fill="#0000ff"/><circle cx="9" cy="11" r="0.3" fill="#000"/><circle cx="15" cy="11" r="0.3" fill="#000"/><rect x="6" y="4" width="12" height="1" fill="#ff6b6b"/><rect x="8" y="0" width="8" height="4" fill="#ff6b6b"/><text x="23" y="23.5" font-size="1.5" fill="#27ae60" opacity="0.3" text-anchor="end">#3849</text></svg>