<svg xmlns="http://www.w3.org/2000/svg" width="480" height="480" viewBox="0 0 24 24"><style>rect{shape-rendering:crispEdges;}</style><rect width="24" height="24" fill="#ecf0f1"/><circle cx="2" cy="2" r="0.5" fill="#6c5ce7" opacity="0.2"/><circle cx="2" cy="6" r="0.5" fill="#6c5ce7" opacity="0.2"/><circle cx="2" cy="10" r="0.5" fill="#6c5ce7" opacity="0.2"/><circle cx="2" cy="14" r="0.5" fill="#6c5ce7" opacity="0.2"/><circle cx="2" cy="18" r="0.5" fill="#6c5ce7" opacity="0.2"/><circle cx="2" cy="22" r="0.5" fill="#6c5ce7" opacity="0.2"/><circle cx="6" cy="2" r="0.5" fill="#6c5ce7" opacity="0.2"/><circle cx="6" cy="6" r="0.5" fill="#6c5ce7" opacity="0.2"/><circle cx="6" cy="10" r="0.5" fill="#6c5ce7" opacity="0.2"/><circle cx="6" cy="14" r="0.5" fill="#6c5ce7" opacity="0.2"/><circle cx="6" cy="18" r="0.5" fill="#6c5ce7" opacity="0.2"/><circle cx="6" cy="22" r="0.5" fill="#6c5ce7" opacity="0.2"/><circle cx="10" cy="2" r="0.5" fill="#6c5ce7" opacity="0.2"/><circle cx="10" cy="6" r="0.5" fill="#6c5ce7" opacity="0.2"/><circle cx="10" cy="10" r="0.5" fill="#6c5ce7" opacity="0.2"/><circle cx="10" cy="14" r="0.5" fill="#6c5ce7" opacity="0.2"/><circle cx="10" cy="18" r="0.5" fill="#6c5ce7" opacity="0.2"/><circle cx="10" cy="22" r="0.5" fill="#6c5ce7" opacity="0.2"/><circle cx="14" cy="2" r="0.5" fill="#6c5ce7" opacity="0.2"/><circle cx="14" cy="6" r="0.5" fill="#6c5ce7" opacity="0.2"/><circle cx="14" cy="10" r="0.5" fill="#6c5ce7" opacity="0.2"/><circle cx="14" cy="14" r="0.5" fill="#6c5ce7" opacity="0.2"/><circle cx="14" cy="18" r="0.5" fill="#6c5ce7" opacity="0.2"/><circle cx="14" cy="22" r="0.5" fill="#6c5ce7" opacity="0.2"/><circle cx="18" cy="2" r="0.5" fill="#6c5ce7" opacity="0.2"/><circle cx="18" cy="6" r="0.5" fill="#6c5ce7" opacity="0.2"/><circle cx="18" cy="10" r="0.5" fill="#6c5ce7" opacity="0.2"/><circle cx="18" cy="14" r="0.5" fill="#6c5ce7" opacity="0.2"/><circle cx="18" cy="18" r="0.5" fill="#6c5ce7" opacity="0.2"/><circle cx="18" cy="22" r="0.5" fill="#6c5ce7" opacity="0.2"/><circle cx="22" cy="2" r="0.5" fill="#6c5ce7" opacity="0.2"/><circle cx="22" cy="6" r="0.5" fill="#6c5ce7" opacity="0.2"/><circle cx="22" cy="10" r="0.5" fill="#6c5ce7" opacity="0.2"/><circle cx="22" cy="14" r="0.5" fill="#6c5ce7" opacity="0.2"/><circle cx="22" cy="18" r="0.5" fill="#6c5ce7" opacity="0.2"/><circle cx="22" cy="22" r="0.5" fill="#6c5ce7" opacity="0.2"/><polygon points="12,7 16.33012701892219,9.5 16.330127018922195,14.5 12,17 7.669872981077807,14.500000000000002 7.669872981077805,9.500000000000004" fill="#7f8c8d"/><polygon points="12,7 16.33012701892219,9.5 16.330127018922195,14.5 12,17 7.669872981077807,14.500000000000002 7.669872981077805,9.500000000000004" fill="none" stroke="#4c595a" stroke-width="0.5"/><circle cx="10" cy="11" r="0.5" fill="#ff00ff"/><circle cx="14" cy="11" r="0.5" fill="#ff00ff"/><circle cx="10" cy="11" r="0.3" fill="#000"/><circle cx="14" cy="11" r="0.3" fill="#000"/><polygon points="6,7 3,2 7,5" fill="#6c5ce7"/><polygon points="18,7 21,2 17,5" fill="#6c5ce7"/><text x="23" y="23.5" font-size="1.5" fill="#ecf0f1" opacity="0.3" text-anchor="end">#3866</text></svg>