<svg xmlns="http://www.w3.org/2000/svg" width="480" height="480" viewBox="0 0 24 24"><style>rect{shape-rendering:crispEdges;}</style><rect width="24" height="24" fill="#533483"/><rect x="0" y="0" width="2" height="2" fill="#00d2d3" opacity="0.15"/><rect x="0" y="8" width="2" height="2" fill="#00d2d3" opacity="0.15"/><rect x="0" y="16" width="2" height="2" fill="#00d2d3" opacity="0.15"/><rect x="4" y="4" width="2" height="2" fill="#00d2d3" opacity="0.15"/><rect x="4" y="12" width="2" height="2" fill="#00d2d3" opacity="0.15"/><rect x="4" y="20" width="2" height="2" fill="#00d2d3" opacity="0.15"/><rect x="8" y="0" width="2" height="2" fill="#00d2d3" opacity="0.15"/><rect x="8" y="8" width="2" height="2" fill="#00d2d3" opacity="0.15"/><rect x="8" y="16" width="2" height="2" fill="#00d2d3" opacity="0.15"/><rect x="12" y="4" width="2" height="2" fill="#00d2d3" opacity="0.15"/><rect x="12" y="12" width="2" height="2" fill="#00d2d3" opacity="0.15"/><rect x="12" y="20" width="2" height="2" fill="#00d2d3" opacity="0.15"/><rect x="16" y="0" width="2" height="2" fill="#00d2d3" opacity="0.15"/><rect x="16" y="8" width="2" height="2" fill="#00d2d3" opacity="0.15"/><rect x="16" y="16" width="2" height="2" fill="#00d2d3" opacity="0.15"/><rect x="20" y="4" width="2" height="2" fill="#00d2d3" opacity="0.15"/><rect x="20" y="12" width="2" height="2" fill="#00d2d3" opacity="0.15"/><rect x="20" y="20" width="2" height="2" fill="#00d2d3" opacity="0.15"/><polygon points="12,6 18,17 6,17" fill="#ffffff"/><polygon points="12,6 18,17 6,17" fill="none" stroke="#cccccc" stroke-width="0.5"/><circle cx="12" cy="11" r="1.5" fill="#ff00ff"/><circle cx="12" cy="11" r="0.75" fill="#000"/><rect x="7" y="4" width="10" height="2" fill="#00d2d3"/><polygon points="8,4 8,1 10,3 12,0 14,3 16,1 16,4" fill="#00d2d3"/><text x="23" y="23.5" font-size="1.5" fill="#533483" opacity="0.3" text-anchor="end">#3921</text></svg>