<svg xmlns="http://www.w3.org/2000/svg" width="480" height="480" viewBox="0 0 24 24"><style>rect{shape-rendering:crispEdges;}</style><rect width="24" height="24" fill="#95a5a6"/><circle cx="2" cy="2" r="0.5" fill="#fd79a8" opacity="0.2"/><circle cx="2" cy="6" r="0.5" fill="#fd79a8" opacity="0.2"/><circle cx="2" cy="10" r="0.5" fill="#fd79a8" opacity="0.2"/><circle cx="2" cy="14" r="0.5" fill="#fd79a8" opacity="0.2"/><circle cx="2" cy="18" r="0.5" fill="#fd79a8" opacity="0.2"/><circle cx="2" cy="22" r="0.5" fill="#fd79a8" opacity="0.2"/><circle cx="6" cy="2" r="0.5" fill="#fd79a8" opacity="0.2"/><circle cx="6" cy="6" r="0.5" fill="#fd79a8" opacity="0.2"/><circle cx="6" cy="10" r="0.5" fill="#fd79a8" opacity="0.2"/><circle cx="6" cy="14" r="0.5" fill="#fd79a8" opacity="0.2"/><circle cx="6" cy="18" r="0.5" fill="#fd79a8" opacity="0.2"/><circle cx="6" cy="22" r="0.5" fill="#fd79a8" opacity="0.2"/><circle cx="10" cy="2" r="0.5" fill="#fd79a8" opacity="0.2"/><circle cx="10" cy="6" r="0.5" fill="#fd79a8" opacity="0.2"/><circle cx="10" cy="10" r="0.5" fill="#fd79a8" opacity="0.2"/><circle cx="10" cy="14" r="0.5" fill="#fd79a8" opacity="0.2"/><circle cx="10" cy="18" r="0.5" fill="#fd79a8" opacity="0.2"/><circle cx="10" cy="22" r="0.5" fill="#fd79a8" opacity="0.2"/><circle cx="14" cy="2" r="0.5" fill="#fd79a8" opacity="0.2"/><circle cx="14" cy="6" r="0.5" fill="#fd79a8" opacity="0.2"/><circle cx="14" cy="10" r="0.5" fill="#fd79a8" opacity="0.2"/><circle cx="14" cy="14" r="0.5" fill="#fd79a8" opacity="0.2"/><circle cx="14" cy="18" r="0.5" fill="#fd79a8" opacity="0.2"/><circle cx="14" cy="22" r="0.5" fill="#fd79a8" opacity="0.2"/><circle cx="18" cy="2" r="0.5" fill="#fd79a8" opacity="0.2"/><circle cx="18" cy="6" r="0.5" fill="#fd79a8" opacity="0.2"/><circle cx="18" cy="10" r="0.5" fill="#fd79a8" opacity="0.2"/><circle cx="18" cy="14" r="0.5" fill="#fd79a8" opacity="0.2"/><circle cx="18" cy="18" r="0.5" fill="#fd79a8" opacity="0.2"/><circle cx="18" cy="22" r="0.5" fill="#fd79a8" opacity="0.2"/><circle cx="22" cy="2" r="0.5" fill="#fd79a8" opacity="0.2"/><circle cx="22" cy="6" r="0.5" fill="#fd79a8" opacity="0.2"/><circle cx="22" cy="10" r="0.5" fill="#fd79a8" opacity="0.2"/><circle cx="22" cy="14" r="0.5" fill="#fd79a8" opacity="0.2"/><circle cx="22" cy="18" r="0.5" fill="#fd79a8" opacity="0.2"/><circle cx="22" cy="22" r="0.5" fill="#fd79a8" opacity="0.2"/><path d="M12 16 C6 12 6 8 12 10 C18 8 18 12 12 16" fill="#3498db"/><circle cx="12" cy="11" r="1.5" fill="#ff6600"/><circle cx="12" cy="11" r="0.75" fill="#000"/><line x1="12" y1="6" x2="12" y2="1" stroke="#fd79a8" stroke-width="0.8"/><circle cx="12" cy="0" r="1.5" fill="#fd79a8"/><text x="23" y="23.5" font-size="1.5" fill="#95a5a6" opacity="0.3" text-anchor="end">#3973</text></svg>