<svg xmlns="http://www.w3.org/2000/svg" width="480" height="480" viewBox="0 0 24 24"><style>rect{shape-rendering:crispEdges;}</style><rect width="24" height="24" fill="#e67e22"/><rect x="0" y="0" width="1" height="24" fill="#48dbfb" opacity="0.15"/><rect x="3" y="0" width="1" height="24" fill="#48dbfb" opacity="0.15"/><rect x="6" y="0" width="1" height="24" fill="#48dbfb" opacity="0.15"/><rect x="9" y="0" width="1" height="24" fill="#48dbfb" opacity="0.15"/><rect x="12" y="0" width="1" height="24" fill="#48dbfb" opacity="0.15"/><rect x="15" y="0" width="1" height="24" fill="#48dbfb" opacity="0.15"/><rect x="18" y="0" width="1" height="24" fill="#48dbfb" opacity="0.15"/><rect x="21" y="0" width="1" height="24" fill="#48dbfb" opacity="0.15"/><circle cx="12" cy="12" r="5" fill="#34495e"/><circle cx="12" cy="12" r="5" fill="none" stroke="#01162b" stroke-width="0.5"/><circle cx="9" cy="11" r="1" fill="#0000ff"/><circle cx="15" cy="11" r="1" fill="#0000ff"/><circle cx="9" cy="11" r="0.5" fill="#000"/><circle cx="15" cy="11" r="0.5" fill="#000"/><ellipse cx="9" cy="5" rx="2" ry="1.5" fill="#48dbfb"/><ellipse cx="15" cy="5" rx="2" ry="1.5" fill="#48dbfb"/><circle cx="12" cy="5" r="1" fill="#48dbfb"/><text x="23" y="23.5" font-size="1.5" fill="#e67e22" opacity="0.3" text-anchor="end">#4035</text></svg>