<svg xmlns="http://www.w3.org/2000/svg" width="480" height="480" viewBox="0 0 24 24"><style>rect{shape-rendering:crispEdges;}</style><rect width="24" height="24" fill="#1abc9c"/><circle cx="2" cy="2" r="0.5" fill="#74b9ff" opacity="0.2"/><circle cx="2" cy="6" r="0.5" fill="#74b9ff" opacity="0.2"/><circle cx="2" cy="10" r="0.5" fill="#74b9ff" opacity="0.2"/><circle cx="2" cy="14" r="0.5" fill="#74b9ff" opacity="0.2"/><circle cx="2" cy="18" r="0.5" fill="#74b9ff" opacity="0.2"/><circle cx="2" cy="22" r="0.5" fill="#74b9ff" opacity="0.2"/><circle cx="6" cy="2" r="0.5" fill="#74b9ff" opacity="0.2"/><circle cx="6" cy="6" r="0.5" fill="#74b9ff" opacity="0.2"/><circle cx="6" cy="10" r="0.5" fill="#74b9ff" opacity="0.2"/><circle cx="6" cy="14" r="0.5" fill="#74b9ff" opacity="0.2"/><circle cx="6" cy="18" r="0.5" fill="#74b9ff" opacity="0.2"/><circle cx="6" cy="22" r="0.5" fill="#74b9ff" opacity="0.2"/><circle cx="10" cy="2" r="0.5" fill="#74b9ff" opacity="0.2"/><circle cx="10" cy="6" r="0.5" fill="#74b9ff" opacity="0.2"/><circle cx="10" cy="10" r="0.5" fill="#74b9ff" opacity="0.2"/><circle cx="10" cy="14" r="0.5" fill="#74b9ff" opacity="0.2"/><circle cx="10" cy="18" r="0.5" fill="#74b9ff" opacity="0.2"/><circle cx="10" cy="22" r="0.5" fill="#74b9ff" opacity="0.2"/><circle cx="14" cy="2" r="0.5" fill="#74b9ff" opacity="0.2"/><circle cx="14" cy="6" r="0.5" fill="#74b9ff" opacity="0.2"/><circle cx="14" cy="10" r="0.5" fill="#74b9ff" opacity="0.2"/><circle cx="14" cy="14" r="0.5" fill="#74b9ff" opacity="0.2"/><circle cx="14" cy="18" r="0.5" fill="#74b9ff" opacity="0.2"/><circle cx="14" cy="22" r="0.5" fill="#74b9ff" opacity="0.2"/><circle cx="18" cy="2" r="0.5" fill="#74b9ff" opacity="0.2"/><circle cx="18" cy="6" r="0.5" fill="#74b9ff" opacity="0.2"/><circle cx="18" cy="10" r="0.5" fill="#74b9ff" opacity="0.2"/><circle cx="18" cy="14" r="0.5" fill="#74b9ff" opacity="0.2"/><circle cx="18" cy="18" r="0.5" fill="#74b9ff" opacity="0.2"/><circle cx="18" cy="22" r="0.5" fill="#74b9ff" opacity="0.2"/><circle cx="22" cy="2" r="0.5" fill="#74b9ff" opacity="0.2"/><circle cx="22" cy="6" r="0.5" fill="#74b9ff" opacity="0.2"/><circle cx="22" cy="10" r="0.5" fill="#74b9ff" opacity="0.2"/><circle cx="22" cy="14" r="0.5" fill="#74b9ff" opacity="0.2"/><circle cx="22" cy="18" r="0.5" fill="#74b9ff" opacity="0.2"/><circle cx="22" cy="22" r="0.5" fill="#74b9ff" opacity="0.2"/><polygon points="12,6 18,17 6,17" fill="#95a5a6"/><polygon points="12,6 18,17 6,17" fill="none" stroke="#627273" stroke-width="0.5"/><rect x="8" y="10" width="2" height="2" fill="#00ff00"/><rect x="14" y="10" width="2" height="2" fill="#00ff00"/><circle cx="9" cy="11" r="0.5" fill="#000"/><circle cx="15" cy="11" r="0.5" fill="#000"/><ellipse cx="12" cy="3" rx="5" ry="1.5" fill="none" stroke="#74b9ff" stroke-width="1"/><text x="23" y="23.5" font-size="1.5" fill="#1abc9c" opacity="0.3" text-anchor="end">#4059</text></svg>