<svg xmlns="http://www.w3.org/2000/svg" width="480" height="480" viewBox="0 0 24 24"><style>rect{shape-rendering:crispEdges;}</style><rect width="24" height="24" fill="#34495e"/><rect x="0" y="0" width="2" height="2" fill="#fd79a8" opacity="0.15"/><rect x="0" y="8" width="2" height="2" fill="#fd79a8" opacity="0.15"/><rect x="0" y="16" width="2" height="2" fill="#fd79a8" opacity="0.15"/><rect x="4" y="4" width="2" height="2" fill="#fd79a8" opacity="0.15"/><rect x="4" y="12" width="2" height="2" fill="#fd79a8" opacity="0.15"/><rect x="4" y="20" width="2" height="2" fill="#fd79a8" opacity="0.15"/><rect x="8" y="0" width="2" height="2" fill="#fd79a8" opacity="0.15"/><rect x="8" y="8" width="2" height="2" fill="#fd79a8" opacity="0.15"/><rect x="8" y="16" width="2" height="2" fill="#fd79a8" opacity="0.15"/><rect x="12" y="4" width="2" height="2" fill="#fd79a8" opacity="0.15"/><rect x="12" y="12" width="2" height="2" fill="#fd79a8" opacity="0.15"/><rect x="12" y="20" width="2" height="2" fill="#fd79a8" opacity="0.15"/><rect x="16" y="0" width="2" height="2" fill="#fd79a8" opacity="0.15"/><rect x="16" y="8" width="2" height="2" fill="#fd79a8" opacity="0.15"/><rect x="16" y="16" width="2" height="2" fill="#fd79a8" opacity="0.15"/><rect x="20" y="4" width="2" height="2" fill="#fd79a8" opacity="0.15"/><rect x="20" y="12" width="2" height="2" fill="#fd79a8" opacity="0.15"/><rect x="20" y="20" width="2" height="2" fill="#fd79a8" opacity="0.15"/><path d="M12 16 C6 12 6 8 12 10 C18 8 18 12 12 16" fill="#bdc3c7"/><circle cx="9" cy="11" r="0.5" fill="#6600ff"/><circle cx="15" cy="11" r="0.5" fill="#6600ff"/><circle cx="9" cy="11" r="0.3" fill="#000"/><circle cx="15" cy="11" r="0.3" fill="#000"/><polygon points="6,7 3,2 7,5" fill="#fd79a8"/><polygon points="18,7 21,2 17,5" fill="#fd79a8"/><text x="23" y="23.5" font-size="1.5" fill="#34495e" opacity="0.3" text-anchor="end">#4111</text></svg>