<svg xmlns="http://www.w3.org/2000/svg" width="480" height="480" viewBox="0 0 24 24"><style>rect{shape-rendering:crispEdges;}</style><rect width="24" height="24" fill="#f1c40f"/><rect x="0" y="0" width="0.5" height="24" fill="#74b9ff" opacity="0.15"/><rect x="0" y="0" width="24" height="0.5" fill="#74b9ff" opacity="0.15"/><rect x="4" y="0" width="0.5" height="24" fill="#74b9ff" opacity="0.15"/><rect x="0" y="4" width="24" height="0.5" fill="#74b9ff" opacity="0.15"/><rect x="8" y="0" width="0.5" height="24" fill="#74b9ff" opacity="0.15"/><rect x="0" y="8" width="24" height="0.5" fill="#74b9ff" opacity="0.15"/><rect x="12" y="0" width="0.5" height="24" fill="#74b9ff" opacity="0.15"/><rect x="0" y="12" width="24" height="0.5" fill="#74b9ff" opacity="0.15"/><rect x="16" y="0" width="0.5" height="24" fill="#74b9ff" opacity="0.15"/><rect x="0" y="16" width="24" height="0.5" fill="#74b9ff" opacity="0.15"/><rect x="20" y="0" width="0.5" height="24" fill="#74b9ff" opacity="0.15"/><rect x="0" y="20" width="24" height="0.5" fill="#74b9ff" opacity="0.15"/><circle cx="12" cy="12" r="5" fill="#ecf0f1"/><circle cx="12" cy="12" r="5" fill="none" stroke="#b9bdbe" stroke-width="0.5"/><circle cx="7" cy="11" r="1" fill="#6600ff"/><circle cx="17" cy="11" r="1" fill="#6600ff"/><circle cx="7" cy="11" r="0.5" fill="#000"/><circle cx="17" cy="11" r="0.5" fill="#000"/><rect x="6" y="4" width="12" height="1" fill="#74b9ff"/><rect x="8" y="0" width="8" height="4" fill="#74b9ff"/><text x="23" y="23.5" font-size="1.5" fill="#f1c40f" opacity="0.3" text-anchor="end">#4215</text></svg>