<svg xmlns="http://www.w3.org/2000/svg" width="480" height="480" viewBox="0 0 24 24"><style>rect{shape-rendering:crispEdges;}</style><rect width="24" height="24" fill="#c0392b"/><rect x="0" y="0" width="1" height="24" fill="#ff6b6b" opacity="0.15"/><rect x="3" y="0" width="1" height="24" fill="#ff6b6b" opacity="0.15"/><rect x="6" y="0" width="1" height="24" fill="#ff6b6b" opacity="0.15"/><rect x="9" y="0" width="1" height="24" fill="#ff6b6b" opacity="0.15"/><rect x="12" y="0" width="1" height="24" fill="#ff6b6b" opacity="0.15"/><rect x="15" y="0" width="1" height="24" fill="#ff6b6b" opacity="0.15"/><rect x="18" y="0" width="1" height="24" fill="#ff6b6b" opacity="0.15"/><rect x="21" y="0" width="1" height="24" fill="#ff6b6b" opacity="0.15"/><rect x="7" y="7" width="10" height="10" fill="#9b59b6"/><rect x="7" y="7" width="10" height="1" fill="#682683"/><rect x="7" y="7" width="1" height="10" fill="#682683"/><circle cx="9" cy="11" r="1" fill="#ff6600"/><circle cx="15" cy="11" r="1" fill="#ff6600"/><circle cx="9" cy="11" r="0.5" fill="#000"/><circle cx="15" cy="11" r="0.5" fill="#000"/><ellipse cx="12" cy="3" rx="5" ry="1.5" fill="none" stroke="#ff6b6b" stroke-width="1"/><text x="23" y="23.5" font-size="1.5" fill="#c0392b" opacity="0.3" text-anchor="end">#4233</text></svg>