<svg xmlns="http://www.w3.org/2000/svg" width="480" height="480" viewBox="0 0 24 24"><style>rect{shape-rendering:crispEdges;}</style><rect width="24" height="24" fill="#ecf0f1"/><circle cx="2" cy="2" r="0.5" fill="#6c5ce7" opacity="0.2"/><circle cx="2" cy="6" r="0.5" fill="#6c5ce7" opacity="0.2"/><circle cx="2" cy="10" r="0.5" fill="#6c5ce7" opacity="0.2"/><circle cx="2" cy="14" r="0.5" fill="#6c5ce7" opacity="0.2"/><circle cx="2" cy="18" r="0.5" fill="#6c5ce7" opacity="0.2"/><circle cx="2" cy="22" r="0.5" fill="#6c5ce7" opacity="0.2"/><circle cx="6" cy="2" r="0.5" fill="#6c5ce7" opacity="0.2"/><circle cx="6" cy="6" r="0.5" fill="#6c5ce7" opacity="0.2"/><circle cx="6" cy="10" r="0.5" fill="#6c5ce7" opacity="0.2"/><circle cx="6" cy="14" r="0.5" fill="#6c5ce7" opacity="0.2"/><circle cx="6" cy="18" r="0.5" fill="#6c5ce7" opacity="0.2"/><circle cx="6" cy="22" r="0.5" fill="#6c5ce7" opacity="0.2"/><circle cx="10" cy="2" r="0.5" fill="#6c5ce7" opacity="0.2"/><circle cx="10" cy="6" r="0.5" fill="#6c5ce7" opacity="0.2"/><circle cx="10" cy="10" r="0.5" fill="#6c5ce7" opacity="0.2"/><circle cx="10" cy="14" r="0.5" fill="#6c5ce7" opacity="0.2"/><circle cx="10" cy="18" r="0.5" fill="#6c5ce7" opacity="0.2"/><circle cx="10" cy="22" r="0.5" fill="#6c5ce7" opacity="0.2"/><circle cx="14" cy="2" r="0.5" fill="#6c5ce7" opacity="0.2"/><circle cx="14" cy="6" r="0.5" fill="#6c5ce7" opacity="0.2"/><circle cx="14" cy="10" r="0.5" fill="#6c5ce7" opacity="0.2"/><circle cx="14" cy="14" r="0.5" fill="#6c5ce7" opacity="0.2"/><circle cx="14" cy="18" r="0.5" fill="#6c5ce7" opacity="0.2"/><circle cx="14" cy="22" r="0.5" fill="#6c5ce7" opacity="0.2"/><circle cx="18" cy="2" r="0.5" fill="#6c5ce7" opacity="0.2"/><circle cx="18" cy="6" r="0.5" fill="#6c5ce7" opacity="0.2"/><circle cx="18" cy="10" r="0.5" fill="#6c5ce7" opacity="0.2"/><circle cx="18" cy="14" r="0.5" fill="#6c5ce7" opacity="0.2"/><circle cx="18" cy="18" r="0.5" fill="#6c5ce7" opacity="0.2"/><circle cx="18" cy="22" r="0.5" fill="#6c5ce7" opacity="0.2"/><circle cx="22" cy="2" r="0.5" fill="#6c5ce7" opacity="0.2"/><circle cx="22" cy="6" r="0.5" fill="#6c5ce7" opacity="0.2"/><circle cx="22" cy="10" r="0.5" fill="#6c5ce7" opacity="0.2"/><circle cx="22" cy="14" r="0.5" fill="#6c5ce7" opacity="0.2"/><circle cx="22" cy="18" r="0.5" fill="#6c5ce7" opacity="0.2"/><circle cx="22" cy="22" r="0.5" fill="#6c5ce7" opacity="0.2"/><polygon points="12,6 18,12 12,18 6,12" fill="#7f8c8d"/><polygon points="12,6 18,12 12,18 6,12" fill="none" stroke="#4c595a" stroke-width="0.5"/><circle cx="8" cy="11" r="1.5" fill="#ff6600"/><circle cx="16" cy="11" r="1.5" fill="#ff6600"/><circle cx="8" cy="11" r="0.75" fill="#000"/><circle cx="16" cy="11" r="0.75" fill="#000"/><line x1="12" y1="6" x2="12" y2="1" stroke="#6c5ce7" stroke-width="0.8"/><circle cx="12" cy="0" r="1.5" fill="#6c5ce7"/><text x="23" y="23.5" font-size="1.5" fill="#ecf0f1" opacity="0.3" text-anchor="end">#443</text></svg>