<svg xmlns="http://www.w3.org/2000/svg" width="480" height="480" viewBox="0 0 24 24"><style>rect{shape-rendering:crispEdges;}</style><rect width="24" height="24" fill="#2c3e50"/><rect x="0" y="0" width="1" height="24" fill="#a29bfe" opacity="0.15"/><rect x="3" y="0" width="1" height="24" fill="#a29bfe" opacity="0.15"/><rect x="6" y="0" width="1" height="24" fill="#a29bfe" opacity="0.15"/><rect x="9" y="0" width="1" height="24" fill="#a29bfe" opacity="0.15"/><rect x="12" y="0" width="1" height="24" fill="#a29bfe" opacity="0.15"/><rect x="15" y="0" width="1" height="24" fill="#a29bfe" opacity="0.15"/><rect x="18" y="0" width="1" height="24" fill="#a29bfe" opacity="0.15"/><rect x="21" y="0" width="1" height="24" fill="#a29bfe" opacity="0.15"/><circle cx="12" cy="12" r="5" fill="#8e44ad"/><circle cx="12" cy="12" r="5" fill="none" stroke="#5b117a" stroke-width="0.5"/><circle cx="9" cy="11" r="0.5" fill="#ff6600"/><circle cx="15" cy="11" r="0.5" fill="#ff6600"/><circle cx="9" cy="11" r="0.3" fill="#000"/><circle cx="15" cy="11" r="0.3" fill="#000"/><rect x="10" y="3" width="1" height="3" fill="#a29bfe"/><rect x="11" y="1.5652878182009546" width="1" height="4.434712181799045" fill="#a29bfe"/><rect x="12" y="1.00085279391699" width="1" height="4.99914720608301" fill="#a29bfe"/><rect x="13" y="1.6490736388976988" width="1" height="4.350926361102301" fill="#a29bfe"/><rect x="14" y="3.1167482868551604" width="1" height="2.8832517131448396" fill="#a29bfe"/><text x="23" y="23.5" font-size="1.5" fill="#2c3e50" opacity="0.3" text-anchor="end">#4496</text></svg>