<svg xmlns="http://www.w3.org/2000/svg" width="480" height="480" viewBox="0 0 24 24"><style>rect{shape-rendering:crispEdges;}</style><rect width="24" height="24" fill="#8e44ad"/><rect x="0" y="0" width="0.5" height="24" fill="#74b9ff" opacity="0.15"/><rect x="0" y="0" width="24" height="0.5" fill="#74b9ff" opacity="0.15"/><rect x="4" y="0" width="0.5" height="24" fill="#74b9ff" opacity="0.15"/><rect x="0" y="4" width="24" height="0.5" fill="#74b9ff" opacity="0.15"/><rect x="8" y="0" width="0.5" height="24" fill="#74b9ff" opacity="0.15"/><rect x="0" y="8" width="24" height="0.5" fill="#74b9ff" opacity="0.15"/><rect x="12" y="0" width="0.5" height="24" fill="#74b9ff" opacity="0.15"/><rect x="0" y="12" width="24" height="0.5" fill="#74b9ff" opacity="0.15"/><rect x="16" y="0" width="0.5" height="24" fill="#74b9ff" opacity="0.15"/><rect x="0" y="16" width="24" height="0.5" fill="#74b9ff" opacity="0.15"/><rect x="20" y="0" width="0.5" height="24" fill="#74b9ff" opacity="0.15"/><rect x="0" y="20" width="24" height="0.5" fill="#74b9ff" opacity="0.15"/><polygon points="12,6 18,17 6,17" fill="#c0392b"/><polygon points="12,6 18,17 6,17" fill="none" stroke="#8d0600" stroke-width="0.5"/><circle cx="8" cy="11" r="2" fill="#00ff00"/><circle cx="16" cy="11" r="2" fill="#00ff00"/><circle cx="8" cy="11" r="1" fill="#000"/><circle cx="16" cy="11" r="1" fill="#000"/><polygon points="6,7 3,2 7,5" fill="#74b9ff"/><polygon points="18,7 21,2 17,5" fill="#74b9ff"/><text x="23" y="23.5" font-size="1.5" fill="#8e44ad" opacity="0.3" text-anchor="end">#4633</text></svg>