<svg xmlns="http://www.w3.org/2000/svg" width="480" height="480" viewBox="0 0 24 24"><style>rect{shape-rendering:crispEdges;}</style><rect width="24" height="24" fill="#9b59b6"/><rect x="0" y="0" width="0.5" height="24" fill="#5f27cd" opacity="0.15"/><rect x="0" y="0" width="24" height="0.5" fill="#5f27cd" opacity="0.15"/><rect x="4" y="0" width="0.5" height="24" fill="#5f27cd" opacity="0.15"/><rect x="0" y="4" width="24" height="0.5" fill="#5f27cd" opacity="0.15"/><rect x="8" y="0" width="0.5" height="24" fill="#5f27cd" opacity="0.15"/><rect x="0" y="8" width="24" height="0.5" fill="#5f27cd" opacity="0.15"/><rect x="12" y="0" width="0.5" height="24" fill="#5f27cd" opacity="0.15"/><rect x="0" y="12" width="24" height="0.5" fill="#5f27cd" opacity="0.15"/><rect x="16" y="0" width="0.5" height="24" fill="#5f27cd" opacity="0.15"/><rect x="0" y="16" width="24" height="0.5" fill="#5f27cd" opacity="0.15"/><rect x="20" y="0" width="0.5" height="24" fill="#5f27cd" opacity="0.15"/><rect x="0" y="20" width="24" height="0.5" fill="#5f27cd" opacity="0.15"/><polygon points="12,6 18,12 12,18 6,12" fill="#27ae60"/><polygon points="12,6 18,12 12,18 6,12" fill="none" stroke="#007b2d" stroke-width="0.5"/><circle cx="12" cy="11" r="1.5" fill="#000000"/><circle cx="12" cy="11" r="0.75" fill="#000"/><polygon points="6,7 3,2 7,5" fill="#5f27cd"/><polygon points="18,7 21,2 17,5" fill="#5f27cd"/><text x="23" y="23.5" font-size="1.5" fill="#9b59b6" opacity="0.3" text-anchor="end">#4729</text></svg>