<svg xmlns="http://www.w3.org/2000/svg" width="480" height="480" viewBox="0 0 24 24"><style>rect{shape-rendering:crispEdges;}</style><rect width="24" height="24" fill="#34495e"/><rect x="0" y="0" width="0.5" height="24" fill="#00cec9" opacity="0.15"/><rect x="0" y="0" width="24" height="0.5" fill="#00cec9" opacity="0.15"/><rect x="4" y="0" width="0.5" height="24" fill="#00cec9" opacity="0.15"/><rect x="0" y="4" width="24" height="0.5" fill="#00cec9" opacity="0.15"/><rect x="8" y="0" width="0.5" height="24" fill="#00cec9" opacity="0.15"/><rect x="0" y="8" width="24" height="0.5" fill="#00cec9" opacity="0.15"/><rect x="12" y="0" width="0.5" height="24" fill="#00cec9" opacity="0.15"/><rect x="0" y="12" width="24" height="0.5" fill="#00cec9" opacity="0.15"/><rect x="16" y="0" width="0.5" height="24" fill="#00cec9" opacity="0.15"/><rect x="0" y="16" width="24" height="0.5" fill="#00cec9" opacity="0.15"/><rect x="20" y="0" width="0.5" height="24" fill="#00cec9" opacity="0.15"/><rect x="0" y="20" width="24" height="0.5" fill="#00cec9" opacity="0.15"/><polygon points="12,6 13.76335575687742,9.572949016875157 17.706339097770922,10.145898033750315 14.853169548885461,12.927050983124841 15.526711513754838,16.854101966249686 12,15 8.473288486245162,16.854101966249686 9.146830451114539,12.927050983124843 6.293660902229078,10.145898033750317 10.23664424312258,9.572949016875159" fill="#ecf0f1"/><polygon points="12,6 13.76335575687742,9.572949016875157 17.706339097770922,10.145898033750315 14.853169548885461,12.927050983124841 15.526711513754838,16.854101966249686 12,15 8.473288486245162,16.854101966249686 9.146830451114539,12.927050983124843 6.293660902229078,10.145898033750317 10.23664424312258,9.572949016875159" fill="none" stroke="#b9bdbe" stroke-width="0.5"/><circle cx="8" cy="11" r="2" fill="#000000"/><circle cx="16" cy="11" r="2" fill="#000000"/><circle cx="8" cy="11" r="1" fill="#000"/><circle cx="16" cy="11" r="1" fill="#000"/><ellipse cx="12" cy="3" rx="5" ry="1.5" fill="none" stroke="#00cec9" stroke-width="1"/><text x="23" y="23.5" font-size="1.5" fill="#34495e" opacity="0.3" text-anchor="end">#480</text></svg>