<svg xmlns="http://www.w3.org/2000/svg" width="480" height="480" viewBox="0 0 24 24"><style>rect{shape-rendering:crispEdges;}</style><rect width="24" height="24" fill="#c0392b"/><rect x="0" y="0" width="0.5" height="24" fill="#fdcb6e" opacity="0.15"/><rect x="0" y="0" width="24" height="0.5" fill="#fdcb6e" opacity="0.15"/><rect x="4" y="0" width="0.5" height="24" fill="#fdcb6e" opacity="0.15"/><rect x="0" y="4" width="24" height="0.5" fill="#fdcb6e" opacity="0.15"/><rect x="8" y="0" width="0.5" height="24" fill="#fdcb6e" opacity="0.15"/><rect x="0" y="8" width="24" height="0.5" fill="#fdcb6e" opacity="0.15"/><rect x="12" y="0" width="0.5" height="24" fill="#fdcb6e" opacity="0.15"/><rect x="0" y="12" width="24" height="0.5" fill="#fdcb6e" opacity="0.15"/><rect x="16" y="0" width="0.5" height="24" fill="#fdcb6e" opacity="0.15"/><rect x="0" y="16" width="24" height="0.5" fill="#fdcb6e" opacity="0.15"/><rect x="20" y="0" width="0.5" height="24" fill="#fdcb6e" opacity="0.15"/><rect x="0" y="20" width="24" height="0.5" fill="#fdcb6e" opacity="0.15"/><rect x="7" y="7" width="10" height="10" fill="#e67e22"/><rect x="7" y="7" width="10" height="1" fill="#b34b00"/><rect x="7" y="7" width="1" height="10" fill="#b34b00"/><circle cx="8" cy="11" r="2" fill="#ff6600"/><circle cx="16" cy="11" r="2" fill="#ff6600"/><circle cx="8" cy="11" r="1" fill="#000"/><circle cx="16" cy="11" r="1" fill="#000"/><polygon points="6,7 3,2 7,5" fill="#fdcb6e"/><polygon points="18,7 21,2 17,5" fill="#fdcb6e"/><text x="23" y="23.5" font-size="1.5" fill="#c0392b" opacity="0.3" text-anchor="end">#4977</text></svg>