<svg xmlns="http://www.w3.org/2000/svg" width="480" height="480" viewBox="0 0 24 24"><style>rect{shape-rendering:crispEdges;}</style><rect width="24" height="24" fill="#95a5a6"/><rect x="0" y="0" width="2" height="2" fill="#6c5ce7" opacity="0.15"/><rect x="0" y="8" width="2" height="2" fill="#6c5ce7" opacity="0.15"/><rect x="0" y="16" width="2" height="2" fill="#6c5ce7" opacity="0.15"/><rect x="4" y="4" width="2" height="2" fill="#6c5ce7" opacity="0.15"/><rect x="4" y="12" width="2" height="2" fill="#6c5ce7" opacity="0.15"/><rect x="4" y="20" width="2" height="2" fill="#6c5ce7" opacity="0.15"/><rect x="8" y="0" width="2" height="2" fill="#6c5ce7" opacity="0.15"/><rect x="8" y="8" width="2" height="2" fill="#6c5ce7" opacity="0.15"/><rect x="8" y="16" width="2" height="2" fill="#6c5ce7" opacity="0.15"/><rect x="12" y="4" width="2" height="2" fill="#6c5ce7" opacity="0.15"/><rect x="12" y="12" width="2" height="2" fill="#6c5ce7" opacity="0.15"/><rect x="12" y="20" width="2" height="2" fill="#6c5ce7" opacity="0.15"/><rect x="16" y="0" width="2" height="2" fill="#6c5ce7" opacity="0.15"/><rect x="16" y="8" width="2" height="2" fill="#6c5ce7" opacity="0.15"/><rect x="16" y="16" width="2" height="2" fill="#6c5ce7" opacity="0.15"/><rect x="20" y="4" width="2" height="2" fill="#6c5ce7" opacity="0.15"/><rect x="20" y="12" width="2" height="2" fill="#6c5ce7" opacity="0.15"/><rect x="20" y="20" width="2" height="2" fill="#6c5ce7" opacity="0.15"/><circle cx="12" cy="12" r="5" fill="#ffffff"/><circle cx="12" cy="12" r="5" fill="none" stroke="#cccccc" stroke-width="0.5"/><circle cx="12" cy="11" r="1.5" fill="#00ff00"/><circle cx="12" cy="11" r="0.75" fill="#000"/><rect x="6" y="4" width="12" height="1" fill="#6c5ce7"/><rect x="8" y="0" width="8" height="4" fill="#6c5ce7"/><text x="23" y="23.5" font-size="1.5" fill="#95a5a6" opacity="0.3" text-anchor="end">#4999</text></svg>