<svg xmlns="http://www.w3.org/2000/svg" width="480" height="480" viewBox="0 0 24 24"><style>rect{shape-rendering:crispEdges;}</style><rect width="24" height="24" fill="#e67e22"/><polygon points="12,6 13.76335575687742,9.572949016875157 17.706339097770922,10.145898033750315 14.853169548885461,12.927050983124841 15.526711513754838,16.854101966249686 12,15 8.473288486245162,16.854101966249686 9.146830451114539,12.927050983124843 6.293660902229078,10.145898033750317 10.23664424312258,9.572949016875159" fill="#34495e"/><polygon points="12,6 13.76335575687742,9.572949016875157 17.706339097770922,10.145898033750315 14.853169548885461,12.927050983124841 15.526711513754838,16.854101966249686 12,15 8.473288486245162,16.854101966249686 9.146830451114539,12.927050983124843 6.293660902229078,10.145898033750317 10.23664424312258,9.572949016875159" fill="none" stroke="#01162b" stroke-width="0.5"/><circle cx="8" cy="11" r="1.5" fill="#00ffff"/><circle cx="16" cy="11" r="1.5" fill="#00ffff"/><circle cx="8" cy="11" r="0.75" fill="#000"/><circle cx="16" cy="11" r="0.75" fill="#000"/><line x1="12" y1="6" x2="12" y2="1" stroke="#74b9ff" stroke-width="0.8"/><circle cx="12" cy="0" r="1.5" fill="#74b9ff"/><text x="23" y="23.5" font-size="1.5" fill="#e67e22" opacity="0.3" text-anchor="end">#5023</text></svg>