<svg xmlns="http://www.w3.org/2000/svg" width="480" height="480" viewBox="0 0 24 24"><style>rect{shape-rendering:crispEdges;}</style><rect width="24" height="24" fill="#7f8c8d"/><rect x="0" y="0" width="1" height="24" fill="#ee5a24" opacity="0.15"/><rect x="3" y="0" width="1" height="24" fill="#ee5a24" opacity="0.15"/><rect x="6" y="0" width="1" height="24" fill="#ee5a24" opacity="0.15"/><rect x="9" y="0" width="1" height="24" fill="#ee5a24" opacity="0.15"/><rect x="12" y="0" width="1" height="24" fill="#ee5a24" opacity="0.15"/><rect x="15" y="0" width="1" height="24" fill="#ee5a24" opacity="0.15"/><rect x="18" y="0" width="1" height="24" fill="#ee5a24" opacity="0.15"/><rect x="21" y="0" width="1" height="24" fill="#ee5a24" opacity="0.15"/><polygon points="12,6 18,17 6,17" fill="#f5f5f5"/><polygon points="12,6 18,17 6,17" fill="none" stroke="#c2c2c2" stroke-width="0.5"/><circle cx="12" cy="11" r="1.5" fill="#6600ff"/><circle cx="12" cy="11" r="0.75" fill="#000"/><line x1="12" y1="6" x2="12" y2="1" stroke="#ee5a24" stroke-width="0.8"/><circle cx="12" cy="0" r="1.5" fill="#ee5a24"/><text x="23" y="23.5" font-size="1.5" fill="#7f8c8d" opacity="0.3" text-anchor="end">#5171</text></svg>