<svg xmlns="http://www.w3.org/2000/svg" width="480" height="480" viewBox="0 0 24 24"><style>rect{shape-rendering:crispEdges;}</style><rect width="24" height="24" fill="#1abc9c"/><circle cx="2" cy="2" r="0.5" fill="#ff9ff3" opacity="0.2"/><circle cx="2" cy="6" r="0.5" fill="#ff9ff3" opacity="0.2"/><circle cx="2" cy="10" r="0.5" fill="#ff9ff3" opacity="0.2"/><circle cx="2" cy="14" r="0.5" fill="#ff9ff3" opacity="0.2"/><circle cx="2" cy="18" r="0.5" fill="#ff9ff3" opacity="0.2"/><circle cx="2" cy="22" r="0.5" fill="#ff9ff3" opacity="0.2"/><circle cx="6" cy="2" r="0.5" fill="#ff9ff3" opacity="0.2"/><circle cx="6" cy="6" r="0.5" fill="#ff9ff3" opacity="0.2"/><circle cx="6" cy="10" r="0.5" fill="#ff9ff3" opacity="0.2"/><circle cx="6" cy="14" r="0.5" fill="#ff9ff3" opacity="0.2"/><circle cx="6" cy="18" r="0.5" fill="#ff9ff3" opacity="0.2"/><circle cx="6" cy="22" r="0.5" fill="#ff9ff3" opacity="0.2"/><circle cx="10" cy="2" r="0.5" fill="#ff9ff3" opacity="0.2"/><circle cx="10" cy="6" r="0.5" fill="#ff9ff3" opacity="0.2"/><circle cx="10" cy="10" r="0.5" fill="#ff9ff3" opacity="0.2"/><circle cx="10" cy="14" r="0.5" fill="#ff9ff3" opacity="0.2"/><circle cx="10" cy="18" r="0.5" fill="#ff9ff3" opacity="0.2"/><circle cx="10" cy="22" r="0.5" fill="#ff9ff3" opacity="0.2"/><circle cx="14" cy="2" r="0.5" fill="#ff9ff3" opacity="0.2"/><circle cx="14" cy="6" r="0.5" fill="#ff9ff3" opacity="0.2"/><circle cx="14" cy="10" r="0.5" fill="#ff9ff3" opacity="0.2"/><circle cx="14" cy="14" r="0.5" fill="#ff9ff3" opacity="0.2"/><circle cx="14" cy="18" r="0.5" fill="#ff9ff3" opacity="0.2"/><circle cx="14" cy="22" r="0.5" fill="#ff9ff3" opacity="0.2"/><circle cx="18" cy="2" r="0.5" fill="#ff9ff3" opacity="0.2"/><circle cx="18" cy="6" r="0.5" fill="#ff9ff3" opacity="0.2"/><circle cx="18" cy="10" r="0.5" fill="#ff9ff3" opacity="0.2"/><circle cx="18" cy="14" r="0.5" fill="#ff9ff3" opacity="0.2"/><circle cx="18" cy="18" r="0.5" fill="#ff9ff3" opacity="0.2"/><circle cx="18" cy="22" r="0.5" fill="#ff9ff3" opacity="0.2"/><circle cx="22" cy="2" r="0.5" fill="#ff9ff3" opacity="0.2"/><circle cx="22" cy="6" r="0.5" fill="#ff9ff3" opacity="0.2"/><circle cx="22" cy="10" r="0.5" fill="#ff9ff3" opacity="0.2"/><circle cx="22" cy="14" r="0.5" fill="#ff9ff3" opacity="0.2"/><circle cx="22" cy="18" r="0.5" fill="#ff9ff3" opacity="0.2"/><circle cx="22" cy="22" r="0.5" fill="#ff9ff3" opacity="0.2"/><path d="M7 17 L7 10 A5 5 0 0 1 17 10 L17 17 L15 15 L13 17 L11 15 L9 17 Z" fill="#34495e"/><circle cx="9" cy="11" r="1" fill="#00ffff"/><circle cx="15" cy="11" r="1" fill="#00ffff"/><circle cx="9" cy="11" r="0.5" fill="#000"/><circle cx="15" cy="11" r="0.5" fill="#000"/><rect x="7" y="4" width="10" height="2" fill="#ff9ff3"/><polygon points="8,4 8,1 10,3 12,0 14,3 16,1 16,4" fill="#ff9ff3"/><text x="23" y="23.5" font-size="1.5" fill="#1abc9c" opacity="0.3" text-anchor="end">#5320</text></svg>