<svg xmlns="http://www.w3.org/2000/svg" width="480" height="480" viewBox="0 0 24 24"><style>rect{shape-rendering:crispEdges;}</style><rect width="24" height="24" fill="#0f3460"/><circle cx="2" cy="2" r="0.5" fill="#ff6b6b" opacity="0.2"/><circle cx="2" cy="6" r="0.5" fill="#ff6b6b" opacity="0.2"/><circle cx="2" cy="10" r="0.5" fill="#ff6b6b" opacity="0.2"/><circle cx="2" cy="14" r="0.5" fill="#ff6b6b" opacity="0.2"/><circle cx="2" cy="18" r="0.5" fill="#ff6b6b" opacity="0.2"/><circle cx="2" cy="22" r="0.5" fill="#ff6b6b" opacity="0.2"/><circle cx="6" cy="2" r="0.5" fill="#ff6b6b" opacity="0.2"/><circle cx="6" cy="6" r="0.5" fill="#ff6b6b" opacity="0.2"/><circle cx="6" cy="10" r="0.5" fill="#ff6b6b" opacity="0.2"/><circle cx="6" cy="14" r="0.5" fill="#ff6b6b" opacity="0.2"/><circle cx="6" cy="18" r="0.5" fill="#ff6b6b" opacity="0.2"/><circle cx="6" cy="22" r="0.5" fill="#ff6b6b" opacity="0.2"/><circle cx="10" cy="2" r="0.5" fill="#ff6b6b" opacity="0.2"/><circle cx="10" cy="6" r="0.5" fill="#ff6b6b" opacity="0.2"/><circle cx="10" cy="10" r="0.5" fill="#ff6b6b" opacity="0.2"/><circle cx="10" cy="14" r="0.5" fill="#ff6b6b" opacity="0.2"/><circle cx="10" cy="18" r="0.5" fill="#ff6b6b" opacity="0.2"/><circle cx="10" cy="22" r="0.5" fill="#ff6b6b" opacity="0.2"/><circle cx="14" cy="2" r="0.5" fill="#ff6b6b" opacity="0.2"/><circle cx="14" cy="6" r="0.5" fill="#ff6b6b" opacity="0.2"/><circle cx="14" cy="10" r="0.5" fill="#ff6b6b" opacity="0.2"/><circle cx="14" cy="14" r="0.5" fill="#ff6b6b" opacity="0.2"/><circle cx="14" cy="18" r="0.5" fill="#ff6b6b" opacity="0.2"/><circle cx="14" cy="22" r="0.5" fill="#ff6b6b" opacity="0.2"/><circle cx="18" cy="2" r="0.5" fill="#ff6b6b" opacity="0.2"/><circle cx="18" cy="6" r="0.5" fill="#ff6b6b" opacity="0.2"/><circle cx="18" cy="10" r="0.5" fill="#ff6b6b" opacity="0.2"/><circle cx="18" cy="14" r="0.5" fill="#ff6b6b" opacity="0.2"/><circle cx="18" cy="18" r="0.5" fill="#ff6b6b" opacity="0.2"/><circle cx="18" cy="22" r="0.5" fill="#ff6b6b" opacity="0.2"/><circle cx="22" cy="2" r="0.5" fill="#ff6b6b" opacity="0.2"/><circle cx="22" cy="6" r="0.5" fill="#ff6b6b" opacity="0.2"/><circle cx="22" cy="10" r="0.5" fill="#ff6b6b" opacity="0.2"/><circle cx="22" cy="14" r="0.5" fill="#ff6b6b" opacity="0.2"/><circle cx="22" cy="18" r="0.5" fill="#ff6b6b" opacity="0.2"/><circle cx="22" cy="22" r="0.5" fill="#ff6b6b" opacity="0.2"/><circle cx="12" cy="12" r="5" fill="#ffffff"/><circle cx="12" cy="12" r="5" fill="none" stroke="#cccccc" stroke-width="0.5"/><circle cx="9" cy="11" r="0.5" fill="#ff6600"/><circle cx="15" cy="11" r="0.5" fill="#ff6600"/><circle cx="9" cy="11" r="0.3" fill="#000"/><circle cx="15" cy="11" r="0.3" fill="#000"/><rect x="7" y="4" width="10" height="2" fill="#ff6b6b"/><polygon points="8,4 8,1 10,3 12,0 14,3 16,1 16,4" fill="#ff6b6b"/><text x="23" y="23.5" font-size="1.5" fill="#0f3460" opacity="0.3" text-anchor="end">#5351</text></svg>