<svg xmlns="http://www.w3.org/2000/svg" width="480" height="480" viewBox="0 0 24 24"><style>rect{shape-rendering:crispEdges;}</style><rect width="24" height="24" fill="#e67e22"/><rect x="0" y="0" width="0.5" height="24" fill="#00cec9" opacity="0.15"/><rect x="0" y="0" width="24" height="0.5" fill="#00cec9" opacity="0.15"/><rect x="4" y="0" width="0.5" height="24" fill="#00cec9" opacity="0.15"/><rect x="0" y="4" width="24" height="0.5" fill="#00cec9" opacity="0.15"/><rect x="8" y="0" width="0.5" height="24" fill="#00cec9" opacity="0.15"/><rect x="0" y="8" width="24" height="0.5" fill="#00cec9" opacity="0.15"/><rect x="12" y="0" width="0.5" height="24" fill="#00cec9" opacity="0.15"/><rect x="0" y="12" width="24" height="0.5" fill="#00cec9" opacity="0.15"/><rect x="16" y="0" width="0.5" height="24" fill="#00cec9" opacity="0.15"/><rect x="0" y="16" width="24" height="0.5" fill="#00cec9" opacity="0.15"/><rect x="20" y="0" width="0.5" height="24" fill="#00cec9" opacity="0.15"/><rect x="0" y="20" width="24" height="0.5" fill="#00cec9" opacity="0.15"/><circle cx="12" cy="12" r="5" fill="#f5f5f5"/><circle cx="12" cy="12" r="5" fill="none" stroke="#c2c2c2" stroke-width="0.5"/><circle cx="10" cy="11" r="0.5" fill="#00ffff"/><circle cx="14" cy="11" r="0.5" fill="#00ffff"/><circle cx="10" cy="11" r="0.3" fill="#000"/><circle cx="14" cy="11" r="0.3" fill="#000"/><line x1="12" y1="6" x2="12" y2="1" stroke="#00cec9" stroke-width="0.8"/><circle cx="12" cy="0" r="1.5" fill="#00cec9"/><text x="23" y="23.5" font-size="1.5" fill="#e67e22" opacity="0.3" text-anchor="end">#5491</text></svg>