<svg xmlns="http://www.w3.org/2000/svg" width="480" height="480" viewBox="0 0 24 24"><style>rect{shape-rendering:crispEdges;}</style><rect width="24" height="24" fill="#7f8c8d"/><circle cx="2" cy="2" r="0.5" fill="#48dbfb" opacity="0.2"/><circle cx="2" cy="6" r="0.5" fill="#48dbfb" opacity="0.2"/><circle cx="2" cy="10" r="0.5" fill="#48dbfb" opacity="0.2"/><circle cx="2" cy="14" r="0.5" fill="#48dbfb" opacity="0.2"/><circle cx="2" cy="18" r="0.5" fill="#48dbfb" opacity="0.2"/><circle cx="2" cy="22" r="0.5" fill="#48dbfb" opacity="0.2"/><circle cx="6" cy="2" r="0.5" fill="#48dbfb" opacity="0.2"/><circle cx="6" cy="6" r="0.5" fill="#48dbfb" opacity="0.2"/><circle cx="6" cy="10" r="0.5" fill="#48dbfb" opacity="0.2"/><circle cx="6" cy="14" r="0.5" fill="#48dbfb" opacity="0.2"/><circle cx="6" cy="18" r="0.5" fill="#48dbfb" opacity="0.2"/><circle cx="6" cy="22" r="0.5" fill="#48dbfb" opacity="0.2"/><circle cx="10" cy="2" r="0.5" fill="#48dbfb" opacity="0.2"/><circle cx="10" cy="6" r="0.5" fill="#48dbfb" opacity="0.2"/><circle cx="10" cy="10" r="0.5" fill="#48dbfb" opacity="0.2"/><circle cx="10" cy="14" r="0.5" fill="#48dbfb" opacity="0.2"/><circle cx="10" cy="18" r="0.5" fill="#48dbfb" opacity="0.2"/><circle cx="10" cy="22" r="0.5" fill="#48dbfb" opacity="0.2"/><circle cx="14" cy="2" r="0.5" fill="#48dbfb" opacity="0.2"/><circle cx="14" cy="6" r="0.5" fill="#48dbfb" opacity="0.2"/><circle cx="14" cy="10" r="0.5" fill="#48dbfb" opacity="0.2"/><circle cx="14" cy="14" r="0.5" fill="#48dbfb" opacity="0.2"/><circle cx="14" cy="18" r="0.5" fill="#48dbfb" opacity="0.2"/><circle cx="14" cy="22" r="0.5" fill="#48dbfb" opacity="0.2"/><circle cx="18" cy="2" r="0.5" fill="#48dbfb" opacity="0.2"/><circle cx="18" cy="6" r="0.5" fill="#48dbfb" opacity="0.2"/><circle cx="18" cy="10" r="0.5" fill="#48dbfb" opacity="0.2"/><circle cx="18" cy="14" r="0.5" fill="#48dbfb" opacity="0.2"/><circle cx="18" cy="18" r="0.5" fill="#48dbfb" opacity="0.2"/><circle cx="18" cy="22" r="0.5" fill="#48dbfb" opacity="0.2"/><circle cx="22" cy="2" r="0.5" fill="#48dbfb" opacity="0.2"/><circle cx="22" cy="6" r="0.5" fill="#48dbfb" opacity="0.2"/><circle cx="22" cy="10" r="0.5" fill="#48dbfb" opacity="0.2"/><circle cx="22" cy="14" r="0.5" fill="#48dbfb" opacity="0.2"/><circle cx="22" cy="18" r="0.5" fill="#48dbfb" opacity="0.2"/><circle cx="22" cy="22" r="0.5" fill="#48dbfb" opacity="0.2"/><path d="M12 16 C6 12 6 8 12 10 C18 8 18 12 12 16" fill="#16a085"/><circle cx="7" cy="11" r="1" fill="#ffff00"/><circle cx="17" cy="11" r="1" fill="#ffff00"/><circle cx="7" cy="11" r="0.5" fill="#000"/><circle cx="17" cy="11" r="0.5" fill="#000"/><ellipse cx="9" cy="5" rx="2" ry="1.5" fill="#48dbfb"/><ellipse cx="15" cy="5" rx="2" ry="1.5" fill="#48dbfb"/><circle cx="12" cy="5" r="1" fill="#48dbfb"/><text x="23" y="23.5" font-size="1.5" fill="#7f8c8d" opacity="0.3" text-anchor="end">#5543</text></svg>