<svg xmlns="http://www.w3.org/2000/svg" width="480" height="480" viewBox="0 0 24 24"><style>rect{shape-rendering:crispEdges;}</style><rect width="24" height="24" fill="#ecf0f1"/><rect x="0" y="0" width="0.5" height="24" fill="#a29bfe" opacity="0.15"/><rect x="0" y="0" width="24" height="0.5" fill="#a29bfe" opacity="0.15"/><rect x="4" y="0" width="0.5" height="24" fill="#a29bfe" opacity="0.15"/><rect x="0" y="4" width="24" height="0.5" fill="#a29bfe" opacity="0.15"/><rect x="8" y="0" width="0.5" height="24" fill="#a29bfe" opacity="0.15"/><rect x="0" y="8" width="24" height="0.5" fill="#a29bfe" opacity="0.15"/><rect x="12" y="0" width="0.5" height="24" fill="#a29bfe" opacity="0.15"/><rect x="0" y="12" width="24" height="0.5" fill="#a29bfe" opacity="0.15"/><rect x="16" y="0" width="0.5" height="24" fill="#a29bfe" opacity="0.15"/><rect x="0" y="16" width="24" height="0.5" fill="#a29bfe" opacity="0.15"/><rect x="20" y="0" width="0.5" height="24" fill="#a29bfe" opacity="0.15"/><rect x="0" y="20" width="24" height="0.5" fill="#a29bfe" opacity="0.15"/><rect x="7" y="7" width="10" height="10" fill="#ecf0f1"/><rect x="7" y="7" width="10" height="1" fill="#b9bdbe"/><rect x="7" y="7" width="1" height="10" fill="#b9bdbe"/><circle cx="9" cy="11" r="0.5" fill="#ff00ff"/><circle cx="15" cy="11" r="0.5" fill="#ff00ff"/><circle cx="9" cy="11" r="0.3" fill="#000"/><circle cx="15" cy="11" r="0.3" fill="#000"/><line x1="12" y1="6" x2="12" y2="1" stroke="#a29bfe" stroke-width="0.8"/><circle cx="12" cy="0" r="1.5" fill="#a29bfe"/><text x="23" y="23.5" font-size="1.5" fill="#ecf0f1" opacity="0.3" text-anchor="end">#5590</text></svg>