<svg xmlns="http://www.w3.org/2000/svg" width="480" height="480" viewBox="0 0 24 24"><style>rect{shape-rendering:crispEdges;}</style><rect width="24" height="24" fill="#1abc9c"/><rect x="0" y="0" width="2" height="2" fill="#ff9f43" opacity="0.15"/><rect x="0" y="8" width="2" height="2" fill="#ff9f43" opacity="0.15"/><rect x="0" y="16" width="2" height="2" fill="#ff9f43" opacity="0.15"/><rect x="4" y="4" width="2" height="2" fill="#ff9f43" opacity="0.15"/><rect x="4" y="12" width="2" height="2" fill="#ff9f43" opacity="0.15"/><rect x="4" y="20" width="2" height="2" fill="#ff9f43" opacity="0.15"/><rect x="8" y="0" width="2" height="2" fill="#ff9f43" opacity="0.15"/><rect x="8" y="8" width="2" height="2" fill="#ff9f43" opacity="0.15"/><rect x="8" y="16" width="2" height="2" fill="#ff9f43" opacity="0.15"/><rect x="12" y="4" width="2" height="2" fill="#ff9f43" opacity="0.15"/><rect x="12" y="12" width="2" height="2" fill="#ff9f43" opacity="0.15"/><rect x="12" y="20" width="2" height="2" fill="#ff9f43" opacity="0.15"/><rect x="16" y="0" width="2" height="2" fill="#ff9f43" opacity="0.15"/><rect x="16" y="8" width="2" height="2" fill="#ff9f43" opacity="0.15"/><rect x="16" y="16" width="2" height="2" fill="#ff9f43" opacity="0.15"/><rect x="20" y="4" width="2" height="2" fill="#ff9f43" opacity="0.15"/><rect x="20" y="12" width="2" height="2" fill="#ff9f43" opacity="0.15"/><rect x="20" y="20" width="2" height="2" fill="#ff9f43" opacity="0.15"/><path d="M12 16 C6 12 6 8 12 10 C18 8 18 12 12 16" fill="#7f8c8d"/><circle cx="12" cy="11" r="1.5" fill="#0000ff"/><circle cx="12" cy="11" r="0.75" fill="#000"/><rect x="7" y="4" width="10" height="2" fill="#ff9f43"/><polygon points="8,4 8,1 10,3 12,0 14,3 16,1 16,4" fill="#ff9f43"/><text x="23" y="23.5" font-size="1.5" fill="#1abc9c" opacity="0.3" text-anchor="end">#5652</text></svg>