<svg xmlns="http://www.w3.org/2000/svg" width="480" height="480" viewBox="0 0 24 24"><style>rect{shape-rendering:crispEdges;}</style><rect width="24" height="24" fill="#f1c40f"/><circle cx="2" cy="2" r="0.5" fill="#54a0ff" opacity="0.2"/><circle cx="2" cy="6" r="0.5" fill="#54a0ff" opacity="0.2"/><circle cx="2" cy="10" r="0.5" fill="#54a0ff" opacity="0.2"/><circle cx="2" cy="14" r="0.5" fill="#54a0ff" opacity="0.2"/><circle cx="2" cy="18" r="0.5" fill="#54a0ff" opacity="0.2"/><circle cx="2" cy="22" r="0.5" fill="#54a0ff" opacity="0.2"/><circle cx="6" cy="2" r="0.5" fill="#54a0ff" opacity="0.2"/><circle cx="6" cy="6" r="0.5" fill="#54a0ff" opacity="0.2"/><circle cx="6" cy="10" r="0.5" fill="#54a0ff" opacity="0.2"/><circle cx="6" cy="14" r="0.5" fill="#54a0ff" opacity="0.2"/><circle cx="6" cy="18" r="0.5" fill="#54a0ff" opacity="0.2"/><circle cx="6" cy="22" r="0.5" fill="#54a0ff" opacity="0.2"/><circle cx="10" cy="2" r="0.5" fill="#54a0ff" opacity="0.2"/><circle cx="10" cy="6" r="0.5" fill="#54a0ff" opacity="0.2"/><circle cx="10" cy="10" r="0.5" fill="#54a0ff" opacity="0.2"/><circle cx="10" cy="14" r="0.5" fill="#54a0ff" opacity="0.2"/><circle cx="10" cy="18" r="0.5" fill="#54a0ff" opacity="0.2"/><circle cx="10" cy="22" r="0.5" fill="#54a0ff" opacity="0.2"/><circle cx="14" cy="2" r="0.5" fill="#54a0ff" opacity="0.2"/><circle cx="14" cy="6" r="0.5" fill="#54a0ff" opacity="0.2"/><circle cx="14" cy="10" r="0.5" fill="#54a0ff" opacity="0.2"/><circle cx="14" cy="14" r="0.5" fill="#54a0ff" opacity="0.2"/><circle cx="14" cy="18" r="0.5" fill="#54a0ff" opacity="0.2"/><circle cx="14" cy="22" r="0.5" fill="#54a0ff" opacity="0.2"/><circle cx="18" cy="2" r="0.5" fill="#54a0ff" opacity="0.2"/><circle cx="18" cy="6" r="0.5" fill="#54a0ff" opacity="0.2"/><circle cx="18" cy="10" r="0.5" fill="#54a0ff" opacity="0.2"/><circle cx="18" cy="14" r="0.5" fill="#54a0ff" opacity="0.2"/><circle cx="18" cy="18" r="0.5" fill="#54a0ff" opacity="0.2"/><circle cx="18" cy="22" r="0.5" fill="#54a0ff" opacity="0.2"/><circle cx="22" cy="2" r="0.5" fill="#54a0ff" opacity="0.2"/><circle cx="22" cy="6" r="0.5" fill="#54a0ff" opacity="0.2"/><circle cx="22" cy="10" r="0.5" fill="#54a0ff" opacity="0.2"/><circle cx="22" cy="14" r="0.5" fill="#54a0ff" opacity="0.2"/><circle cx="22" cy="18" r="0.5" fill="#54a0ff" opacity="0.2"/><circle cx="22" cy="22" r="0.5" fill="#54a0ff" opacity="0.2"/><polygon points="12,7 16.33012701892219,9.5 16.330127018922195,14.5 12,17 7.669872981077807,14.500000000000002 7.669872981077805,9.500000000000004" fill="#3498db"/><polygon points="12,7 16.33012701892219,9.5 16.330127018922195,14.5 12,17 7.669872981077807,14.500000000000002 7.669872981077805,9.500000000000004" fill="none" stroke="#0165a8" stroke-width="0.5"/><rect x="8" y="10" width="2" height="2" fill="#000000"/><rect x="14" y="10" width="2" height="2" fill="#000000"/><circle cx="9" cy="11" r="0.5" fill="#000"/><circle cx="15" cy="11" r="0.5" fill="#000"/><rect x="7" y="4" width="10" height="2" fill="#54a0ff"/><polygon points="8,4 8,1 10,3 12,0 14,3 16,1 16,4" fill="#54a0ff"/><text x="23" y="23.5" font-size="1.5" fill="#f1c40f" opacity="0.3" text-anchor="end">#5743</text></svg>