<svg xmlns="http://www.w3.org/2000/svg" width="480" height="480" viewBox="0 0 24 24"><style>rect{shape-rendering:crispEdges;}</style><rect width="24" height="24" fill="#f39c12"/><rect x="0" y="0" width="1" height="24" fill="#fdcb6e" opacity="0.15"/><rect x="3" y="0" width="1" height="24" fill="#fdcb6e" opacity="0.15"/><rect x="6" y="0" width="1" height="24" fill="#fdcb6e" opacity="0.15"/><rect x="9" y="0" width="1" height="24" fill="#fdcb6e" opacity="0.15"/><rect x="12" y="0" width="1" height="24" fill="#fdcb6e" opacity="0.15"/><rect x="15" y="0" width="1" height="24" fill="#fdcb6e" opacity="0.15"/><rect x="18" y="0" width="1" height="24" fill="#fdcb6e" opacity="0.15"/><rect x="21" y="0" width="1" height="24" fill="#fdcb6e" opacity="0.15"/><path d="M12 16 C6 12 6 8 12 10 C18 8 18 12 12 16" fill="#16a085"/><circle cx="10" cy="11" r="0.5" fill="#ffffff"/><circle cx="14" cy="11" r="0.5" fill="#ffffff"/><circle cx="10" cy="11" r="0.3" fill="#000"/><circle cx="14" cy="11" r="0.3" fill="#000"/><rect x="7" y="4" width="10" height="2" fill="#fdcb6e"/><polygon points="8,4 8,1 10,3 12,0 14,3 16,1 16,4" fill="#fdcb6e"/><text x="23" y="23.5" font-size="1.5" fill="#f39c12" opacity="0.3" text-anchor="end">#5948</text></svg>