<svg xmlns="http://www.w3.org/2000/svg" width="480" height="480" viewBox="0 0 24 24"><style>rect{shape-rendering:crispEdges;}</style><rect width="24" height="24" fill="#7f8c8d"/><rect x="0" y="0" width="2" height="2" fill="#00d2d3" opacity="0.15"/><rect x="0" y="8" width="2" height="2" fill="#00d2d3" opacity="0.15"/><rect x="0" y="16" width="2" height="2" fill="#00d2d3" opacity="0.15"/><rect x="4" y="4" width="2" height="2" fill="#00d2d3" opacity="0.15"/><rect x="4" y="12" width="2" height="2" fill="#00d2d3" opacity="0.15"/><rect x="4" y="20" width="2" height="2" fill="#00d2d3" opacity="0.15"/><rect x="8" y="0" width="2" height="2" fill="#00d2d3" opacity="0.15"/><rect x="8" y="8" width="2" height="2" fill="#00d2d3" opacity="0.15"/><rect x="8" y="16" width="2" height="2" fill="#00d2d3" opacity="0.15"/><rect x="12" y="4" width="2" height="2" fill="#00d2d3" opacity="0.15"/><rect x="12" y="12" width="2" height="2" fill="#00d2d3" opacity="0.15"/><rect x="12" y="20" width="2" height="2" fill="#00d2d3" opacity="0.15"/><rect x="16" y="0" width="2" height="2" fill="#00d2d3" opacity="0.15"/><rect x="16" y="8" width="2" height="2" fill="#00d2d3" opacity="0.15"/><rect x="16" y="16" width="2" height="2" fill="#00d2d3" opacity="0.15"/><rect x="20" y="4" width="2" height="2" fill="#00d2d3" opacity="0.15"/><rect x="20" y="12" width="2" height="2" fill="#00d2d3" opacity="0.15"/><rect x="20" y="20" width="2" height="2" fill="#00d2d3" opacity="0.15"/><polygon points="12,6 18,12 12,18 6,12" fill="#bdc3c7"/><polygon points="12,6 18,12 12,18 6,12" fill="none" stroke="#8a9094" stroke-width="0.5"/><circle cx="8" cy="11" r="2" fill="#6600ff"/><circle cx="16" cy="11" r="2" fill="#6600ff"/><circle cx="8" cy="11" r="1" fill="#000"/><circle cx="16" cy="11" r="1" fill="#000"/><rect x="7" y="4" width="10" height="2" fill="#00d2d3"/><polygon points="8,4 8,1 10,3 12,0 14,3 16,1 16,4" fill="#00d2d3"/><text x="23" y="23.5" font-size="1.5" fill="#7f8c8d" opacity="0.3" text-anchor="end">#6138</text></svg>