<svg xmlns="http://www.w3.org/2000/svg" width="480" height="480" viewBox="0 0 24 24"><style>rect{shape-rendering:crispEdges;}</style><rect width="24" height="24" fill="#0f3460"/><rect x="0" y="0" width="1" height="24" fill="#00d2d3" opacity="0.15"/><rect x="3" y="0" width="1" height="24" fill="#00d2d3" opacity="0.15"/><rect x="6" y="0" width="1" height="24" fill="#00d2d3" opacity="0.15"/><rect x="9" y="0" width="1" height="24" fill="#00d2d3" opacity="0.15"/><rect x="12" y="0" width="1" height="24" fill="#00d2d3" opacity="0.15"/><rect x="15" y="0" width="1" height="24" fill="#00d2d3" opacity="0.15"/><rect x="18" y="0" width="1" height="24" fill="#00d2d3" opacity="0.15"/><rect x="21" y="0" width="1" height="24" fill="#00d2d3" opacity="0.15"/><path d="M7 17 L7 10 A5 5 0 0 1 17 10 L17 17 L15 15 L13 17 L11 15 L9 17 Z" fill="#e74c3c"/><circle cx="9" cy="11" r="1" fill="#ff00ff"/><circle cx="15" cy="11" r="1" fill="#ff00ff"/><circle cx="9" cy="11" r="0.5" fill="#000"/><circle cx="15" cy="11" r="0.5" fill="#000"/><ellipse cx="12" cy="3" rx="5" ry="1.5" fill="none" stroke="#00d2d3" stroke-width="1"/><text x="23" y="23.5" font-size="1.5" fill="#0f3460" opacity="0.3" text-anchor="end">#6247</text></svg>