<svg xmlns="http://www.w3.org/2000/svg" width="480" height="480" viewBox="0 0 24 24"><style>rect{shape-rendering:crispEdges;}</style><rect width="24" height="24" fill="#c0392b"/><rect x="0" y="0" width="0.5" height="24" fill="#5f27cd" opacity="0.15"/><rect x="0" y="0" width="24" height="0.5" fill="#5f27cd" opacity="0.15"/><rect x="4" y="0" width="0.5" height="24" fill="#5f27cd" opacity="0.15"/><rect x="0" y="4" width="24" height="0.5" fill="#5f27cd" opacity="0.15"/><rect x="8" y="0" width="0.5" height="24" fill="#5f27cd" opacity="0.15"/><rect x="0" y="8" width="24" height="0.5" fill="#5f27cd" opacity="0.15"/><rect x="12" y="0" width="0.5" height="24" fill="#5f27cd" opacity="0.15"/><rect x="0" y="12" width="24" height="0.5" fill="#5f27cd" opacity="0.15"/><rect x="16" y="0" width="0.5" height="24" fill="#5f27cd" opacity="0.15"/><rect x="0" y="16" width="24" height="0.5" fill="#5f27cd" opacity="0.15"/><rect x="20" y="0" width="0.5" height="24" fill="#5f27cd" opacity="0.15"/><rect x="0" y="20" width="24" height="0.5" fill="#5f27cd" opacity="0.15"/><path d="M12 16 C6 12 6 8 12 10 C18 8 18 12 12 16" fill="#16a085"/><circle cx="8" cy="11" r="1.5" fill="#ffff00"/><circle cx="16" cy="11" r="1.5" fill="#ffff00"/><circle cx="8" cy="11" r="0.75" fill="#000"/><circle cx="16" cy="11" r="0.75" fill="#000"/><rect x="6" y="4" width="12" height="1" fill="#5f27cd"/><rect x="8" y="0" width="8" height="4" fill="#5f27cd"/><text x="23" y="23.5" font-size="1.5" fill="#c0392b" opacity="0.3" text-anchor="end">#6377</text></svg>