<svg xmlns="http://www.w3.org/2000/svg" width="480" height="480" viewBox="0 0 24 24"><style>rect{shape-rendering:crispEdges;}</style><rect width="24" height="24" fill="#8e44ad"/><rect x="0" y="0" width="1" height="24" fill="#fd79a8" opacity="0.15"/><rect x="3" y="0" width="1" height="24" fill="#fd79a8" opacity="0.15"/><rect x="6" y="0" width="1" height="24" fill="#fd79a8" opacity="0.15"/><rect x="9" y="0" width="1" height="24" fill="#fd79a8" opacity="0.15"/><rect x="12" y="0" width="1" height="24" fill="#fd79a8" opacity="0.15"/><rect x="15" y="0" width="1" height="24" fill="#fd79a8" opacity="0.15"/><rect x="18" y="0" width="1" height="24" fill="#fd79a8" opacity="0.15"/><rect x="21" y="0" width="1" height="24" fill="#fd79a8" opacity="0.15"/><path d="M7 17 L7 10 A5 5 0 0 1 17 10 L17 17 L15 15 L13 17 L11 15 L9 17 Z" fill="#3498db"/><circle cx="7" cy="11" r="1" fill="#ff0000"/><circle cx="17" cy="11" r="1" fill="#ff0000"/><circle cx="7" cy="11" r="0.5" fill="#000"/><circle cx="17" cy="11" r="0.5" fill="#000"/><rect x="6" y="4" width="12" height="1" fill="#fd79a8"/><rect x="8" y="0" width="8" height="4" fill="#fd79a8"/><text x="23" y="23.5" font-size="1.5" fill="#8e44ad" opacity="0.3" text-anchor="end">#6570</text></svg>