<svg xmlns="http://www.w3.org/2000/svg" width="480" height="480" viewBox="0 0 24 24"><style>rect{shape-rendering:crispEdges;}</style><rect width="24" height="24" fill="#bdc3c7"/><line x1="-24" y1="0" x2="0" y2="24" stroke="#ff9f43" stroke-width="0.5" opacity="0.15"/><line x1="-21" y1="0" x2="3" y2="24" stroke="#ff9f43" stroke-width="0.5" opacity="0.15"/><line x1="-18" y1="0" x2="6" y2="24" stroke="#ff9f43" stroke-width="0.5" opacity="0.15"/><line x1="-15" y1="0" x2="9" y2="24" stroke="#ff9f43" stroke-width="0.5" opacity="0.15"/><line x1="-12" y1="0" x2="12" y2="24" stroke="#ff9f43" stroke-width="0.5" opacity="0.15"/><line x1="-9" y1="0" x2="15" y2="24" stroke="#ff9f43" stroke-width="0.5" opacity="0.15"/><line x1="-6" y1="0" x2="18" y2="24" stroke="#ff9f43" stroke-width="0.5" opacity="0.15"/><line x1="-3" y1="0" x2="21" y2="24" stroke="#ff9f43" stroke-width="0.5" opacity="0.15"/><line x1="0" y1="0" x2="24" y2="24" stroke="#ff9f43" stroke-width="0.5" opacity="0.15"/><line x1="3" y1="0" x2="27" y2="24" stroke="#ff9f43" stroke-width="0.5" opacity="0.15"/><line x1="6" y1="0" x2="30" y2="24" stroke="#ff9f43" stroke-width="0.5" opacity="0.15"/><line x1="9" y1="0" x2="33" y2="24" stroke="#ff9f43" stroke-width="0.5" opacity="0.15"/><line x1="12" y1="0" x2="36" y2="24" stroke="#ff9f43" stroke-width="0.5" opacity="0.15"/><line x1="15" y1="0" x2="39" y2="24" stroke="#ff9f43" stroke-width="0.5" opacity="0.15"/><line x1="18" y1="0" x2="42" y2="24" stroke="#ff9f43" stroke-width="0.5" opacity="0.15"/><line x1="21" y1="0" x2="45" y2="24" stroke="#ff9f43" stroke-width="0.5" opacity="0.15"/><line x1="24" y1="0" x2="48" y2="24" stroke="#ff9f43" stroke-width="0.5" opacity="0.15"/><line x1="27" y1="0" x2="51" y2="24" stroke="#ff9f43" stroke-width="0.5" opacity="0.15"/><line x1="30" y1="0" x2="54" y2="24" stroke="#ff9f43" stroke-width="0.5" opacity="0.15"/><line x1="33" y1="0" x2="57" y2="24" stroke="#ff9f43" stroke-width="0.5" opacity="0.15"/><line x1="36" y1="0" x2="60" y2="24" stroke="#ff9f43" stroke-width="0.5" opacity="0.15"/><line x1="39" y1="0" x2="63" y2="24" stroke="#ff9f43" stroke-width="0.5" opacity="0.15"/><line x1="42" y1="0" x2="66" y2="24" stroke="#ff9f43" stroke-width="0.5" opacity="0.15"/><line x1="45" y1="0" x2="69" y2="24" stroke="#ff9f43" stroke-width="0.5" opacity="0.15"/><polygon points="12,7 16.33012701892219,9.5 16.330127018922195,14.5 12,17 7.669872981077807,14.500000000000002 7.669872981077805,9.500000000000004" fill="#ffffff"/><polygon points="12,7 16.33012701892219,9.5 16.330127018922195,14.5 12,17 7.669872981077807,14.500000000000002 7.669872981077805,9.500000000000004" fill="none" stroke="#cccccc" stroke-width="0.5"/><circle cx="12" cy="11" r="1.5" fill="#ff00ff"/><circle cx="12" cy="11" r="0.75" fill="#000"/><ellipse cx="9" cy="5" rx="2" ry="1.5" fill="#ff9f43"/><ellipse cx="15" cy="5" rx="2" ry="1.5" fill="#ff9f43"/><circle cx="12" cy="5" r="1" fill="#ff9f43"/><text x="23" y="23.5" font-size="1.5" fill="#bdc3c7" opacity="0.3" text-anchor="end">#6583</text></svg>