<svg xmlns="http://www.w3.org/2000/svg" width="480" height="480" viewBox="0 0 24 24"><style>rect{shape-rendering:crispEdges;}</style><rect width="24" height="24" fill="#bdc3c7"/><rect x="0" y="0" width="2" height="2" fill="#fdcb6e" opacity="0.15"/><rect x="0" y="8" width="2" height="2" fill="#fdcb6e" opacity="0.15"/><rect x="0" y="16" width="2" height="2" fill="#fdcb6e" opacity="0.15"/><rect x="4" y="4" width="2" height="2" fill="#fdcb6e" opacity="0.15"/><rect x="4" y="12" width="2" height="2" fill="#fdcb6e" opacity="0.15"/><rect x="4" y="20" width="2" height="2" fill="#fdcb6e" opacity="0.15"/><rect x="8" y="0" width="2" height="2" fill="#fdcb6e" opacity="0.15"/><rect x="8" y="8" width="2" height="2" fill="#fdcb6e" opacity="0.15"/><rect x="8" y="16" width="2" height="2" fill="#fdcb6e" opacity="0.15"/><rect x="12" y="4" width="2" height="2" fill="#fdcb6e" opacity="0.15"/><rect x="12" y="12" width="2" height="2" fill="#fdcb6e" opacity="0.15"/><rect x="12" y="20" width="2" height="2" fill="#fdcb6e" opacity="0.15"/><rect x="16" y="0" width="2" height="2" fill="#fdcb6e" opacity="0.15"/><rect x="16" y="8" width="2" height="2" fill="#fdcb6e" opacity="0.15"/><rect x="16" y="16" width="2" height="2" fill="#fdcb6e" opacity="0.15"/><rect x="20" y="4" width="2" height="2" fill="#fdcb6e" opacity="0.15"/><rect x="20" y="12" width="2" height="2" fill="#fdcb6e" opacity="0.15"/><rect x="20" y="20" width="2" height="2" fill="#fdcb6e" opacity="0.15"/><rect x="7" y="7" width="10" height="10" fill="#34495e"/><rect x="7" y="7" width="10" height="1" fill="#01162b"/><rect x="7" y="7" width="1" height="10" fill="#01162b"/><circle cx="8" cy="11" r="2" fill="#ffffff"/><circle cx="16" cy="11" r="2" fill="#ffffff"/><circle cx="8" cy="11" r="1" fill="#000"/><circle cx="16" cy="11" r="1" fill="#000"/><ellipse cx="12" cy="3" rx="5" ry="1.5" fill="none" stroke="#fdcb6e" stroke-width="1"/><text x="23" y="23.5" font-size="1.5" fill="#bdc3c7" opacity="0.3" text-anchor="end">#6586</text></svg>