<svg xmlns="http://www.w3.org/2000/svg" width="480" height="480" viewBox="0 0 24 24"><style>rect{shape-rendering:crispEdges;}</style><rect width="24" height="24" fill="#2c3e50"/><rect x="0" y="0" width="0.5" height="24" fill="#5f27cd" opacity="0.15"/><rect x="0" y="0" width="24" height="0.5" fill="#5f27cd" opacity="0.15"/><rect x="4" y="0" width="0.5" height="24" fill="#5f27cd" opacity="0.15"/><rect x="0" y="4" width="24" height="0.5" fill="#5f27cd" opacity="0.15"/><rect x="8" y="0" width="0.5" height="24" fill="#5f27cd" opacity="0.15"/><rect x="0" y="8" width="24" height="0.5" fill="#5f27cd" opacity="0.15"/><rect x="12" y="0" width="0.5" height="24" fill="#5f27cd" opacity="0.15"/><rect x="0" y="12" width="24" height="0.5" fill="#5f27cd" opacity="0.15"/><rect x="16" y="0" width="0.5" height="24" fill="#5f27cd" opacity="0.15"/><rect x="0" y="16" width="24" height="0.5" fill="#5f27cd" opacity="0.15"/><rect x="20" y="0" width="0.5" height="24" fill="#5f27cd" opacity="0.15"/><rect x="0" y="20" width="24" height="0.5" fill="#5f27cd" opacity="0.15"/><circle cx="12" cy="12" r="5" fill="#e67e22"/><circle cx="12" cy="12" r="5" fill="none" stroke="#b34b00" stroke-width="0.5"/><circle cx="12" cy="11" r="1.5" fill="#6600ff"/><circle cx="12" cy="11" r="0.75" fill="#000"/><ellipse cx="9" cy="5" rx="2" ry="1.5" fill="#5f27cd"/><ellipse cx="15" cy="5" rx="2" ry="1.5" fill="#5f27cd"/><circle cx="12" cy="5" r="1" fill="#5f27cd"/><text x="23" y="23.5" font-size="1.5" fill="#2c3e50" opacity="0.3" text-anchor="end">#6876</text></svg>