<svg xmlns="http://www.w3.org/2000/svg" width="480" height="480" viewBox="0 0 24 24"><style>rect{shape-rendering:crispEdges;}</style><rect width="24" height="24" fill="#16213e"/><rect x="0" y="0" width="2" height="2" fill="#54a0ff" opacity="0.15"/><rect x="0" y="8" width="2" height="2" fill="#54a0ff" opacity="0.15"/><rect x="0" y="16" width="2" height="2" fill="#54a0ff" opacity="0.15"/><rect x="4" y="4" width="2" height="2" fill="#54a0ff" opacity="0.15"/><rect x="4" y="12" width="2" height="2" fill="#54a0ff" opacity="0.15"/><rect x="4" y="20" width="2" height="2" fill="#54a0ff" opacity="0.15"/><rect x="8" y="0" width="2" height="2" fill="#54a0ff" opacity="0.15"/><rect x="8" y="8" width="2" height="2" fill="#54a0ff" opacity="0.15"/><rect x="8" y="16" width="2" height="2" fill="#54a0ff" opacity="0.15"/><rect x="12" y="4" width="2" height="2" fill="#54a0ff" opacity="0.15"/><rect x="12" y="12" width="2" height="2" fill="#54a0ff" opacity="0.15"/><rect x="12" y="20" width="2" height="2" fill="#54a0ff" opacity="0.15"/><rect x="16" y="0" width="2" height="2" fill="#54a0ff" opacity="0.15"/><rect x="16" y="8" width="2" height="2" fill="#54a0ff" opacity="0.15"/><rect x="16" y="16" width="2" height="2" fill="#54a0ff" opacity="0.15"/><rect x="20" y="4" width="2" height="2" fill="#54a0ff" opacity="0.15"/><rect x="20" y="12" width="2" height="2" fill="#54a0ff" opacity="0.15"/><rect x="20" y="20" width="2" height="2" fill="#54a0ff" opacity="0.15"/><rect x="7" y="7" width="10" height="10" fill="#d35400"/><rect x="7" y="7" width="10" height="1" fill="#a02100"/><rect x="7" y="7" width="1" height="10" fill="#a02100"/><circle cx="8" cy="11" r="1.5" fill="#ff00ff"/><circle cx="16" cy="11" r="1.5" fill="#ff00ff"/><circle cx="8" cy="11" r="0.75" fill="#000"/><circle cx="16" cy="11" r="0.75" fill="#000"/><ellipse cx="12" cy="3" rx="5" ry="1.5" fill="none" stroke="#54a0ff" stroke-width="1"/><text x="23" y="23.5" font-size="1.5" fill="#16213e" opacity="0.3" text-anchor="end">#6890</text></svg>