<svg xmlns="http://www.w3.org/2000/svg" width="480" height="480" viewBox="0 0 24 24"><style>rect{shape-rendering:crispEdges;}</style><rect width="24" height="24" fill="#8e44ad"/><line x1="-24" y1="0" x2="0" y2="24" stroke="#5f27cd" stroke-width="0.5" opacity="0.15"/><line x1="-21" y1="0" x2="3" y2="24" stroke="#5f27cd" stroke-width="0.5" opacity="0.15"/><line x1="-18" y1="0" x2="6" y2="24" stroke="#5f27cd" stroke-width="0.5" opacity="0.15"/><line x1="-15" y1="0" x2="9" y2="24" stroke="#5f27cd" stroke-width="0.5" opacity="0.15"/><line x1="-12" y1="0" x2="12" y2="24" stroke="#5f27cd" stroke-width="0.5" opacity="0.15"/><line x1="-9" y1="0" x2="15" y2="24" stroke="#5f27cd" stroke-width="0.5" opacity="0.15"/><line x1="-6" y1="0" x2="18" y2="24" stroke="#5f27cd" stroke-width="0.5" opacity="0.15"/><line x1="-3" y1="0" x2="21" y2="24" stroke="#5f27cd" stroke-width="0.5" opacity="0.15"/><line x1="0" y1="0" x2="24" y2="24" stroke="#5f27cd" stroke-width="0.5" opacity="0.15"/><line x1="3" y1="0" x2="27" y2="24" stroke="#5f27cd" stroke-width="0.5" opacity="0.15"/><line x1="6" y1="0" x2="30" y2="24" stroke="#5f27cd" stroke-width="0.5" opacity="0.15"/><line x1="9" y1="0" x2="33" y2="24" stroke="#5f27cd" stroke-width="0.5" opacity="0.15"/><line x1="12" y1="0" x2="36" y2="24" stroke="#5f27cd" stroke-width="0.5" opacity="0.15"/><line x1="15" y1="0" x2="39" y2="24" stroke="#5f27cd" stroke-width="0.5" opacity="0.15"/><line x1="18" y1="0" x2="42" y2="24" stroke="#5f27cd" stroke-width="0.5" opacity="0.15"/><line x1="21" y1="0" x2="45" y2="24" stroke="#5f27cd" stroke-width="0.5" opacity="0.15"/><line x1="24" y1="0" x2="48" y2="24" stroke="#5f27cd" stroke-width="0.5" opacity="0.15"/><line x1="27" y1="0" x2="51" y2="24" stroke="#5f27cd" stroke-width="0.5" opacity="0.15"/><line x1="30" y1="0" x2="54" y2="24" stroke="#5f27cd" stroke-width="0.5" opacity="0.15"/><line x1="33" y1="0" x2="57" y2="24" stroke="#5f27cd" stroke-width="0.5" opacity="0.15"/><line x1="36" y1="0" x2="60" y2="24" stroke="#5f27cd" stroke-width="0.5" opacity="0.15"/><line x1="39" y1="0" x2="63" y2="24" stroke="#5f27cd" stroke-width="0.5" opacity="0.15"/><line x1="42" y1="0" x2="66" y2="24" stroke="#5f27cd" stroke-width="0.5" opacity="0.15"/><line x1="45" y1="0" x2="69" y2="24" stroke="#5f27cd" stroke-width="0.5" opacity="0.15"/><polygon points="12,7 16.33012701892219,9.5 16.330127018922195,14.5 12,17 7.669872981077807,14.500000000000002 7.669872981077805,9.500000000000004" fill="#ffffff"/><polygon points="12,7 16.33012701892219,9.5 16.330127018922195,14.5 12,17 7.669872981077807,14.500000000000002 7.669872981077805,9.500000000000004" fill="none" stroke="#cccccc" stroke-width="0.5"/><circle cx="10" cy="11" r="0.5" fill="#ffff00"/><circle cx="14" cy="11" r="0.5" fill="#ffff00"/><circle cx="10" cy="11" r="0.3" fill="#000"/><circle cx="14" cy="11" r="0.3" fill="#000"/><rect x="10" y="3" width="1" height="3" fill="#5f27cd"/><rect x="11" y="1.5652878182009546" width="1" height="4.434712181799045" fill="#5f27cd"/><rect x="12" y="1.00085279391699" width="1" height="4.99914720608301" fill="#5f27cd"/><rect x="13" y="1.6490736388976988" width="1" height="4.350926361102301" fill="#5f27cd"/><rect x="14" y="3.1167482868551604" width="1" height="2.8832517131448396" fill="#5f27cd"/><text x="23" y="23.5" font-size="1.5" fill="#8e44ad" opacity="0.3" text-anchor="end">#6933</text></svg>