<svg xmlns="http://www.w3.org/2000/svg" width="480" height="480" viewBox="0 0 24 24"><style>rect{shape-rendering:crispEdges;}</style><rect width="24" height="24" fill="#2ecc71"/><rect x="0" y="0" width="1" height="24" fill="#74b9ff" opacity="0.15"/><rect x="3" y="0" width="1" height="24" fill="#74b9ff" opacity="0.15"/><rect x="6" y="0" width="1" height="24" fill="#74b9ff" opacity="0.15"/><rect x="9" y="0" width="1" height="24" fill="#74b9ff" opacity="0.15"/><rect x="12" y="0" width="1" height="24" fill="#74b9ff" opacity="0.15"/><rect x="15" y="0" width="1" height="24" fill="#74b9ff" opacity="0.15"/><rect x="18" y="0" width="1" height="24" fill="#74b9ff" opacity="0.15"/><rect x="21" y="0" width="1" height="24" fill="#74b9ff" opacity="0.15"/><polygon points="12,7 16.33012701892219,9.5 16.330127018922195,14.5 12,17 7.669872981077807,14.500000000000002 7.669872981077805,9.500000000000004" fill="#34495e"/><polygon points="12,7 16.33012701892219,9.5 16.330127018922195,14.5 12,17 7.669872981077807,14.500000000000002 7.669872981077805,9.500000000000004" fill="none" stroke="#01162b" stroke-width="0.5"/><circle cx="10" cy="11" r="0.5" fill="#000000"/><circle cx="14" cy="11" r="0.5" fill="#000000"/><circle cx="10" cy="11" r="0.3" fill="#000"/><circle cx="14" cy="11" r="0.3" fill="#000"/><rect x="6" y="4" width="12" height="1" fill="#74b9ff"/><rect x="8" y="0" width="8" height="4" fill="#74b9ff"/><text x="23" y="23.5" font-size="1.5" fill="#2ecc71" opacity="0.3" text-anchor="end">#6935</text></svg>