<svg xmlns="http://www.w3.org/2000/svg" width="480" height="480" viewBox="0 0 24 24"><style>rect{shape-rendering:crispEdges;}</style><rect width="24" height="24" fill="#95a5a6"/><rect x="0" y="0" width="0.5" height="24" fill="#ee5a24" opacity="0.15"/><rect x="0" y="0" width="24" height="0.5" fill="#ee5a24" opacity="0.15"/><rect x="4" y="0" width="0.5" height="24" fill="#ee5a24" opacity="0.15"/><rect x="0" y="4" width="24" height="0.5" fill="#ee5a24" opacity="0.15"/><rect x="8" y="0" width="0.5" height="24" fill="#ee5a24" opacity="0.15"/><rect x="0" y="8" width="24" height="0.5" fill="#ee5a24" opacity="0.15"/><rect x="12" y="0" width="0.5" height="24" fill="#ee5a24" opacity="0.15"/><rect x="0" y="12" width="24" height="0.5" fill="#ee5a24" opacity="0.15"/><rect x="16" y="0" width="0.5" height="24" fill="#ee5a24" opacity="0.15"/><rect x="0" y="16" width="24" height="0.5" fill="#ee5a24" opacity="0.15"/><rect x="20" y="0" width="0.5" height="24" fill="#ee5a24" opacity="0.15"/><rect x="0" y="20" width="24" height="0.5" fill="#ee5a24" opacity="0.15"/><rect x="7" y="7" width="10" height="10" fill="#2980b9"/><rect x="7" y="7" width="10" height="1" fill="#004d86"/><rect x="7" y="7" width="1" height="10" fill="#004d86"/><rect x="8" y="10" width="2" height="2" fill="#ffffff"/><rect x="14" y="10" width="2" height="2" fill="#ffffff"/><circle cx="9" cy="11" r="0.5" fill="#000"/><circle cx="15" cy="11" r="0.5" fill="#000"/><rect x="7" y="4" width="10" height="2" fill="#ee5a24"/><polygon points="8,4 8,1 10,3 12,0 14,3 16,1 16,4" fill="#ee5a24"/><text x="23" y="23.5" font-size="1.5" fill="#95a5a6" opacity="0.3" text-anchor="end">#6996</text></svg>