<svg xmlns="http://www.w3.org/2000/svg" width="480" height="480" viewBox="0 0 24 24"><style>rect{shape-rendering:crispEdges;}</style><rect width="24" height="24" fill="#0f3460"/><rect x="0" y="0" width="2" height="2" fill="#5f27cd" opacity="0.15"/><rect x="0" y="8" width="2" height="2" fill="#5f27cd" opacity="0.15"/><rect x="0" y="16" width="2" height="2" fill="#5f27cd" opacity="0.15"/><rect x="4" y="4" width="2" height="2" fill="#5f27cd" opacity="0.15"/><rect x="4" y="12" width="2" height="2" fill="#5f27cd" opacity="0.15"/><rect x="4" y="20" width="2" height="2" fill="#5f27cd" opacity="0.15"/><rect x="8" y="0" width="2" height="2" fill="#5f27cd" opacity="0.15"/><rect x="8" y="8" width="2" height="2" fill="#5f27cd" opacity="0.15"/><rect x="8" y="16" width="2" height="2" fill="#5f27cd" opacity="0.15"/><rect x="12" y="4" width="2" height="2" fill="#5f27cd" opacity="0.15"/><rect x="12" y="12" width="2" height="2" fill="#5f27cd" opacity="0.15"/><rect x="12" y="20" width="2" height="2" fill="#5f27cd" opacity="0.15"/><rect x="16" y="0" width="2" height="2" fill="#5f27cd" opacity="0.15"/><rect x="16" y="8" width="2" height="2" fill="#5f27cd" opacity="0.15"/><rect x="16" y="16" width="2" height="2" fill="#5f27cd" opacity="0.15"/><rect x="20" y="4" width="2" height="2" fill="#5f27cd" opacity="0.15"/><rect x="20" y="12" width="2" height="2" fill="#5f27cd" opacity="0.15"/><rect x="20" y="20" width="2" height="2" fill="#5f27cd" opacity="0.15"/><polygon points="12,6 18,17 6,17" fill="#f5f5f5"/><polygon points="12,6 18,17 6,17" fill="none" stroke="#c2c2c2" stroke-width="0.5"/><circle cx="12" cy="11" r="1.5" fill="#ffffff"/><circle cx="12" cy="11" r="0.75" fill="#000"/><polygon points="6,7 3,2 7,5" fill="#5f27cd"/><polygon points="18,7 21,2 17,5" fill="#5f27cd"/><text x="23" y="23.5" font-size="1.5" fill="#0f3460" opacity="0.3" text-anchor="end">#7035</text></svg>