<svg xmlns="http://www.w3.org/2000/svg" width="480" height="480" viewBox="0 0 24 24"><style>rect{shape-rendering:crispEdges;}</style><rect width="24" height="24" fill="#192a56"/><rect x="0" y="0" width="1" height="24" fill="#a29bfe" opacity="0.15"/><rect x="3" y="0" width="1" height="24" fill="#a29bfe" opacity="0.15"/><rect x="6" y="0" width="1" height="24" fill="#a29bfe" opacity="0.15"/><rect x="9" y="0" width="1" height="24" fill="#a29bfe" opacity="0.15"/><rect x="12" y="0" width="1" height="24" fill="#a29bfe" opacity="0.15"/><rect x="15" y="0" width="1" height="24" fill="#a29bfe" opacity="0.15"/><rect x="18" y="0" width="1" height="24" fill="#a29bfe" opacity="0.15"/><rect x="21" y="0" width="1" height="24" fill="#a29bfe" opacity="0.15"/><path d="M12 16 C6 12 6 8 12 10 C18 8 18 12 12 16" fill="#e67e22"/><circle cx="9" cy="11" r="0.5" fill="#00ffff"/><circle cx="15" cy="11" r="0.5" fill="#00ffff"/><circle cx="9" cy="11" r="0.3" fill="#000"/><circle cx="15" cy="11" r="0.3" fill="#000"/><polygon points="6,7 3,2 7,5" fill="#a29bfe"/><polygon points="18,7 21,2 17,5" fill="#a29bfe"/><text x="23" y="23.5" font-size="1.5" fill="#192a56" opacity="0.3" text-anchor="end">#7066</text></svg>