<svg xmlns="http://www.w3.org/2000/svg" width="480" height="480" viewBox="0 0 24 24"><style>rect{shape-rendering:crispEdges;}</style><rect width="24" height="24" fill="#192a56"/><rect x="0" y="0" width="1" height="24" fill="#00d2d3" opacity="0.15"/><rect x="3" y="0" width="1" height="24" fill="#00d2d3" opacity="0.15"/><rect x="6" y="0" width="1" height="24" fill="#00d2d3" opacity="0.15"/><rect x="9" y="0" width="1" height="24" fill="#00d2d3" opacity="0.15"/><rect x="12" y="0" width="1" height="24" fill="#00d2d3" opacity="0.15"/><rect x="15" y="0" width="1" height="24" fill="#00d2d3" opacity="0.15"/><rect x="18" y="0" width="1" height="24" fill="#00d2d3" opacity="0.15"/><rect x="21" y="0" width="1" height="24" fill="#00d2d3" opacity="0.15"/><circle cx="12" cy="12" r="5" fill="#f5f5f5"/><circle cx="12" cy="12" r="5" fill="none" stroke="#c2c2c2" stroke-width="0.5"/><circle cx="8" cy="11" r="2" fill="#ff00ff"/><circle cx="16" cy="11" r="2" fill="#ff00ff"/><circle cx="8" cy="11" r="1" fill="#000"/><circle cx="16" cy="11" r="1" fill="#000"/><ellipse cx="9" cy="5" rx="2" ry="1.5" fill="#00d2d3"/><ellipse cx="15" cy="5" rx="2" ry="1.5" fill="#00d2d3"/><circle cx="12" cy="5" r="1" fill="#00d2d3"/><text x="23" y="23.5" font-size="1.5" fill="#192a56" opacity="0.3" text-anchor="end">#7232</text></svg>