<svg xmlns="http://www.w3.org/2000/svg" width="480" height="480" viewBox="0 0 24 24"><style>rect{shape-rendering:crispEdges;}</style><rect width="24" height="24" fill="#95a5a6"/><circle cx="2" cy="2" r="0.5" fill="#fd79a8" opacity="0.2"/><circle cx="2" cy="6" r="0.5" fill="#fd79a8" opacity="0.2"/><circle cx="2" cy="10" r="0.5" fill="#fd79a8" opacity="0.2"/><circle cx="2" cy="14" r="0.5" fill="#fd79a8" opacity="0.2"/><circle cx="2" cy="18" r="0.5" fill="#fd79a8" opacity="0.2"/><circle cx="2" cy="22" r="0.5" fill="#fd79a8" opacity="0.2"/><circle cx="6" cy="2" r="0.5" fill="#fd79a8" opacity="0.2"/><circle cx="6" cy="6" r="0.5" fill="#fd79a8" opacity="0.2"/><circle cx="6" cy="10" r="0.5" fill="#fd79a8" opacity="0.2"/><circle cx="6" cy="14" r="0.5" fill="#fd79a8" opacity="0.2"/><circle cx="6" cy="18" r="0.5" fill="#fd79a8" opacity="0.2"/><circle cx="6" cy="22" r="0.5" fill="#fd79a8" opacity="0.2"/><circle cx="10" cy="2" r="0.5" fill="#fd79a8" opacity="0.2"/><circle cx="10" cy="6" r="0.5" fill="#fd79a8" opacity="0.2"/><circle cx="10" cy="10" r="0.5" fill="#fd79a8" opacity="0.2"/><circle cx="10" cy="14" r="0.5" fill="#fd79a8" opacity="0.2"/><circle cx="10" cy="18" r="0.5" fill="#fd79a8" opacity="0.2"/><circle cx="10" cy="22" r="0.5" fill="#fd79a8" opacity="0.2"/><circle cx="14" cy="2" r="0.5" fill="#fd79a8" opacity="0.2"/><circle cx="14" cy="6" r="0.5" fill="#fd79a8" opacity="0.2"/><circle cx="14" cy="10" r="0.5" fill="#fd79a8" opacity="0.2"/><circle cx="14" cy="14" r="0.5" fill="#fd79a8" opacity="0.2"/><circle cx="14" cy="18" r="0.5" fill="#fd79a8" opacity="0.2"/><circle cx="14" cy="22" r="0.5" fill="#fd79a8" opacity="0.2"/><circle cx="18" cy="2" r="0.5" fill="#fd79a8" opacity="0.2"/><circle cx="18" cy="6" r="0.5" fill="#fd79a8" opacity="0.2"/><circle cx="18" cy="10" r="0.5" fill="#fd79a8" opacity="0.2"/><circle cx="18" cy="14" r="0.5" fill="#fd79a8" opacity="0.2"/><circle cx="18" cy="18" r="0.5" fill="#fd79a8" opacity="0.2"/><circle cx="18" cy="22" r="0.5" fill="#fd79a8" opacity="0.2"/><circle cx="22" cy="2" r="0.5" fill="#fd79a8" opacity="0.2"/><circle cx="22" cy="6" r="0.5" fill="#fd79a8" opacity="0.2"/><circle cx="22" cy="10" r="0.5" fill="#fd79a8" opacity="0.2"/><circle cx="22" cy="14" r="0.5" fill="#fd79a8" opacity="0.2"/><circle cx="22" cy="18" r="0.5" fill="#fd79a8" opacity="0.2"/><circle cx="22" cy="22" r="0.5" fill="#fd79a8" opacity="0.2"/><rect x="7" y="7" width="10" height="10" fill="#34495e"/><rect x="7" y="7" width="10" height="1" fill="#01162b"/><rect x="7" y="7" width="1" height="10" fill="#01162b"/><circle cx="7" cy="11" r="1" fill="#000000"/><circle cx="17" cy="11" r="1" fill="#000000"/><circle cx="7" cy="11" r="0.5" fill="#000"/><circle cx="17" cy="11" r="0.5" fill="#000"/><polygon points="6,7 3,2 7,5" fill="#fd79a8"/><polygon points="18,7 21,2 17,5" fill="#fd79a8"/><text x="23" y="23.5" font-size="1.5" fill="#95a5a6" opacity="0.3" text-anchor="end">#7236</text></svg>