<svg xmlns="http://www.w3.org/2000/svg" width="480" height="480" viewBox="0 0 24 24"><style>rect{shape-rendering:crispEdges;}</style><rect width="24" height="24" fill="#d35400"/><rect x="0" y="0" width="1" height="24" fill="#fd79a8" opacity="0.15"/><rect x="3" y="0" width="1" height="24" fill="#fd79a8" opacity="0.15"/><rect x="6" y="0" width="1" height="24" fill="#fd79a8" opacity="0.15"/><rect x="9" y="0" width="1" height="24" fill="#fd79a8" opacity="0.15"/><rect x="12" y="0" width="1" height="24" fill="#fd79a8" opacity="0.15"/><rect x="15" y="0" width="1" height="24" fill="#fd79a8" opacity="0.15"/><rect x="18" y="0" width="1" height="24" fill="#fd79a8" opacity="0.15"/><rect x="21" y="0" width="1" height="24" fill="#fd79a8" opacity="0.15"/><polygon points="12,6 18,12 12,18 6,12" fill="#1abc9c"/><polygon points="12,6 18,12 12,18 6,12" fill="none" stroke="#008969" stroke-width="0.5"/><circle cx="7" cy="11" r="1" fill="#ffff00"/><circle cx="17" cy="11" r="1" fill="#ffff00"/><circle cx="7" cy="11" r="0.5" fill="#000"/><circle cx="17" cy="11" r="0.5" fill="#000"/><text x="23" y="23.5" font-size="1.5" fill="#d35400" opacity="0.3" text-anchor="end">#7448</text></svg>