<svg xmlns="http://www.w3.org/2000/svg" width="480" height="480" viewBox="0 0 24 24"><style>rect{shape-rendering:crispEdges;}</style><rect width="24" height="24" fill="#95a5a6"/><line x1="-24" y1="0" x2="0" y2="24" stroke="#ee5a24" stroke-width="0.5" opacity="0.15"/><line x1="-21" y1="0" x2="3" y2="24" stroke="#ee5a24" stroke-width="0.5" opacity="0.15"/><line x1="-18" y1="0" x2="6" y2="24" stroke="#ee5a24" stroke-width="0.5" opacity="0.15"/><line x1="-15" y1="0" x2="9" y2="24" stroke="#ee5a24" stroke-width="0.5" opacity="0.15"/><line x1="-12" y1="0" x2="12" y2="24" stroke="#ee5a24" stroke-width="0.5" opacity="0.15"/><line x1="-9" y1="0" x2="15" y2="24" stroke="#ee5a24" stroke-width="0.5" opacity="0.15"/><line x1="-6" y1="0" x2="18" y2="24" stroke="#ee5a24" stroke-width="0.5" opacity="0.15"/><line x1="-3" y1="0" x2="21" y2="24" stroke="#ee5a24" stroke-width="0.5" opacity="0.15"/><line x1="0" y1="0" x2="24" y2="24" stroke="#ee5a24" stroke-width="0.5" opacity="0.15"/><line x1="3" y1="0" x2="27" y2="24" stroke="#ee5a24" stroke-width="0.5" opacity="0.15"/><line x1="6" y1="0" x2="30" y2="24" stroke="#ee5a24" stroke-width="0.5" opacity="0.15"/><line x1="9" y1="0" x2="33" y2="24" stroke="#ee5a24" stroke-width="0.5" opacity="0.15"/><line x1="12" y1="0" x2="36" y2="24" stroke="#ee5a24" stroke-width="0.5" opacity="0.15"/><line x1="15" y1="0" x2="39" y2="24" stroke="#ee5a24" stroke-width="0.5" opacity="0.15"/><line x1="18" y1="0" x2="42" y2="24" stroke="#ee5a24" stroke-width="0.5" opacity="0.15"/><line x1="21" y1="0" x2="45" y2="24" stroke="#ee5a24" stroke-width="0.5" opacity="0.15"/><line x1="24" y1="0" x2="48" y2="24" stroke="#ee5a24" stroke-width="0.5" opacity="0.15"/><line x1="27" y1="0" x2="51" y2="24" stroke="#ee5a24" stroke-width="0.5" opacity="0.15"/><line x1="30" y1="0" x2="54" y2="24" stroke="#ee5a24" stroke-width="0.5" opacity="0.15"/><line x1="33" y1="0" x2="57" y2="24" stroke="#ee5a24" stroke-width="0.5" opacity="0.15"/><line x1="36" y1="0" x2="60" y2="24" stroke="#ee5a24" stroke-width="0.5" opacity="0.15"/><line x1="39" y1="0" x2="63" y2="24" stroke="#ee5a24" stroke-width="0.5" opacity="0.15"/><line x1="42" y1="0" x2="66" y2="24" stroke="#ee5a24" stroke-width="0.5" opacity="0.15"/><line x1="45" y1="0" x2="69" y2="24" stroke="#ee5a24" stroke-width="0.5" opacity="0.15"/><polygon points="12,6 13.76335575687742,9.572949016875157 17.706339097770922,10.145898033750315 14.853169548885461,12.927050983124841 15.526711513754838,16.854101966249686 12,15 8.473288486245162,16.854101966249686 9.146830451114539,12.927050983124843 6.293660902229078,10.145898033750317 10.23664424312258,9.572949016875159" fill="#f5f5f5"/><polygon points="12,6 13.76335575687742,9.572949016875157 17.706339097770922,10.145898033750315 14.853169548885461,12.927050983124841 15.526711513754838,16.854101966249686 12,15 8.473288486245162,16.854101966249686 9.146830451114539,12.927050983124843 6.293660902229078,10.145898033750317 10.23664424312258,9.572949016875159" fill="none" stroke="#c2c2c2" stroke-width="0.5"/><circle cx="9" cy="11" r="1" fill="#6600ff"/><circle cx="15" cy="11" r="1" fill="#6600ff"/><circle cx="9" cy="11" r="0.5" fill="#000"/><circle cx="15" cy="11" r="0.5" fill="#000"/><rect x="6" y="4" width="12" height="1" fill="#ee5a24"/><rect x="8" y="0" width="8" height="4" fill="#ee5a24"/><text x="23" y="23.5" font-size="1.5" fill="#95a5a6" opacity="0.3" text-anchor="end">#7483</text></svg>