<svg xmlns="http://www.w3.org/2000/svg" width="480" height="480" viewBox="0 0 24 24"><style>rect{shape-rendering:crispEdges;}</style><rect width="24" height="24" fill="#16213e"/><rect x="0" y="0" width="2" height="2" fill="#ff9f43" opacity="0.15"/><rect x="0" y="8" width="2" height="2" fill="#ff9f43" opacity="0.15"/><rect x="0" y="16" width="2" height="2" fill="#ff9f43" opacity="0.15"/><rect x="4" y="4" width="2" height="2" fill="#ff9f43" opacity="0.15"/><rect x="4" y="12" width="2" height="2" fill="#ff9f43" opacity="0.15"/><rect x="4" y="20" width="2" height="2" fill="#ff9f43" opacity="0.15"/><rect x="8" y="0" width="2" height="2" fill="#ff9f43" opacity="0.15"/><rect x="8" y="8" width="2" height="2" fill="#ff9f43" opacity="0.15"/><rect x="8" y="16" width="2" height="2" fill="#ff9f43" opacity="0.15"/><rect x="12" y="4" width="2" height="2" fill="#ff9f43" opacity="0.15"/><rect x="12" y="12" width="2" height="2" fill="#ff9f43" opacity="0.15"/><rect x="12" y="20" width="2" height="2" fill="#ff9f43" opacity="0.15"/><rect x="16" y="0" width="2" height="2" fill="#ff9f43" opacity="0.15"/><rect x="16" y="8" width="2" height="2" fill="#ff9f43" opacity="0.15"/><rect x="16" y="16" width="2" height="2" fill="#ff9f43" opacity="0.15"/><rect x="20" y="4" width="2" height="2" fill="#ff9f43" opacity="0.15"/><rect x="20" y="12" width="2" height="2" fill="#ff9f43" opacity="0.15"/><rect x="20" y="20" width="2" height="2" fill="#ff9f43" opacity="0.15"/><rect x="7" y="7" width="10" height="10" fill="#e74c3c"/><rect x="7" y="7" width="10" height="1" fill="#b41909"/><rect x="7" y="7" width="1" height="10" fill="#b41909"/><circle cx="10" cy="11" r="0.5" fill="#00ff00"/><circle cx="14" cy="11" r="0.5" fill="#00ff00"/><circle cx="10" cy="11" r="0.3" fill="#000"/><circle cx="14" cy="11" r="0.3" fill="#000"/><rect x="10" y="3" width="1" height="3" fill="#ff9f43"/><rect x="11" y="1.5652878182009546" width="1" height="4.434712181799045" fill="#ff9f43"/><rect x="12" y="1.00085279391699" width="1" height="4.99914720608301" fill="#ff9f43"/><rect x="13" y="1.6490736388976988" width="1" height="4.350926361102301" fill="#ff9f43"/><rect x="14" y="3.1167482868551604" width="1" height="2.8832517131448396" fill="#ff9f43"/><text x="23" y="23.5" font-size="1.5" fill="#16213e" opacity="0.3" text-anchor="end">#7497</text></svg>