<svg xmlns="http://www.w3.org/2000/svg" width="480" height="480" viewBox="0 0 24 24"><style>rect{shape-rendering:crispEdges;}</style><rect width="24" height="24" fill="#d35400"/><circle cx="2" cy="2" r="0.5" fill="#fdcb6e" opacity="0.2"/><circle cx="2" cy="6" r="0.5" fill="#fdcb6e" opacity="0.2"/><circle cx="2" cy="10" r="0.5" fill="#fdcb6e" opacity="0.2"/><circle cx="2" cy="14" r="0.5" fill="#fdcb6e" opacity="0.2"/><circle cx="2" cy="18" r="0.5" fill="#fdcb6e" opacity="0.2"/><circle cx="2" cy="22" r="0.5" fill="#fdcb6e" opacity="0.2"/><circle cx="6" cy="2" r="0.5" fill="#fdcb6e" opacity="0.2"/><circle cx="6" cy="6" r="0.5" fill="#fdcb6e" opacity="0.2"/><circle cx="6" cy="10" r="0.5" fill="#fdcb6e" opacity="0.2"/><circle cx="6" cy="14" r="0.5" fill="#fdcb6e" opacity="0.2"/><circle cx="6" cy="18" r="0.5" fill="#fdcb6e" opacity="0.2"/><circle cx="6" cy="22" r="0.5" fill="#fdcb6e" opacity="0.2"/><circle cx="10" cy="2" r="0.5" fill="#fdcb6e" opacity="0.2"/><circle cx="10" cy="6" r="0.5" fill="#fdcb6e" opacity="0.2"/><circle cx="10" cy="10" r="0.5" fill="#fdcb6e" opacity="0.2"/><circle cx="10" cy="14" r="0.5" fill="#fdcb6e" opacity="0.2"/><circle cx="10" cy="18" r="0.5" fill="#fdcb6e" opacity="0.2"/><circle cx="10" cy="22" r="0.5" fill="#fdcb6e" opacity="0.2"/><circle cx="14" cy="2" r="0.5" fill="#fdcb6e" opacity="0.2"/><circle cx="14" cy="6" r="0.5" fill="#fdcb6e" opacity="0.2"/><circle cx="14" cy="10" r="0.5" fill="#fdcb6e" opacity="0.2"/><circle cx="14" cy="14" r="0.5" fill="#fdcb6e" opacity="0.2"/><circle cx="14" cy="18" r="0.5" fill="#fdcb6e" opacity="0.2"/><circle cx="14" cy="22" r="0.5" fill="#fdcb6e" opacity="0.2"/><circle cx="18" cy="2" r="0.5" fill="#fdcb6e" opacity="0.2"/><circle cx="18" cy="6" r="0.5" fill="#fdcb6e" opacity="0.2"/><circle cx="18" cy="10" r="0.5" fill="#fdcb6e" opacity="0.2"/><circle cx="18" cy="14" r="0.5" fill="#fdcb6e" opacity="0.2"/><circle cx="18" cy="18" r="0.5" fill="#fdcb6e" opacity="0.2"/><circle cx="18" cy="22" r="0.5" fill="#fdcb6e" opacity="0.2"/><circle cx="22" cy="2" r="0.5" fill="#fdcb6e" opacity="0.2"/><circle cx="22" cy="6" r="0.5" fill="#fdcb6e" opacity="0.2"/><circle cx="22" cy="10" r="0.5" fill="#fdcb6e" opacity="0.2"/><circle cx="22" cy="14" r="0.5" fill="#fdcb6e" opacity="0.2"/><circle cx="22" cy="18" r="0.5" fill="#fdcb6e" opacity="0.2"/><circle cx="22" cy="22" r="0.5" fill="#fdcb6e" opacity="0.2"/><polygon points="12,7 16.33012701892219,9.5 16.330127018922195,14.5 12,17 7.669872981077807,14.500000000000002 7.669872981077805,9.500000000000004" fill="#3498db"/><polygon points="12,7 16.33012701892219,9.5 16.330127018922195,14.5 12,17 7.669872981077807,14.500000000000002 7.669872981077805,9.500000000000004" fill="none" stroke="#0165a8" stroke-width="0.5"/><circle cx="7" cy="11" r="1" fill="#ff6600"/><circle cx="17" cy="11" r="1" fill="#ff6600"/><circle cx="7" cy="11" r="0.5" fill="#000"/><circle cx="17" cy="11" r="0.5" fill="#000"/><ellipse cx="9" cy="5" rx="2" ry="1.5" fill="#fdcb6e"/><ellipse cx="15" cy="5" rx="2" ry="1.5" fill="#fdcb6e"/><circle cx="12" cy="5" r="1" fill="#fdcb6e"/><text x="23" y="23.5" font-size="1.5" fill="#d35400" opacity="0.3" text-anchor="end">#7557</text></svg>