<svg xmlns="http://www.w3.org/2000/svg" width="480" height="480" viewBox="0 0 24 24"><style>rect{shape-rendering:crispEdges;}</style><rect width="24" height="24" fill="#9b59b6"/><rect x="0" y="0" width="0.5" height="24" fill="#ee5a24" opacity="0.15"/><rect x="0" y="0" width="24" height="0.5" fill="#ee5a24" opacity="0.15"/><rect x="4" y="0" width="0.5" height="24" fill="#ee5a24" opacity="0.15"/><rect x="0" y="4" width="24" height="0.5" fill="#ee5a24" opacity="0.15"/><rect x="8" y="0" width="0.5" height="24" fill="#ee5a24" opacity="0.15"/><rect x="0" y="8" width="24" height="0.5" fill="#ee5a24" opacity="0.15"/><rect x="12" y="0" width="0.5" height="24" fill="#ee5a24" opacity="0.15"/><rect x="0" y="12" width="24" height="0.5" fill="#ee5a24" opacity="0.15"/><rect x="16" y="0" width="0.5" height="24" fill="#ee5a24" opacity="0.15"/><rect x="0" y="16" width="24" height="0.5" fill="#ee5a24" opacity="0.15"/><rect x="20" y="0" width="0.5" height="24" fill="#ee5a24" opacity="0.15"/><rect x="0" y="20" width="24" height="0.5" fill="#ee5a24" opacity="0.15"/><polygon points="12,6 18,17 6,17" fill="#8e44ad"/><polygon points="12,6 18,17 6,17" fill="none" stroke="#5b117a" stroke-width="0.5"/><circle cx="9" cy="11" r="0.5" fill="#ff0000"/><circle cx="15" cy="11" r="0.5" fill="#ff0000"/><circle cx="9" cy="11" r="0.3" fill="#000"/><circle cx="15" cy="11" r="0.3" fill="#000"/><ellipse cx="9" cy="5" rx="2" ry="1.5" fill="#ee5a24"/><ellipse cx="15" cy="5" rx="2" ry="1.5" fill="#ee5a24"/><circle cx="12" cy="5" r="1" fill="#ee5a24"/><text x="23" y="23.5" font-size="1.5" fill="#9b59b6" opacity="0.3" text-anchor="end">#7866</text></svg>