<svg xmlns="http://www.w3.org/2000/svg" width="480" height="480" viewBox="0 0 24 24"><style>rect{shape-rendering:crispEdges;}</style><rect width="24" height="24" fill="#16213e"/><rect x="0" y="0" width="0.5" height="24" fill="#fd79a8" opacity="0.15"/><rect x="0" y="0" width="24" height="0.5" fill="#fd79a8" opacity="0.15"/><rect x="4" y="0" width="0.5" height="24" fill="#fd79a8" opacity="0.15"/><rect x="0" y="4" width="24" height="0.5" fill="#fd79a8" opacity="0.15"/><rect x="8" y="0" width="0.5" height="24" fill="#fd79a8" opacity="0.15"/><rect x="0" y="8" width="24" height="0.5" fill="#fd79a8" opacity="0.15"/><rect x="12" y="0" width="0.5" height="24" fill="#fd79a8" opacity="0.15"/><rect x="0" y="12" width="24" height="0.5" fill="#fd79a8" opacity="0.15"/><rect x="16" y="0" width="0.5" height="24" fill="#fd79a8" opacity="0.15"/><rect x="0" y="16" width="24" height="0.5" fill="#fd79a8" opacity="0.15"/><rect x="20" y="0" width="0.5" height="24" fill="#fd79a8" opacity="0.15"/><rect x="0" y="20" width="24" height="0.5" fill="#fd79a8" opacity="0.15"/><path d="M12 16 C6 12 6 8 12 10 C18 8 18 12 12 16" fill="#1abc9c"/><circle cx="10" cy="11" r="0.5" fill="#ff6600"/><circle cx="14" cy="11" r="0.5" fill="#ff6600"/><circle cx="10" cy="11" r="0.3" fill="#000"/><circle cx="14" cy="11" r="0.3" fill="#000"/><ellipse cx="12" cy="3" rx="5" ry="1.5" fill="none" stroke="#fd79a8" stroke-width="1"/><text x="23" y="23.5" font-size="1.5" fill="#16213e" opacity="0.3" text-anchor="end">#7940</text></svg>