<svg xmlns="http://www.w3.org/2000/svg" width="480" height="480" viewBox="0 0 24 24"><style>rect{shape-rendering:crispEdges;}</style><rect width="24" height="24" fill="#34495e"/><rect x="0" y="0" width="0.5" height="24" fill="#5f27cd" opacity="0.15"/><rect x="0" y="0" width="24" height="0.5" fill="#5f27cd" opacity="0.15"/><rect x="4" y="0" width="0.5" height="24" fill="#5f27cd" opacity="0.15"/><rect x="0" y="4" width="24" height="0.5" fill="#5f27cd" opacity="0.15"/><rect x="8" y="0" width="0.5" height="24" fill="#5f27cd" opacity="0.15"/><rect x="0" y="8" width="24" height="0.5" fill="#5f27cd" opacity="0.15"/><rect x="12" y="0" width="0.5" height="24" fill="#5f27cd" opacity="0.15"/><rect x="0" y="12" width="24" height="0.5" fill="#5f27cd" opacity="0.15"/><rect x="16" y="0" width="0.5" height="24" fill="#5f27cd" opacity="0.15"/><rect x="0" y="16" width="24" height="0.5" fill="#5f27cd" opacity="0.15"/><rect x="20" y="0" width="0.5" height="24" fill="#5f27cd" opacity="0.15"/><rect x="0" y="20" width="24" height="0.5" fill="#5f27cd" opacity="0.15"/><rect x="7" y="7" width="10" height="10" fill="#95a5a6"/><rect x="7" y="7" width="10" height="1" fill="#627273"/><rect x="7" y="7" width="1" height="10" fill="#627273"/><circle cx="12" cy="11" r="1.5" fill="#000000"/><circle cx="12" cy="11" r="0.75" fill="#000"/><text x="23" y="23.5" font-size="1.5" fill="#34495e" opacity="0.3" text-anchor="end">#809</text></svg>