<svg xmlns="http://www.w3.org/2000/svg" width="480" height="480" viewBox="0 0 24 24"><style>rect{shape-rendering:crispEdges;}</style><rect width="24" height="24" fill="#1abc9c"/><polygon points="12,7 16.33012701892219,9.5 16.330127018922195,14.5 12,17 7.669872981077807,14.500000000000002 7.669872981077805,9.500000000000004" fill="#ffffff"/><polygon points="12,7 16.33012701892219,9.5 16.330127018922195,14.5 12,17 7.669872981077807,14.500000000000002 7.669872981077805,9.500000000000004" fill="none" stroke="#cccccc" stroke-width="0.5"/><circle cx="8" cy="11" r="1.5" fill="#ff00ff"/><circle cx="16" cy="11" r="1.5" fill="#ff00ff"/><circle cx="8" cy="11" r="0.75" fill="#000"/><circle cx="16" cy="11" r="0.75" fill="#000"/><rect x="10" y="3" width="1" height="3" fill="#00cec9"/><rect x="11" y="1.5652878182009546" width="1" height="4.434712181799045" fill="#00cec9"/><rect x="12" y="1.00085279391699" width="1" height="4.99914720608301" fill="#00cec9"/><rect x="13" y="1.6490736388976988" width="1" height="4.350926361102301" fill="#00cec9"/><rect x="14" y="3.1167482868551604" width="1" height="2.8832517131448396" fill="#00cec9"/><text x="23" y="23.5" font-size="1.5" fill="#1abc9c" opacity="0.3" text-anchor="end">#8091</text></svg>