<svg xmlns="http://www.w3.org/2000/svg" width="480" height="480" viewBox="0 0 24 24"><style>rect{shape-rendering:crispEdges;}</style><rect width="24" height="24" fill="#f1c40f"/><rect x="0" y="0" width="0.5" height="24" fill="#feca57" opacity="0.15"/><rect x="0" y="0" width="24" height="0.5" fill="#feca57" opacity="0.15"/><rect x="4" y="0" width="0.5" height="24" fill="#feca57" opacity="0.15"/><rect x="0" y="4" width="24" height="0.5" fill="#feca57" opacity="0.15"/><rect x="8" y="0" width="0.5" height="24" fill="#feca57" opacity="0.15"/><rect x="0" y="8" width="24" height="0.5" fill="#feca57" opacity="0.15"/><rect x="12" y="0" width="0.5" height="24" fill="#feca57" opacity="0.15"/><rect x="0" y="12" width="24" height="0.5" fill="#feca57" opacity="0.15"/><rect x="16" y="0" width="0.5" height="24" fill="#feca57" opacity="0.15"/><rect x="0" y="16" width="24" height="0.5" fill="#feca57" opacity="0.15"/><rect x="20" y="0" width="0.5" height="24" fill="#feca57" opacity="0.15"/><rect x="0" y="20" width="24" height="0.5" fill="#feca57" opacity="0.15"/><circle cx="12" cy="12" r="5" fill="#f5f5f5"/><circle cx="12" cy="12" r="5" fill="none" stroke="#c2c2c2" stroke-width="0.5"/><circle cx="10" cy="11" r="0.5" fill="#ffffff"/><circle cx="14" cy="11" r="0.5" fill="#ffffff"/><circle cx="10" cy="11" r="0.3" fill="#000"/><circle cx="14" cy="11" r="0.3" fill="#000"/><rect x="10" y="3" width="1" height="3" fill="#feca57"/><rect x="11" y="1.5652878182009546" width="1" height="4.434712181799045" fill="#feca57"/><rect x="12" y="1.00085279391699" width="1" height="4.99914720608301" fill="#feca57"/><rect x="13" y="1.6490736388976988" width="1" height="4.350926361102301" fill="#feca57"/><rect x="14" y="3.1167482868551604" width="1" height="2.8832517131448396" fill="#feca57"/><text x="23" y="23.5" font-size="1.5" fill="#f1c40f" opacity="0.3" text-anchor="end">#8150</text></svg>