<svg xmlns="http://www.w3.org/2000/svg" width="480" height="480" viewBox="0 0 24 24"><style>rect{shape-rendering:crispEdges;}</style><rect width="24" height="24" fill="#8e44ad"/><rect x="0" y="0" width="1" height="24" fill="#ff9ff3" opacity="0.15"/><rect x="3" y="0" width="1" height="24" fill="#ff9ff3" opacity="0.15"/><rect x="6" y="0" width="1" height="24" fill="#ff9ff3" opacity="0.15"/><rect x="9" y="0" width="1" height="24" fill="#ff9ff3" opacity="0.15"/><rect x="12" y="0" width="1" height="24" fill="#ff9ff3" opacity="0.15"/><rect x="15" y="0" width="1" height="24" fill="#ff9ff3" opacity="0.15"/><rect x="18" y="0" width="1" height="24" fill="#ff9ff3" opacity="0.15"/><rect x="21" y="0" width="1" height="24" fill="#ff9ff3" opacity="0.15"/><polygon points="12,6 13.76335575687742,9.572949016875157 17.706339097770922,10.145898033750315 14.853169548885461,12.927050983124841 15.526711513754838,16.854101966249686 12,15 8.473288486245162,16.854101966249686 9.146830451114539,12.927050983124843 6.293660902229078,10.145898033750317 10.23664424312258,9.572949016875159" fill="#2980b9"/><polygon points="12,6 13.76335575687742,9.572949016875157 17.706339097770922,10.145898033750315 14.853169548885461,12.927050983124841 15.526711513754838,16.854101966249686 12,15 8.473288486245162,16.854101966249686 9.146830451114539,12.927050983124843 6.293660902229078,10.145898033750317 10.23664424312258,9.572949016875159" fill="none" stroke="#004d86" stroke-width="0.5"/><circle cx="9" cy="11" r="1" fill="#00ffff"/><circle cx="15" cy="11" r="1" fill="#00ffff"/><circle cx="9" cy="11" r="0.5" fill="#000"/><circle cx="15" cy="11" r="0.5" fill="#000"/><line x1="12" y1="6" x2="12" y2="1" stroke="#ff9ff3" stroke-width="0.8"/><circle cx="12" cy="0" r="1.5" fill="#ff9ff3"/><text x="23" y="23.5" font-size="1.5" fill="#8e44ad" opacity="0.3" text-anchor="end">#8270</text></svg>