<svg xmlns="http://www.w3.org/2000/svg" width="480" height="480" viewBox="0 0 24 24"><style>rect{shape-rendering:crispEdges;}</style><rect width="24" height="24" fill="#34495e"/><rect x="0" y="0" width="2" height="2" fill="#fd79a8" opacity="0.15"/><rect x="0" y="8" width="2" height="2" fill="#fd79a8" opacity="0.15"/><rect x="0" y="16" width="2" height="2" fill="#fd79a8" opacity="0.15"/><rect x="4" y="4" width="2" height="2" fill="#fd79a8" opacity="0.15"/><rect x="4" y="12" width="2" height="2" fill="#fd79a8" opacity="0.15"/><rect x="4" y="20" width="2" height="2" fill="#fd79a8" opacity="0.15"/><rect x="8" y="0" width="2" height="2" fill="#fd79a8" opacity="0.15"/><rect x="8" y="8" width="2" height="2" fill="#fd79a8" opacity="0.15"/><rect x="8" y="16" width="2" height="2" fill="#fd79a8" opacity="0.15"/><rect x="12" y="4" width="2" height="2" fill="#fd79a8" opacity="0.15"/><rect x="12" y="12" width="2" height="2" fill="#fd79a8" opacity="0.15"/><rect x="12" y="20" width="2" height="2" fill="#fd79a8" opacity="0.15"/><rect x="16" y="0" width="2" height="2" fill="#fd79a8" opacity="0.15"/><rect x="16" y="8" width="2" height="2" fill="#fd79a8" opacity="0.15"/><rect x="16" y="16" width="2" height="2" fill="#fd79a8" opacity="0.15"/><rect x="20" y="4" width="2" height="2" fill="#fd79a8" opacity="0.15"/><rect x="20" y="12" width="2" height="2" fill="#fd79a8" opacity="0.15"/><rect x="20" y="20" width="2" height="2" fill="#fd79a8" opacity="0.15"/><path d="M7 17 L7 10 A5 5 0 0 1 17 10 L17 17 L15 15 L13 17 L11 15 L9 17 Z" fill="#2c3e50"/><circle cx="8" cy="11" r="1.5" fill="#000000"/><circle cx="16" cy="11" r="1.5" fill="#000000"/><circle cx="8" cy="11" r="0.75" fill="#000"/><circle cx="16" cy="11" r="0.75" fill="#000"/><ellipse cx="9" cy="5" rx="2" ry="1.5" fill="#fd79a8"/><ellipse cx="15" cy="5" rx="2" ry="1.5" fill="#fd79a8"/><circle cx="12" cy="5" r="1" fill="#fd79a8"/><text x="23" y="23.5" font-size="1.5" fill="#34495e" opacity="0.3" text-anchor="end">#8553</text></svg>