<svg xmlns="http://www.w3.org/2000/svg" width="480" height="480" viewBox="0 0 24 24"><style>rect{shape-rendering:crispEdges;}</style><rect width="24" height="24" fill="#1a1a2e"/><rect x="0" y="0" width="0.5" height="24" fill="#feca57" opacity="0.15"/><rect x="0" y="0" width="24" height="0.5" fill="#feca57" opacity="0.15"/><rect x="4" y="0" width="0.5" height="24" fill="#feca57" opacity="0.15"/><rect x="0" y="4" width="24" height="0.5" fill="#feca57" opacity="0.15"/><rect x="8" y="0" width="0.5" height="24" fill="#feca57" opacity="0.15"/><rect x="0" y="8" width="24" height="0.5" fill="#feca57" opacity="0.15"/><rect x="12" y="0" width="0.5" height="24" fill="#feca57" opacity="0.15"/><rect x="0" y="12" width="24" height="0.5" fill="#feca57" opacity="0.15"/><rect x="16" y="0" width="0.5" height="24" fill="#feca57" opacity="0.15"/><rect x="0" y="16" width="24" height="0.5" fill="#feca57" opacity="0.15"/><rect x="20" y="0" width="0.5" height="24" fill="#feca57" opacity="0.15"/><rect x="0" y="20" width="24" height="0.5" fill="#feca57" opacity="0.15"/><polygon points="12,6 18,17 6,17" fill="#ecf0f1"/><polygon points="12,6 18,17 6,17" fill="none" stroke="#b9bdbe" stroke-width="0.5"/><circle cx="9" cy="11" r="1" fill="#00ff00"/><circle cx="15" cy="11" r="1" fill="#00ff00"/><circle cx="9" cy="11" r="0.5" fill="#000"/><circle cx="15" cy="11" r="0.5" fill="#000"/><polygon points="6,7 3,2 7,5" fill="#feca57"/><polygon points="18,7 21,2 17,5" fill="#feca57"/><text x="23" y="23.5" font-size="1.5" fill="#1a1a2e" opacity="0.3" text-anchor="end">#8556</text></svg>