<svg xmlns="http://www.w3.org/2000/svg" width="480" height="480" viewBox="0 0 24 24"><style>rect{shape-rendering:crispEdges;}</style><rect width="24" height="24" fill="#192a56"/><rect x="0" y="0" width="1" height="24" fill="#48dbfb" opacity="0.15"/><rect x="3" y="0" width="1" height="24" fill="#48dbfb" opacity="0.15"/><rect x="6" y="0" width="1" height="24" fill="#48dbfb" opacity="0.15"/><rect x="9" y="0" width="1" height="24" fill="#48dbfb" opacity="0.15"/><rect x="12" y="0" width="1" height="24" fill="#48dbfb" opacity="0.15"/><rect x="15" y="0" width="1" height="24" fill="#48dbfb" opacity="0.15"/><rect x="18" y="0" width="1" height="24" fill="#48dbfb" opacity="0.15"/><rect x="21" y="0" width="1" height="24" fill="#48dbfb" opacity="0.15"/><path d="M12 16 C6 12 6 8 12 10 C18 8 18 12 12 16" fill="#d35400"/><circle cx="9" cy="11" r="0.5" fill="#0000ff"/><circle cx="15" cy="11" r="0.5" fill="#0000ff"/><circle cx="9" cy="11" r="0.3" fill="#000"/><circle cx="15" cy="11" r="0.3" fill="#000"/><rect x="6" y="4" width="12" height="1" fill="#48dbfb"/><rect x="8" y="0" width="8" height="4" fill="#48dbfb"/><text x="23" y="23.5" font-size="1.5" fill="#192a56" opacity="0.3" text-anchor="end">#8581</text></svg>