<svg xmlns="http://www.w3.org/2000/svg" width="480" height="480" viewBox="0 0 24 24"><style>rect{shape-rendering:crispEdges;}</style><rect width="24" height="24" fill="#ecf0f1"/><rect x="0" y="0" width="0.5" height="24" fill="#48dbfb" opacity="0.15"/><rect x="0" y="0" width="24" height="0.5" fill="#48dbfb" opacity="0.15"/><rect x="4" y="0" width="0.5" height="24" fill="#48dbfb" opacity="0.15"/><rect x="0" y="4" width="24" height="0.5" fill="#48dbfb" opacity="0.15"/><rect x="8" y="0" width="0.5" height="24" fill="#48dbfb" opacity="0.15"/><rect x="0" y="8" width="24" height="0.5" fill="#48dbfb" opacity="0.15"/><rect x="12" y="0" width="0.5" height="24" fill="#48dbfb" opacity="0.15"/><rect x="0" y="12" width="24" height="0.5" fill="#48dbfb" opacity="0.15"/><rect x="16" y="0" width="0.5" height="24" fill="#48dbfb" opacity="0.15"/><rect x="0" y="16" width="24" height="0.5" fill="#48dbfb" opacity="0.15"/><rect x="20" y="0" width="0.5" height="24" fill="#48dbfb" opacity="0.15"/><rect x="0" y="20" width="24" height="0.5" fill="#48dbfb" opacity="0.15"/><polygon points="12,6 18,17 6,17" fill="#7f8c8d"/><polygon points="12,6 18,17 6,17" fill="none" stroke="#4c595a" stroke-width="0.5"/><circle cx="10" cy="11" r="0.5" fill="#ff00ff"/><circle cx="14" cy="11" r="0.5" fill="#ff00ff"/><circle cx="10" cy="11" r="0.3" fill="#000"/><circle cx="14" cy="11" r="0.3" fill="#000"/><rect x="7" y="4" width="10" height="2" fill="#48dbfb"/><polygon points="8,4 8,1 10,3 12,0 14,3 16,1 16,4" fill="#48dbfb"/><text x="23" y="23.5" font-size="1.5" fill="#ecf0f1" opacity="0.3" text-anchor="end">#8610</text></svg>