<svg xmlns="http://www.w3.org/2000/svg" width="480" height="480" viewBox="0 0 24 24"><style>rect{shape-rendering:crispEdges;}</style><rect width="24" height="24" fill="#e94560"/><rect x="0" y="0" width="1" height="24" fill="#ff9ff3" opacity="0.15"/><rect x="3" y="0" width="1" height="24" fill="#ff9ff3" opacity="0.15"/><rect x="6" y="0" width="1" height="24" fill="#ff9ff3" opacity="0.15"/><rect x="9" y="0" width="1" height="24" fill="#ff9ff3" opacity="0.15"/><rect x="12" y="0" width="1" height="24" fill="#ff9ff3" opacity="0.15"/><rect x="15" y="0" width="1" height="24" fill="#ff9ff3" opacity="0.15"/><rect x="18" y="0" width="1" height="24" fill="#ff9ff3" opacity="0.15"/><rect x="21" y="0" width="1" height="24" fill="#ff9ff3" opacity="0.15"/><polygon points="12,6 18,12 12,18 6,12" fill="#95a5a6"/><polygon points="12,6 18,12 12,18 6,12" fill="none" stroke="#627273" stroke-width="0.5"/><circle cx="9" cy="11" r="0.5" fill="#ff00ff"/><circle cx="15" cy="11" r="0.5" fill="#ff00ff"/><circle cx="9" cy="11" r="0.3" fill="#000"/><circle cx="15" cy="11" r="0.3" fill="#000"/><ellipse cx="12" cy="3" rx="5" ry="1.5" fill="none" stroke="#ff9ff3" stroke-width="1"/><text x="23" y="23.5" font-size="1.5" fill="#e94560" opacity="0.3" text-anchor="end">#8671</text></svg>