<svg xmlns="http://www.w3.org/2000/svg" width="480" height="480" viewBox="0 0 24 24"><style>rect{shape-rendering:crispEdges;}</style><rect width="24" height="24" fill="#1a1a2e"/><circle cx="2" cy="2" r="0.5" fill="#a29bfe" opacity="0.2"/><circle cx="2" cy="6" r="0.5" fill="#a29bfe" opacity="0.2"/><circle cx="2" cy="10" r="0.5" fill="#a29bfe" opacity="0.2"/><circle cx="2" cy="14" r="0.5" fill="#a29bfe" opacity="0.2"/><circle cx="2" cy="18" r="0.5" fill="#a29bfe" opacity="0.2"/><circle cx="2" cy="22" r="0.5" fill="#a29bfe" opacity="0.2"/><circle cx="6" cy="2" r="0.5" fill="#a29bfe" opacity="0.2"/><circle cx="6" cy="6" r="0.5" fill="#a29bfe" opacity="0.2"/><circle cx="6" cy="10" r="0.5" fill="#a29bfe" opacity="0.2"/><circle cx="6" cy="14" r="0.5" fill="#a29bfe" opacity="0.2"/><circle cx="6" cy="18" r="0.5" fill="#a29bfe" opacity="0.2"/><circle cx="6" cy="22" r="0.5" fill="#a29bfe" opacity="0.2"/><circle cx="10" cy="2" r="0.5" fill="#a29bfe" opacity="0.2"/><circle cx="10" cy="6" r="0.5" fill="#a29bfe" opacity="0.2"/><circle cx="10" cy="10" r="0.5" fill="#a29bfe" opacity="0.2"/><circle cx="10" cy="14" r="0.5" fill="#a29bfe" opacity="0.2"/><circle cx="10" cy="18" r="0.5" fill="#a29bfe" opacity="0.2"/><circle cx="10" cy="22" r="0.5" fill="#a29bfe" opacity="0.2"/><circle cx="14" cy="2" r="0.5" fill="#a29bfe" opacity="0.2"/><circle cx="14" cy="6" r="0.5" fill="#a29bfe" opacity="0.2"/><circle cx="14" cy="10" r="0.5" fill="#a29bfe" opacity="0.2"/><circle cx="14" cy="14" r="0.5" fill="#a29bfe" opacity="0.2"/><circle cx="14" cy="18" r="0.5" fill="#a29bfe" opacity="0.2"/><circle cx="14" cy="22" r="0.5" fill="#a29bfe" opacity="0.2"/><circle cx="18" cy="2" r="0.5" fill="#a29bfe" opacity="0.2"/><circle cx="18" cy="6" r="0.5" fill="#a29bfe" opacity="0.2"/><circle cx="18" cy="10" r="0.5" fill="#a29bfe" opacity="0.2"/><circle cx="18" cy="14" r="0.5" fill="#a29bfe" opacity="0.2"/><circle cx="18" cy="18" r="0.5" fill="#a29bfe" opacity="0.2"/><circle cx="18" cy="22" r="0.5" fill="#a29bfe" opacity="0.2"/><circle cx="22" cy="2" r="0.5" fill="#a29bfe" opacity="0.2"/><circle cx="22" cy="6" r="0.5" fill="#a29bfe" opacity="0.2"/><circle cx="22" cy="10" r="0.5" fill="#a29bfe" opacity="0.2"/><circle cx="22" cy="14" r="0.5" fill="#a29bfe" opacity="0.2"/><circle cx="22" cy="18" r="0.5" fill="#a29bfe" opacity="0.2"/><circle cx="22" cy="22" r="0.5" fill="#a29bfe" opacity="0.2"/><polygon points="12,6 18,12 12,18 6,12" fill="#8e44ad"/><polygon points="12,6 18,12 12,18 6,12" fill="none" stroke="#5b117a" stroke-width="0.5"/><circle cx="8" cy="11" r="1.5" fill="#00ff00"/><circle cx="16" cy="11" r="1.5" fill="#00ff00"/><circle cx="8" cy="11" r="0.75" fill="#000"/><circle cx="16" cy="11" r="0.75" fill="#000"/><rect x="10" y="3" width="1" height="3" fill="#a29bfe"/><rect x="11" y="1.5652878182009546" width="1" height="4.434712181799045" fill="#a29bfe"/><rect x="12" y="1.00085279391699" width="1" height="4.99914720608301" fill="#a29bfe"/><rect x="13" y="1.6490736388976988" width="1" height="4.350926361102301" fill="#a29bfe"/><rect x="14" y="3.1167482868551604" width="1" height="2.8832517131448396" fill="#a29bfe"/><text x="23" y="23.5" font-size="1.5" fill="#1a1a2e" opacity="0.3" text-anchor="end">#8713</text></svg>