<svg xmlns="http://www.w3.org/2000/svg" width="480" height="480" viewBox="0 0 24 24"><style>rect{shape-rendering:crispEdges;}</style><rect width="24" height="24" fill="#e67e22"/><rect x="0" y="0" width="2" height="2" fill="#fdcb6e" opacity="0.15"/><rect x="0" y="8" width="2" height="2" fill="#fdcb6e" opacity="0.15"/><rect x="0" y="16" width="2" height="2" fill="#fdcb6e" opacity="0.15"/><rect x="4" y="4" width="2" height="2" fill="#fdcb6e" opacity="0.15"/><rect x="4" y="12" width="2" height="2" fill="#fdcb6e" opacity="0.15"/><rect x="4" y="20" width="2" height="2" fill="#fdcb6e" opacity="0.15"/><rect x="8" y="0" width="2" height="2" fill="#fdcb6e" opacity="0.15"/><rect x="8" y="8" width="2" height="2" fill="#fdcb6e" opacity="0.15"/><rect x="8" y="16" width="2" height="2" fill="#fdcb6e" opacity="0.15"/><rect x="12" y="4" width="2" height="2" fill="#fdcb6e" opacity="0.15"/><rect x="12" y="12" width="2" height="2" fill="#fdcb6e" opacity="0.15"/><rect x="12" y="20" width="2" height="2" fill="#fdcb6e" opacity="0.15"/><rect x="16" y="0" width="2" height="2" fill="#fdcb6e" opacity="0.15"/><rect x="16" y="8" width="2" height="2" fill="#fdcb6e" opacity="0.15"/><rect x="16" y="16" width="2" height="2" fill="#fdcb6e" opacity="0.15"/><rect x="20" y="4" width="2" height="2" fill="#fdcb6e" opacity="0.15"/><rect x="20" y="12" width="2" height="2" fill="#fdcb6e" opacity="0.15"/><rect x="20" y="20" width="2" height="2" fill="#fdcb6e" opacity="0.15"/><polygon points="12,6 18,17 6,17" fill="#e67e22"/><polygon points="12,6 18,17 6,17" fill="none" stroke="#b34b00" stroke-width="0.5"/><rect x="8" y="10" width="2" height="2" fill="#00ffff"/><rect x="14" y="10" width="2" height="2" fill="#00ffff"/><circle cx="9" cy="11" r="0.5" fill="#000"/><circle cx="15" cy="11" r="0.5" fill="#000"/><rect x="6" y="4" width="12" height="1" fill="#fdcb6e"/><rect x="8" y="0" width="8" height="4" fill="#fdcb6e"/><text x="23" y="23.5" font-size="1.5" fill="#e67e22" opacity="0.3" text-anchor="end">#8788</text></svg>