<svg xmlns="http://www.w3.org/2000/svg" width="480" height="480" viewBox="0 0 24 24"><style>rect{shape-rendering:crispEdges;}</style><rect width="24" height="24" fill="#95a5a6"/><rect x="0" y="0" width="0.5" height="24" fill="#ee5a24" opacity="0.15"/><rect x="0" y="0" width="24" height="0.5" fill="#ee5a24" opacity="0.15"/><rect x="4" y="0" width="0.5" height="24" fill="#ee5a24" opacity="0.15"/><rect x="0" y="4" width="24" height="0.5" fill="#ee5a24" opacity="0.15"/><rect x="8" y="0" width="0.5" height="24" fill="#ee5a24" opacity="0.15"/><rect x="0" y="8" width="24" height="0.5" fill="#ee5a24" opacity="0.15"/><rect x="12" y="0" width="0.5" height="24" fill="#ee5a24" opacity="0.15"/><rect x="0" y="12" width="24" height="0.5" fill="#ee5a24" opacity="0.15"/><rect x="16" y="0" width="0.5" height="24" fill="#ee5a24" opacity="0.15"/><rect x="0" y="16" width="24" height="0.5" fill="#ee5a24" opacity="0.15"/><rect x="20" y="0" width="0.5" height="24" fill="#ee5a24" opacity="0.15"/><rect x="0" y="20" width="24" height="0.5" fill="#ee5a24" opacity="0.15"/><polygon points="12,7 16.33012701892219,9.5 16.330127018922195,14.5 12,17 7.669872981077807,14.500000000000002 7.669872981077805,9.500000000000004" fill="#95a5a6"/><polygon points="12,7 16.33012701892219,9.5 16.330127018922195,14.5 12,17 7.669872981077807,14.500000000000002 7.669872981077805,9.500000000000004" fill="none" stroke="#627273" stroke-width="0.5"/><rect x="8" y="10" width="2" height="2" fill="#ff00ff"/><rect x="14" y="10" width="2" height="2" fill="#ff00ff"/><circle cx="9" cy="11" r="0.5" fill="#000"/><circle cx="15" cy="11" r="0.5" fill="#000"/><rect x="7" y="4" width="10" height="2" fill="#ee5a24"/><polygon points="8,4 8,1 10,3 12,0 14,3 16,1 16,4" fill="#ee5a24"/><text x="23" y="23.5" font-size="1.5" fill="#95a5a6" opacity="0.3" text-anchor="end">#8813</text></svg>