<svg xmlns="http://www.w3.org/2000/svg" width="480" height="480" viewBox="0 0 24 24"><style>rect{shape-rendering:crispEdges;}</style><rect width="24" height="24" fill="#95a5a6"/><circle cx="2" cy="2" r="0.5" fill="#ff9ff3" opacity="0.2"/><circle cx="2" cy="6" r="0.5" fill="#ff9ff3" opacity="0.2"/><circle cx="2" cy="10" r="0.5" fill="#ff9ff3" opacity="0.2"/><circle cx="2" cy="14" r="0.5" fill="#ff9ff3" opacity="0.2"/><circle cx="2" cy="18" r="0.5" fill="#ff9ff3" opacity="0.2"/><circle cx="2" cy="22" r="0.5" fill="#ff9ff3" opacity="0.2"/><circle cx="6" cy="2" r="0.5" fill="#ff9ff3" opacity="0.2"/><circle cx="6" cy="6" r="0.5" fill="#ff9ff3" opacity="0.2"/><circle cx="6" cy="10" r="0.5" fill="#ff9ff3" opacity="0.2"/><circle cx="6" cy="14" r="0.5" fill="#ff9ff3" opacity="0.2"/><circle cx="6" cy="18" r="0.5" fill="#ff9ff3" opacity="0.2"/><circle cx="6" cy="22" r="0.5" fill="#ff9ff3" opacity="0.2"/><circle cx="10" cy="2" r="0.5" fill="#ff9ff3" opacity="0.2"/><circle cx="10" cy="6" r="0.5" fill="#ff9ff3" opacity="0.2"/><circle cx="10" cy="10" r="0.5" fill="#ff9ff3" opacity="0.2"/><circle cx="10" cy="14" r="0.5" fill="#ff9ff3" opacity="0.2"/><circle cx="10" cy="18" r="0.5" fill="#ff9ff3" opacity="0.2"/><circle cx="10" cy="22" r="0.5" fill="#ff9ff3" opacity="0.2"/><circle cx="14" cy="2" r="0.5" fill="#ff9ff3" opacity="0.2"/><circle cx="14" cy="6" r="0.5" fill="#ff9ff3" opacity="0.2"/><circle cx="14" cy="10" r="0.5" fill="#ff9ff3" opacity="0.2"/><circle cx="14" cy="14" r="0.5" fill="#ff9ff3" opacity="0.2"/><circle cx="14" cy="18" r="0.5" fill="#ff9ff3" opacity="0.2"/><circle cx="14" cy="22" r="0.5" fill="#ff9ff3" opacity="0.2"/><circle cx="18" cy="2" r="0.5" fill="#ff9ff3" opacity="0.2"/><circle cx="18" cy="6" r="0.5" fill="#ff9ff3" opacity="0.2"/><circle cx="18" cy="10" r="0.5" fill="#ff9ff3" opacity="0.2"/><circle cx="18" cy="14" r="0.5" fill="#ff9ff3" opacity="0.2"/><circle cx="18" cy="18" r="0.5" fill="#ff9ff3" opacity="0.2"/><circle cx="18" cy="22" r="0.5" fill="#ff9ff3" opacity="0.2"/><circle cx="22" cy="2" r="0.5" fill="#ff9ff3" opacity="0.2"/><circle cx="22" cy="6" r="0.5" fill="#ff9ff3" opacity="0.2"/><circle cx="22" cy="10" r="0.5" fill="#ff9ff3" opacity="0.2"/><circle cx="22" cy="14" r="0.5" fill="#ff9ff3" opacity="0.2"/><circle cx="22" cy="18" r="0.5" fill="#ff9ff3" opacity="0.2"/><circle cx="22" cy="22" r="0.5" fill="#ff9ff3" opacity="0.2"/><polygon points="12,6 13.76335575687742,9.572949016875157 17.706339097770922,10.145898033750315 14.853169548885461,12.927050983124841 15.526711513754838,16.854101966249686 12,15 8.473288486245162,16.854101966249686 9.146830451114539,12.927050983124843 6.293660902229078,10.145898033750317 10.23664424312258,9.572949016875159" fill="#d35400"/><polygon points="12,6 13.76335575687742,9.572949016875157 17.706339097770922,10.145898033750315 14.853169548885461,12.927050983124841 15.526711513754838,16.854101966249686 12,15 8.473288486245162,16.854101966249686 9.146830451114539,12.927050983124843 6.293660902229078,10.145898033750317 10.23664424312258,9.572949016875159" fill="none" stroke="#a02100" stroke-width="0.5"/><circle cx="10" cy="11" r="0.5" fill="#00ffff"/><circle cx="14" cy="11" r="0.5" fill="#00ffff"/><circle cx="10" cy="11" r="0.3" fill="#000"/><circle cx="14" cy="11" r="0.3" fill="#000"/><polygon points="6,7 3,2 7,5" fill="#ff9ff3"/><polygon points="18,7 21,2 17,5" fill="#ff9ff3"/><text x="23" y="23.5" font-size="1.5" fill="#95a5a6" opacity="0.3" text-anchor="end">#8984</text></svg>