<svg xmlns="http://www.w3.org/2000/svg" width="480" height="480" viewBox="0 0 24 24"><style>rect{shape-rendering:crispEdges;}</style><rect width="24" height="24" fill="#3498db"/><rect x="0" y="0" width="1" height="24" fill="#6c5ce7" opacity="0.15"/><rect x="3" y="0" width="1" height="24" fill="#6c5ce7" opacity="0.15"/><rect x="6" y="0" width="1" height="24" fill="#6c5ce7" opacity="0.15"/><rect x="9" y="0" width="1" height="24" fill="#6c5ce7" opacity="0.15"/><rect x="12" y="0" width="1" height="24" fill="#6c5ce7" opacity="0.15"/><rect x="15" y="0" width="1" height="24" fill="#6c5ce7" opacity="0.15"/><rect x="18" y="0" width="1" height="24" fill="#6c5ce7" opacity="0.15"/><rect x="21" y="0" width="1" height="24" fill="#6c5ce7" opacity="0.15"/><rect x="7" y="7" width="10" height="10" fill="#f5f5f5"/><rect x="7" y="7" width="10" height="1" fill="#c2c2c2"/><rect x="7" y="7" width="1" height="10" fill="#c2c2c2"/><circle cx="10" cy="11" r="0.5" fill="#ffff00"/><circle cx="14" cy="11" r="0.5" fill="#ffff00"/><circle cx="10" cy="11" r="0.3" fill="#000"/><circle cx="14" cy="11" r="0.3" fill="#000"/><polygon points="6,7 3,2 7,5" fill="#6c5ce7"/><polygon points="18,7 21,2 17,5" fill="#6c5ce7"/><text x="23" y="23.5" font-size="1.5" fill="#3498db" opacity="0.3" text-anchor="end">#9016</text></svg>