<svg xmlns="http://www.w3.org/2000/svg" width="480" height="480" viewBox="0 0 24 24"><style>rect{shape-rendering:crispEdges;}</style><rect width="24" height="24" fill="#95a5a6"/><rect x="0" y="0" width="2" height="2" fill="#5f27cd" opacity="0.15"/><rect x="0" y="8" width="2" height="2" fill="#5f27cd" opacity="0.15"/><rect x="0" y="16" width="2" height="2" fill="#5f27cd" opacity="0.15"/><rect x="4" y="4" width="2" height="2" fill="#5f27cd" opacity="0.15"/><rect x="4" y="12" width="2" height="2" fill="#5f27cd" opacity="0.15"/><rect x="4" y="20" width="2" height="2" fill="#5f27cd" opacity="0.15"/><rect x="8" y="0" width="2" height="2" fill="#5f27cd" opacity="0.15"/><rect x="8" y="8" width="2" height="2" fill="#5f27cd" opacity="0.15"/><rect x="8" y="16" width="2" height="2" fill="#5f27cd" opacity="0.15"/><rect x="12" y="4" width="2" height="2" fill="#5f27cd" opacity="0.15"/><rect x="12" y="12" width="2" height="2" fill="#5f27cd" opacity="0.15"/><rect x="12" y="20" width="2" height="2" fill="#5f27cd" opacity="0.15"/><rect x="16" y="0" width="2" height="2" fill="#5f27cd" opacity="0.15"/><rect x="16" y="8" width="2" height="2" fill="#5f27cd" opacity="0.15"/><rect x="16" y="16" width="2" height="2" fill="#5f27cd" opacity="0.15"/><rect x="20" y="4" width="2" height="2" fill="#5f27cd" opacity="0.15"/><rect x="20" y="12" width="2" height="2" fill="#5f27cd" opacity="0.15"/><rect x="20" y="20" width="2" height="2" fill="#5f27cd" opacity="0.15"/><path d="M7 17 L7 10 A5 5 0 0 1 17 10 L17 17 L15 15 L13 17 L11 15 L9 17 Z" fill="#f5f5f5"/><circle cx="9" cy="11" r="0.5" fill="#ff0000"/><circle cx="15" cy="11" r="0.5" fill="#ff0000"/><circle cx="9" cy="11" r="0.3" fill="#000"/><circle cx="15" cy="11" r="0.3" fill="#000"/><rect x="7" y="4" width="10" height="2" fill="#5f27cd"/><polygon points="8,4 8,1 10,3 12,0 14,3 16,1 16,4" fill="#5f27cd"/><text x="23" y="23.5" font-size="1.5" fill="#95a5a6" opacity="0.3" text-anchor="end">#9018</text></svg>