<svg xmlns="http://www.w3.org/2000/svg" width="480" height="480" viewBox="0 0 24 24"><style>rect{shape-rendering:crispEdges;}</style><rect width="24" height="24" fill="#e67e22"/><rect x="0" y="0" width="1" height="24" fill="#feca57" opacity="0.15"/><rect x="3" y="0" width="1" height="24" fill="#feca57" opacity="0.15"/><rect x="6" y="0" width="1" height="24" fill="#feca57" opacity="0.15"/><rect x="9" y="0" width="1" height="24" fill="#feca57" opacity="0.15"/><rect x="12" y="0" width="1" height="24" fill="#feca57" opacity="0.15"/><rect x="15" y="0" width="1" height="24" fill="#feca57" opacity="0.15"/><rect x="18" y="0" width="1" height="24" fill="#feca57" opacity="0.15"/><rect x="21" y="0" width="1" height="24" fill="#feca57" opacity="0.15"/><polygon points="12,6 18,17 6,17" fill="#bdc3c7"/><polygon points="12,6 18,17 6,17" fill="none" stroke="#8a9094" stroke-width="0.5"/><circle cx="8" cy="11" r="2" fill="#0000ff"/><circle cx="16" cy="11" r="2" fill="#0000ff"/><circle cx="8" cy="11" r="1" fill="#000"/><circle cx="16" cy="11" r="1" fill="#000"/><polygon points="6,7 3,2 7,5" fill="#feca57"/><polygon points="18,7 21,2 17,5" fill="#feca57"/><text x="23" y="23.5" font-size="1.5" fill="#e67e22" opacity="0.3" text-anchor="end">#9222</text></svg>