<svg xmlns="http://www.w3.org/2000/svg" width="480" height="480" viewBox="0 0 24 24"><style>rect{shape-rendering:crispEdges;}</style><rect width="24" height="24" fill="#7f8c8d"/><rect x="0" y="0" width="0.5" height="24" fill="#48dbfb" opacity="0.15"/><rect x="0" y="0" width="24" height="0.5" fill="#48dbfb" opacity="0.15"/><rect x="4" y="0" width="0.5" height="24" fill="#48dbfb" opacity="0.15"/><rect x="0" y="4" width="24" height="0.5" fill="#48dbfb" opacity="0.15"/><rect x="8" y="0" width="0.5" height="24" fill="#48dbfb" opacity="0.15"/><rect x="0" y="8" width="24" height="0.5" fill="#48dbfb" opacity="0.15"/><rect x="12" y="0" width="0.5" height="24" fill="#48dbfb" opacity="0.15"/><rect x="0" y="12" width="24" height="0.5" fill="#48dbfb" opacity="0.15"/><rect x="16" y="0" width="0.5" height="24" fill="#48dbfb" opacity="0.15"/><rect x="0" y="16" width="24" height="0.5" fill="#48dbfb" opacity="0.15"/><rect x="20" y="0" width="0.5" height="24" fill="#48dbfb" opacity="0.15"/><rect x="0" y="20" width="24" height="0.5" fill="#48dbfb" opacity="0.15"/><polygon points="12,6 18,12 12,18 6,12" fill="#d35400"/><polygon points="12,6 18,12 12,18 6,12" fill="none" stroke="#a02100" stroke-width="0.5"/><rect x="8" y="10" width="2" height="2" fill="#00ffff"/><rect x="14" y="10" width="2" height="2" fill="#00ffff"/><circle cx="9" cy="11" r="0.5" fill="#000"/><circle cx="15" cy="11" r="0.5" fill="#000"/><polygon points="6,7 3,2 7,5" fill="#48dbfb"/><polygon points="18,7 21,2 17,5" fill="#48dbfb"/><text x="23" y="23.5" font-size="1.5" fill="#7f8c8d" opacity="0.3" text-anchor="end">#9230</text></svg>