<svg xmlns="http://www.w3.org/2000/svg" width="480" height="480" viewBox="0 0 24 24"><style>rect{shape-rendering:crispEdges;}</style><rect width="24" height="24" fill="#16213e"/><rect x="0" y="0" width="0.5" height="24" fill="#54a0ff" opacity="0.15"/><rect x="0" y="0" width="24" height="0.5" fill="#54a0ff" opacity="0.15"/><rect x="4" y="0" width="0.5" height="24" fill="#54a0ff" opacity="0.15"/><rect x="0" y="4" width="24" height="0.5" fill="#54a0ff" opacity="0.15"/><rect x="8" y="0" width="0.5" height="24" fill="#54a0ff" opacity="0.15"/><rect x="0" y="8" width="24" height="0.5" fill="#54a0ff" opacity="0.15"/><rect x="12" y="0" width="0.5" height="24" fill="#54a0ff" opacity="0.15"/><rect x="0" y="12" width="24" height="0.5" fill="#54a0ff" opacity="0.15"/><rect x="16" y="0" width="0.5" height="24" fill="#54a0ff" opacity="0.15"/><rect x="0" y="16" width="24" height="0.5" fill="#54a0ff" opacity="0.15"/><rect x="20" y="0" width="0.5" height="24" fill="#54a0ff" opacity="0.15"/><rect x="0" y="20" width="24" height="0.5" fill="#54a0ff" opacity="0.15"/><circle cx="12" cy="12" r="5" fill="#8e44ad"/><circle cx="12" cy="12" r="5" fill="none" stroke="#5b117a" stroke-width="0.5"/><circle cx="8" cy="11" r="2" fill="#ffffff"/><circle cx="16" cy="11" r="2" fill="#ffffff"/><circle cx="8" cy="11" r="1" fill="#000"/><circle cx="16" cy="11" r="1" fill="#000"/><rect x="7" y="4" width="10" height="2" fill="#54a0ff"/><polygon points="8,4 8,1 10,3 12,0 14,3 16,1 16,4" fill="#54a0ff"/><text x="23" y="23.5" font-size="1.5" fill="#16213e" opacity="0.3" text-anchor="end">#932</text></svg>