<svg xmlns="http://www.w3.org/2000/svg" width="480" height="480" viewBox="0 0 24 24"><style>rect{shape-rendering:crispEdges;}</style><rect width="24" height="24" fill="#2c3e50"/><rect x="0" y="0" width="2" height="2" fill="#ee5a24" opacity="0.15"/><rect x="0" y="8" width="2" height="2" fill="#ee5a24" opacity="0.15"/><rect x="0" y="16" width="2" height="2" fill="#ee5a24" opacity="0.15"/><rect x="4" y="4" width="2" height="2" fill="#ee5a24" opacity="0.15"/><rect x="4" y="12" width="2" height="2" fill="#ee5a24" opacity="0.15"/><rect x="4" y="20" width="2" height="2" fill="#ee5a24" opacity="0.15"/><rect x="8" y="0" width="2" height="2" fill="#ee5a24" opacity="0.15"/><rect x="8" y="8" width="2" height="2" fill="#ee5a24" opacity="0.15"/><rect x="8" y="16" width="2" height="2" fill="#ee5a24" opacity="0.15"/><rect x="12" y="4" width="2" height="2" fill="#ee5a24" opacity="0.15"/><rect x="12" y="12" width="2" height="2" fill="#ee5a24" opacity="0.15"/><rect x="12" y="20" width="2" height="2" fill="#ee5a24" opacity="0.15"/><rect x="16" y="0" width="2" height="2" fill="#ee5a24" opacity="0.15"/><rect x="16" y="8" width="2" height="2" fill="#ee5a24" opacity="0.15"/><rect x="16" y="16" width="2" height="2" fill="#ee5a24" opacity="0.15"/><rect x="20" y="4" width="2" height="2" fill="#ee5a24" opacity="0.15"/><rect x="20" y="12" width="2" height="2" fill="#ee5a24" opacity="0.15"/><rect x="20" y="20" width="2" height="2" fill="#ee5a24" opacity="0.15"/><circle cx="12" cy="12" r="5" fill="#c0392b"/><circle cx="12" cy="12" r="5" fill="none" stroke="#8d0600" stroke-width="0.5"/><rect x="8" y="10" width="2" height="2" fill="#ff0000"/><rect x="14" y="10" width="2" height="2" fill="#ff0000"/><circle cx="9" cy="11" r="0.5" fill="#000"/><circle cx="15" cy="11" r="0.5" fill="#000"/><ellipse cx="12" cy="3" rx="5" ry="1.5" fill="none" stroke="#ee5a24" stroke-width="1"/><text x="23" y="23.5" font-size="1.5" fill="#2c3e50" opacity="0.3" text-anchor="end">#9340</text></svg>