<svg xmlns="http://www.w3.org/2000/svg" width="480" height="480" viewBox="0 0 24 24"><style>rect{shape-rendering:crispEdges;}</style><rect width="24" height="24" fill="#1a1a2e"/><rect x="0" y="0" width="1" height="24" fill="#48dbfb" opacity="0.15"/><rect x="3" y="0" width="1" height="24" fill="#48dbfb" opacity="0.15"/><rect x="6" y="0" width="1" height="24" fill="#48dbfb" opacity="0.15"/><rect x="9" y="0" width="1" height="24" fill="#48dbfb" opacity="0.15"/><rect x="12" y="0" width="1" height="24" fill="#48dbfb" opacity="0.15"/><rect x="15" y="0" width="1" height="24" fill="#48dbfb" opacity="0.15"/><rect x="18" y="0" width="1" height="24" fill="#48dbfb" opacity="0.15"/><rect x="21" y="0" width="1" height="24" fill="#48dbfb" opacity="0.15"/><rect x="7" y="7" width="10" height="10" fill="#f39c12"/><rect x="7" y="7" width="10" height="1" fill="#c06900"/><rect x="7" y="7" width="1" height="10" fill="#c06900"/><circle cx="12" cy="11" r="1.5" fill="#ff00ff"/><circle cx="12" cy="11" r="0.75" fill="#000"/><line x1="12" y1="6" x2="12" y2="1" stroke="#48dbfb" stroke-width="0.8"/><circle cx="12" cy="0" r="1.5" fill="#48dbfb"/><text x="23" y="23.5" font-size="1.5" fill="#1a1a2e" opacity="0.3" text-anchor="end">#9371</text></svg>