<svg xmlns="http://www.w3.org/2000/svg" width="480" height="480" viewBox="0 0 24 24"><style>rect{shape-rendering:crispEdges;}</style><rect width="24" height="24" fill="#9b59b6"/><rect x="0" y="0" width="1" height="24" fill="#a29bfe" opacity="0.15"/><rect x="3" y="0" width="1" height="24" fill="#a29bfe" opacity="0.15"/><rect x="6" y="0" width="1" height="24" fill="#a29bfe" opacity="0.15"/><rect x="9" y="0" width="1" height="24" fill="#a29bfe" opacity="0.15"/><rect x="12" y="0" width="1" height="24" fill="#a29bfe" opacity="0.15"/><rect x="15" y="0" width="1" height="24" fill="#a29bfe" opacity="0.15"/><rect x="18" y="0" width="1" height="24" fill="#a29bfe" opacity="0.15"/><rect x="21" y="0" width="1" height="24" fill="#a29bfe" opacity="0.15"/><polygon points="12,6 18,17 6,17" fill="#8e44ad"/><polygon points="12,6 18,17 6,17" fill="none" stroke="#5b117a" stroke-width="0.5"/><rect x="8" y="10" width="2" height="2" fill="#ff00ff"/><rect x="14" y="10" width="2" height="2" fill="#ff00ff"/><circle cx="9" cy="11" r="0.5" fill="#000"/><circle cx="15" cy="11" r="0.5" fill="#000"/><line x1="12" y1="6" x2="12" y2="1" stroke="#a29bfe" stroke-width="0.8"/><circle cx="12" cy="0" r="1.5" fill="#a29bfe"/><text x="23" y="23.5" font-size="1.5" fill="#9b59b6" opacity="0.3" text-anchor="end">#9417</text></svg>