<svg xmlns="http://www.w3.org/2000/svg" width="480" height="480" viewBox="0 0 24 24"><style>rect{shape-rendering:crispEdges;}</style><rect width="24" height="24" fill="#16213e"/><rect x="0" y="0" width="1" height="24" fill="#fdcb6e" opacity="0.15"/><rect x="3" y="0" width="1" height="24" fill="#fdcb6e" opacity="0.15"/><rect x="6" y="0" width="1" height="24" fill="#fdcb6e" opacity="0.15"/><rect x="9" y="0" width="1" height="24" fill="#fdcb6e" opacity="0.15"/><rect x="12" y="0" width="1" height="24" fill="#fdcb6e" opacity="0.15"/><rect x="15" y="0" width="1" height="24" fill="#fdcb6e" opacity="0.15"/><rect x="18" y="0" width="1" height="24" fill="#fdcb6e" opacity="0.15"/><rect x="21" y="0" width="1" height="24" fill="#fdcb6e" opacity="0.15"/><polygon points="12,6 18,17 6,17" fill="#1abc9c"/><polygon points="12,6 18,17 6,17" fill="none" stroke="#008969" stroke-width="0.5"/><circle cx="9" cy="11" r="0.5" fill="#0000ff"/><circle cx="15" cy="11" r="0.5" fill="#0000ff"/><circle cx="9" cy="11" r="0.3" fill="#000"/><circle cx="15" cy="11" r="0.3" fill="#000"/><rect x="6" y="4" width="12" height="1" fill="#fdcb6e"/><rect x="8" y="0" width="8" height="4" fill="#fdcb6e"/><text x="23" y="23.5" font-size="1.5" fill="#16213e" opacity="0.3" text-anchor="end">#943</text></svg>