<svg xmlns="http://www.w3.org/2000/svg" width="480" height="480" viewBox="0 0 24 24"><style>rect{shape-rendering:crispEdges;}</style><rect width="24" height="24" fill="#9b59b6"/><rect x="0" y="0" width="0.5" height="24" fill="#a29bfe" opacity="0.15"/><rect x="0" y="0" width="24" height="0.5" fill="#a29bfe" opacity="0.15"/><rect x="4" y="0" width="0.5" height="24" fill="#a29bfe" opacity="0.15"/><rect x="0" y="4" width="24" height="0.5" fill="#a29bfe" opacity="0.15"/><rect x="8" y="0" width="0.5" height="24" fill="#a29bfe" opacity="0.15"/><rect x="0" y="8" width="24" height="0.5" fill="#a29bfe" opacity="0.15"/><rect x="12" y="0" width="0.5" height="24" fill="#a29bfe" opacity="0.15"/><rect x="0" y="12" width="24" height="0.5" fill="#a29bfe" opacity="0.15"/><rect x="16" y="0" width="0.5" height="24" fill="#a29bfe" opacity="0.15"/><rect x="0" y="16" width="24" height="0.5" fill="#a29bfe" opacity="0.15"/><rect x="20" y="0" width="0.5" height="24" fill="#a29bfe" opacity="0.15"/><rect x="0" y="20" width="24" height="0.5" fill="#a29bfe" opacity="0.15"/><rect x="7" y="7" width="10" height="10" fill="#8e44ad"/><rect x="7" y="7" width="10" height="1" fill="#5b117a"/><rect x="7" y="7" width="1" height="10" fill="#5b117a"/><circle cx="10" cy="11" r="0.5" fill="#6600ff"/><circle cx="14" cy="11" r="0.5" fill="#6600ff"/><circle cx="10" cy="11" r="0.3" fill="#000"/><circle cx="14" cy="11" r="0.3" fill="#000"/><ellipse cx="12" cy="3" rx="5" ry="1.5" fill="none" stroke="#a29bfe" stroke-width="1"/><text x="23" y="23.5" font-size="1.5" fill="#9b59b6" opacity="0.3" text-anchor="end">#9608</text></svg>