<svg xmlns="http://www.w3.org/2000/svg" width="480" height="480" viewBox="0 0 24 24"><style>rect{shape-rendering:crispEdges;}</style><rect width="24" height="24" fill="#c0392b"/><circle cx="2" cy="2" r="0.5" fill="#feca57" opacity="0.2"/><circle cx="2" cy="6" r="0.5" fill="#feca57" opacity="0.2"/><circle cx="2" cy="10" r="0.5" fill="#feca57" opacity="0.2"/><circle cx="2" cy="14" r="0.5" fill="#feca57" opacity="0.2"/><circle cx="2" cy="18" r="0.5" fill="#feca57" opacity="0.2"/><circle cx="2" cy="22" r="0.5" fill="#feca57" opacity="0.2"/><circle cx="6" cy="2" r="0.5" fill="#feca57" opacity="0.2"/><circle cx="6" cy="6" r="0.5" fill="#feca57" opacity="0.2"/><circle cx="6" cy="10" r="0.5" fill="#feca57" opacity="0.2"/><circle cx="6" cy="14" r="0.5" fill="#feca57" opacity="0.2"/><circle cx="6" cy="18" r="0.5" fill="#feca57" opacity="0.2"/><circle cx="6" cy="22" r="0.5" fill="#feca57" opacity="0.2"/><circle cx="10" cy="2" r="0.5" fill="#feca57" opacity="0.2"/><circle cx="10" cy="6" r="0.5" fill="#feca57" opacity="0.2"/><circle cx="10" cy="10" r="0.5" fill="#feca57" opacity="0.2"/><circle cx="10" cy="14" r="0.5" fill="#feca57" opacity="0.2"/><circle cx="10" cy="18" r="0.5" fill="#feca57" opacity="0.2"/><circle cx="10" cy="22" r="0.5" fill="#feca57" opacity="0.2"/><circle cx="14" cy="2" r="0.5" fill="#feca57" opacity="0.2"/><circle cx="14" cy="6" r="0.5" fill="#feca57" opacity="0.2"/><circle cx="14" cy="10" r="0.5" fill="#feca57" opacity="0.2"/><circle cx="14" cy="14" r="0.5" fill="#feca57" opacity="0.2"/><circle cx="14" cy="18" r="0.5" fill="#feca57" opacity="0.2"/><circle cx="14" cy="22" r="0.5" fill="#feca57" opacity="0.2"/><circle cx="18" cy="2" r="0.5" fill="#feca57" opacity="0.2"/><circle cx="18" cy="6" r="0.5" fill="#feca57" opacity="0.2"/><circle cx="18" cy="10" r="0.5" fill="#feca57" opacity="0.2"/><circle cx="18" cy="14" r="0.5" fill="#feca57" opacity="0.2"/><circle cx="18" cy="18" r="0.5" fill="#feca57" opacity="0.2"/><circle cx="18" cy="22" r="0.5" fill="#feca57" opacity="0.2"/><circle cx="22" cy="2" r="0.5" fill="#feca57" opacity="0.2"/><circle cx="22" cy="6" r="0.5" fill="#feca57" opacity="0.2"/><circle cx="22" cy="10" r="0.5" fill="#feca57" opacity="0.2"/><circle cx="22" cy="14" r="0.5" fill="#feca57" opacity="0.2"/><circle cx="22" cy="18" r="0.5" fill="#feca57" opacity="0.2"/><circle cx="22" cy="22" r="0.5" fill="#feca57" opacity="0.2"/><path d="M12 16 C6 12 6 8 12 10 C18 8 18 12 12 16" fill="#3498db"/><circle cx="9" cy="11" r="0.5" fill="#ffff00"/><circle cx="15" cy="11" r="0.5" fill="#ffff00"/><circle cx="9" cy="11" r="0.3" fill="#000"/><circle cx="15" cy="11" r="0.3" fill="#000"/><rect x="6" y="4" width="12" height="1" fill="#feca57"/><rect x="8" y="0" width="8" height="4" fill="#feca57"/><text x="23" y="23.5" font-size="1.5" fill="#c0392b" opacity="0.3" text-anchor="end">#9744</text></svg>