<svg xmlns="http://www.w3.org/2000/svg" width="480" height="480" viewBox="0 0 24 24"><style>rect{shape-rendering:crispEdges;}</style><rect width="24" height="24" fill="#e74c3c"/><rect x="0" y="0" width="1" height="24" fill="#feca57" opacity="0.15"/><rect x="3" y="0" width="1" height="24" fill="#feca57" opacity="0.15"/><rect x="6" y="0" width="1" height="24" fill="#feca57" opacity="0.15"/><rect x="9" y="0" width="1" height="24" fill="#feca57" opacity="0.15"/><rect x="12" y="0" width="1" height="24" fill="#feca57" opacity="0.15"/><rect x="15" y="0" width="1" height="24" fill="#feca57" opacity="0.15"/><rect x="18" y="0" width="1" height="24" fill="#feca57" opacity="0.15"/><rect x="21" y="0" width="1" height="24" fill="#feca57" opacity="0.15"/><circle cx="12" cy="12" r="5" fill="#e74c3c"/><circle cx="12" cy="12" r="5" fill="none" stroke="#b41909" stroke-width="0.5"/><circle cx="7" cy="11" r="1" fill="#ff00ff"/><circle cx="17" cy="11" r="1" fill="#ff00ff"/><circle cx="7" cy="11" r="0.5" fill="#000"/><circle cx="17" cy="11" r="0.5" fill="#000"/><rect x="6" y="4" width="12" height="1" fill="#feca57"/><rect x="8" y="0" width="8" height="4" fill="#feca57"/><text x="23" y="23.5" font-size="1.5" fill="#e74c3c" opacity="0.3" text-anchor="end">#9816</text></svg>