<svg xmlns="http://www.w3.org/2000/svg" width="480" height="480" viewBox="0 0 24 24"><style>rect{shape-rendering:crispEdges;}</style><rect width="24" height="24" fill="#533483"/><rect x="0" y="0" width="1" height="24" fill="#00d2d3" opacity="0.15"/><rect x="3" y="0" width="1" height="24" fill="#00d2d3" opacity="0.15"/><rect x="6" y="0" width="1" height="24" fill="#00d2d3" opacity="0.15"/><rect x="9" y="0" width="1" height="24" fill="#00d2d3" opacity="0.15"/><rect x="12" y="0" width="1" height="24" fill="#00d2d3" opacity="0.15"/><rect x="15" y="0" width="1" height="24" fill="#00d2d3" opacity="0.15"/><rect x="18" y="0" width="1" height="24" fill="#00d2d3" opacity="0.15"/><rect x="21" y="0" width="1" height="24" fill="#00d2d3" opacity="0.15"/><polygon points="12,6 18,12 12,18 6,12" fill="#34495e"/><polygon points="12,6 18,12 12,18 6,12" fill="none" stroke="#01162b" stroke-width="0.5"/><circle cx="12" cy="11" r="1.5" fill="#00ff00"/><circle cx="12" cy="11" r="0.75" fill="#000"/><ellipse cx="9" cy="5" rx="2" ry="1.5" fill="#00d2d3"/><ellipse cx="15" cy="5" rx="2" ry="1.5" fill="#00d2d3"/><circle cx="12" cy="5" r="1" fill="#00d2d3"/><text x="23" y="23.5" font-size="1.5" fill="#533483" opacity="0.3" text-anchor="end">#9876</text></svg>